<?xml version="1.0" encoding="UTF-8"?>
<svg version="1.1" xmlns="http://www.w3.org/2000/svg" width="484" height="792">
<path d="M0 0 C4.95 0 9.9 0 15 0 C18.54794435 8.35283863 21.8082867 16.75548071 24.87109375 25.296875 C25.55117287 27.18117542 26.23125296 29.06547549 26.91138554 30.94975662 C27.85218956 33.55850885 28.79028917 36.16823012 29.72839355 38.7779541 C31.36455829 43.3281764 33.00459605 47.87700335 34.64527893 52.42559814 C35.51367404 54.83395822 36.3809077 57.24273757 37.24668884 59.65203857 C40.42127529 68.46619564 43.70965317 77.22574178 47 86 C47.33 57.62 47.66 29.24 48 0 C67 0 67 0 71.390625 4.3359375 C72.88745117 7.21557617 72.88745117 7.21557617 74.25 10.375 C75.35330477 12.56749654 76.45885825 14.75886263 77.56640625 16.94921875 C78.11699707 18.0995459 78.66758789 19.24987305 79.23486328 20.43505859 C82.25072469 26.52601411 85.74302251 32.33188827 89.1875 38.1875 C90.43301123 40.34649123 91.6766372 42.50657167 92.91796875 44.66796875 C94.91212436 48.13495816 96.94169359 51.56948932 99 55 C99.33 36.85 99.66 18.7 100 0 C106.6 0 113.2 0 120 0 C120 32.01 120 64.02 120 97 C113.4 97 106.8 97 100 97 C99.07960938 95.4015625 98.15921875 93.803125 97.2109375 92.15625 C90.55949498 80.61156854 83.89521601 69.07460653 77.1875 57.5625 C76.59565918 56.54542969 76.00381836 55.52835938 75.39404297 54.48046875 C74.57057373 53.06894531 74.57057373 53.06894531 73.73046875 51.62890625 C73.00960083 50.3924939 73.00960083 50.3924939 72.27416992 49.13110352 C71.23300282 47.38970715 70.12543875 45.68815812 69 44 C68.67 61.49 68.34 78.98 68 97 C55.13 97 42.26 97 29 97 C25.77977283 88.41272755 22.63532809 79.78442696 20 71 C11.75 71 3.5 71 -5 71 C-5.66 73.97 -6.32 76.94 -7 80 C-7.46518044 81.54432315 -7.95854569 83.08120223 -8.5078125 84.59765625 C-8.7464502 85.26547119 -8.98508789 85.93328613 -9.23095703 86.62133789 C-9.52599121 87.42692139 -9.82102539 88.23250488 -10.125 89.0625 C-11.07375 91.681875 -12.0225 94.30125 -13 97 C-19.93 97 -26.86 97 -34 97 C-33.30791645 92.15541513 -32.78191855 88.87558835 -31.14916992 84.49658203 C-30.76716431 83.46139938 -30.38515869 82.42621674 -29.99157715 81.35966492 C-29.57541138 80.25355362 -29.15924561 79.14744232 -28.73046875 78.0078125 C-28.29762573 76.84018875 -27.86478271 75.672565 -27.41882324 74.46955872 C-26.49301004 71.97466323 -25.56481986 69.4808262 -24.63217163 66.98849487 C-23.18332765 63.11665521 -21.7436636 59.24144729 -20.3059082 55.36547852 C-18.87505704 51.50910174 -17.44387381 47.65285359 -16.00944519 43.79780579 C-12.18868259 33.5278787 -8.419643 23.23992441 -4.6875 12.9375 C-4.19234059 11.57241418 -3.69714358 10.207342 -3.2019043 8.84228516 C-2.13342308 5.89528425 -1.06648047 2.94772554 0 0 Z M7 36 C6.32779649 37.93558599 5.66241923 39.87354372 5 41.8125 C4.62875 42.89144531 4.2575 43.97039062 3.875 45.08203125 C2.85638488 47.97120802 2.85638488 47.97120802 3 51 C6.3 51 9.6 51 13 51 C11.35 46.05 9.7 41.1 8 36 C7.67 36 7.34 36 7 36 Z " fill="#FFFFFF" transform="translate(196,459)"/>
<path d="M0 0 C19 0 19 0 23.390625 4.3359375 C24.88745117 7.21557617 24.88745117 7.21557617 26.25 10.375 C27.35330477 12.56749654 28.45885825 14.75886263 29.56640625 16.94921875 C30.39229248 18.67470947 30.39229248 18.67470947 31.23486328 20.43505859 C34.25072469 26.52601411 37.74302251 32.33188827 41.1875 38.1875 C42.43301123 40.34649123 43.6766372 42.50657167 44.91796875 44.66796875 C46.91212436 48.13495816 48.94169359 51.56948932 51 55 C51.33 36.85 51.66 18.7 52 0 C58.6 0 65.2 0 72 0 C72 31.68 72 63.36 72 96 C65.4 96 58.8 96 52 96 C48.56659432 92.07610779 47.01924182 89.88959605 45.08642578 85.34667969 C42.79814837 80.40400048 39.84578662 75.80027544 37.0625 71.125 C35.92652356 69.1703517 34.79241085 67.21461908 33.66015625 65.2578125 C29.49625194 58.13873597 25.24324428 51.0720738 21 44 C20.67 61.16 20.34 78.32 20 96 C13.4 96 6.8 96 0 96 C0 64.32 0 32.64 0 0 Z " fill="#FFFFFF" transform="translate(248,9)"/>
<path d="M0 0 C4.8482159 3.09208436 9.08373395 7.83902991 11.8203125 12.87109375 C11.88671875 14.8203125 11.88671875 14.8203125 10.8203125 16.87109375 C8.83449526 18.75149458 6.89722329 20.43890561 4.7578125 22.12109375 C4.18998047 22.58 3.62214844 23.03890625 3.03710938 23.51171875 C1.6383927 24.64009523 0.23024236 25.75676005 -1.1796875 26.87109375 C-4.32133633 25.52179585 -5.92332561 24.17758868 -7.9296875 21.43359375 C-11.74150089 16.84795358 -15.6179895 15.42624458 -21.41015625 14.5234375 C-26.57749531 14.17657653 -30.1632417 15.27284313 -34.390625 18.25390625 C-40.32059128 23.61418145 -43.07087738 30.98913656 -43.515625 38.88671875 C-43.72855116 48.94130387 -43.03879148 57.97199032 -36.8671875 66.37109375 C-32.66420427 70.28084559 -28.94344773 71.61506404 -23.3046875 72.43359375 C-18.08106474 72.19985188 -13.79857128 69.51718718 -10.1796875 65.87109375 C-8.8596875 63.23109375 -7.5396875 60.59109375 -6.1796875 57.87109375 C-13.1096875 57.87109375 -20.0396875 57.87109375 -27.1796875 57.87109375 C-27.1796875 51.27109375 -27.1796875 44.67109375 -27.1796875 37.87109375 C-13.6496875 37.87109375 -0.1196875 37.87109375 13.8203125 37.87109375 C13.8821875 41.62484375 13.9440625 45.37859375 14.0078125 49.24609375 C14.04878052 50.98898682 14.04878052 50.98898682 14.09057617 52.76708984 C14.17619541 63.61771725 12.03703998 71.68189945 4.8203125 79.87109375 C4.30597656 80.48984375 3.79164063 81.10859375 3.26171875 81.74609375 C-3.41712896 89.17771327 -10.88827629 92.03859588 -20.74121094 92.56469727 C-32.51536004 92.80607359 -41.21517106 90.76986568 -50.375 83.01171875 C-61.73701367 71.10865681 -64.67531403 56.45619984 -64.52905273 40.59033203 C-64.18265514 27.51176811 -60.93550918 14.97309884 -51.6640625 5.2265625 C-35.52306186 -8.67775662 -18.59558384 -9.63104611 0 0 Z " fill="#FFFFFF" transform="translate(382.1796875,464.12890625)"/>
<path d="M0 0 C7.24122863 4.25028637 12.40178778 9.63787983 16.875 16.6875 C14.80535824 18.72424283 12.72140298 20.74113419 10.625 22.75 C10.03847656 23.33072266 9.45195312 23.91144531 8.84765625 24.50976562 C8.27402344 25.05439453 7.70039063 25.59902344 7.109375 26.16015625 C6.58569336 26.66812744 6.06201172 27.17609863 5.52246094 27.69946289 C3.875 28.6875 3.875 28.6875 1.75732422 28.43847656 C-0.59393902 27.50041097 -1.31119088 26.43611614 -2.75 24.375 C-7.15557948 18.95446423 -12.95437443 17.18812509 -19.6875 16.125 C-25.27139486 17.03872825 -29.99044647 19.21699979 -33.73828125 23.5546875 C-39.77848077 32.71298411 -40.15905631 43.07135709 -39.125 53.6875 C-37.3950039 61.68288738 -34.22061519 67.83009405 -27.4375 72.5625 C-22.90164853 74.10297786 -18.86607318 74.38244558 -14.125 73.6875 C-7.70425207 70.47712604 -4.75100923 66.25252307 -2.125 59.6875 C-9.055 59.6875 -15.985 59.6875 -23.125 59.6875 C-23.125 53.0875 -23.125 46.4875 -23.125 39.6875 C-9.595 39.6875 3.935 39.6875 17.875 39.6875 C17.91625 43.4825 17.9575 47.2775 18 51.1875 C18.01820801 52.36763672 18.03641602 53.54777344 18.05517578 54.76367188 C18.11559661 66.30989754 15.67904085 75.10192494 7.90234375 83.92578125 C-0.5315226 92.05351815 -10.02988914 95.52188265 -21.61499023 95.41796875 C-31.99216581 94.84203957 -42.43432672 89.96879693 -49.41015625 82.19921875 C-57.39709171 70.50081442 -59.31943713 59.46711623 -59.375 45.5 C-59.395625 44.22318359 -59.41625 42.94636719 -59.4375 41.63085938 C-59.49312982 28.10585844 -56.36192904 17.11663656 -47.125 7 C-34.20036326 -5.07711957 -16.03739842 -7.20046459 0 0 Z " fill="#FFFFFF" transform="translate(152.125,11.3125)"/>
<path d="M0 0 C6.6 0 13.2 0 20 0 C20 11.88 20 23.76 20 36 C29.24 36 38.48 36 48 36 C48 24.12 48 12.24 48 0 C54.6 0 61.2 0 68 0 C68 32.01 68 64.02 68 97 C61.4 97 54.8 97 48 97 C48 83.47 48 69.94 48 56 C38.76 56 29.52 56 20 56 C20 69.53 20 83.06 20 97 C13.4 97 6.8 97 0 97 C0 64.99 0 32.98 0 0 Z " fill="#FFFFFF" transform="translate(93,459)"/>
<path d="M0 0 C8.46945606 5.78506914 14.16266343 14.19042785 17 24 C17.52400391 25.75376953 17.52400391 25.75376953 18.05859375 27.54296875 C22.12582803 44.13199452 19.34553131 62.39529277 10.93359375 77.015625 C5.14727571 85.94642698 -1.56692105 90.54912585 -12 93 C-23.52606893 94.39502025 -34.31385364 93.07256874 -43.81640625 85.86328125 C-53.019264 77.34618041 -58.34967137 66.51709938 -59.20361328 54.02026367 C-59.30384876 50.71929292 -59.32204454 47.42741139 -59.3125 44.125 C-59.32861328 43.01769531 -59.34472656 41.91039062 -59.36132812 40.76953125 C-59.36954269 26.78834248 -55.4034759 14.61573292 -45.9375 4.125 C-33.37236623 -7.53963251 -14.50117462 -8.54919996 0 0 Z M-33.125 20.0625 C-38.03769921 27.75906209 -39.65211911 34.94891303 -39.5 44 C-39.51546875 44.92039062 -39.5309375 45.84078125 -39.546875 46.7890625 C-39.50203403 54.74833396 -37.50255074 61.99146546 -32.6875 68.4375 C-28.86195716 72.08511062 -25.27196061 73.66162289 -20.0625 74.4375 C-14.69882115 73.67126016 -10.51350465 71.51350465 -6.6875 67.6875 C0.11251817 56.85784143 0.89683574 42.84534803 -1.75390625 30.484375 C-3.84837497 24.47201773 -6.29677574 19.86651199 -11.625 16.1875 C-19.49383874 13.41883452 -26.99026571 14.10819907 -33.125 20.0625 Z " fill="#FFFFFF" transform="translate(224,238)"/>
<path d="M0 0 C21.45 0 42.9 0 65 0 C65 6.6 65 13.2 65 20 C50.15 20 35.3 20 20 20 C20 25.28 20 30.56 20 36 C30.56 36 41.12 36 52 36 C52 42.6 52 49.2 52 56 C41.44 56 30.88 56 20 56 C20 62.93 20 69.86 20 77 C34.85 77 49.7 77 65 77 C65 83.6 65 90.2 65 97 C43.55 97 22.1 97 0 97 C0 64.99 0 32.98 0 0 Z " fill="#FFFFFF" transform="translate(403,459)"/>
<path d="M0 0 C21.45 0 42.9 0 65 0 C65 6.27 65 12.54 65 19 C50.15 19 35.3 19 20 19 C20 24.28 20 29.56 20 35 C30.56 35 41.12 35 52 35 C52 41.6 52 48.2 52 55 C41.44 55 30.88 55 20 55 C20 61.93 20 68.86 20 76 C34.85 76 49.7 76 65 76 C65 82.6 65 89.2 65 96 C43.55 96 22.1 96 0 96 C0 64.32 0 32.64 0 0 Z " fill="#FFFFFF" transform="translate(177,9)"/>
<path d="M0 0 C1.57296097 1.06808762 3.13970387 2.14576067 4.6875 3.25 C3.25775343 7.12164046 1.46917977 10.54494588 -0.6875 14.0625 C-1.27273438 15.03832031 -1.85796875 16.01414062 -2.4609375 17.01953125 C-3.07195312 17.75558594 -3.68296875 18.49164063 -4.3125 19.25 C-8.42233682 19.25 -9.64944407 18.76876748 -13.125 16.875 C-20.31526096 13.15880363 -27.2480893 10.83497084 -35.3046875 12.71484375 C-38.75412556 13.92429403 -40.15219548 14.94862751 -41.875 18.1875 C-42.48027777 21.11759138 -42.48027777 21.11759138 -41.8125 23.4375 C-37.51229278 28.63358372 -29.85149816 29.47502538 -23.625 31 C-5.09956952 35.79849005 -5.09956952 35.79849005 0.26953125 43.52734375 C3.35783306 49.45722353 5.24998967 54.38747701 5.1875 61.125 C5.18322998 61.82608887 5.17895996 62.52717773 5.17456055 63.24951172 C4.97431362 69.36447252 3.44931965 73.51289378 -0.3125 78.25 C-1.05886719 79.2503125 -1.80523437 80.250625 -2.57421875 81.28125 C-7.41800472 87.00253993 -15.37650911 89.57130125 -22.65625 90.57226562 C-35.81185922 91.62941279 -48.50539629 89.77926345 -59.43359375 81.91015625 C-62.34397068 79.33861738 -64.269907 76.54450484 -66.3125 73.25 C-64.70239473 69.17623969 -61.77427729 66.48492931 -58.6875 63.5 C-58.171875 62.99339844 -57.65625 62.48679687 -57.125 61.96484375 C-55.85866661 60.72196098 -54.5861856 59.48534724 -53.3125 58.25 C-48.53125 61.9921875 -48.53125 61.9921875 -46.5625 64.3125 C-40.76217892 69.30722093 -33.44919306 69.73531105 -26.0625 69.546875 C-22.6108398 69.17425259 -20.15241147 68.24561347 -17.3125 66.25 C-15.89208179 63.40916359 -15.99797728 61.39522722 -16.3125 58.25 C-19.20552393 54.60007529 -21.80300726 53.5113566 -26.2578125 52.390625 C-27.41796875 52.07867187 -28.578125 51.76671875 -29.7734375 51.4453125 C-32.19040809 50.82174439 -34.60966393 50.20695902 -37.03125 49.6015625 C-46.64536003 46.99110878 -53.40814256 42.93522893 -59.8125 35.25 C-64.11619236 26.64261527 -64.40896175 17.84469521 -61.5078125 8.71875 C-59.71605057 5.01811752 -57.09333627 2.5596119 -54.0546875 -0.15625 C-52.21351641 -1.64956176 -52.21351641 -1.64956176 -51.3125 -3.75 C-36.32233165 -12.83696046 -13.94940019 -8.71616514 0 0 Z " fill="#FFFFFF" transform="translate(467.3125,15.75)"/>
<path d="M0 0 C5.28 0 10.56 0 16 0 C19.73958673 8.7735648 23.11072325 17.62626455 26.30859375 26.609375 C26.80243428 27.98889916 27.29658687 29.36831165 27.79103088 30.74761963 C29.0818429 34.35057843 30.36918023 37.95476774 31.65551758 41.55932617 C33.70852211 47.3106873 35.76652284 53.06026078 37.825243 58.80957794 C38.53199346 60.78502423 39.23701371 62.76108065 39.9417572 64.73724365 C42.74303971 72.57284893 42.74303971 72.57284893 45.67337036 80.36047363 C45.95115609 81.08444462 46.22894182 81.8084156 46.5151453 82.5543251 C47.05209182 83.94850709 47.59460926 85.34056049 48.14353848 86.73006821 C49.4369396 90.09276315 50 92.333872 50 96 C43.07 96 36.14 96 29 96 C24.545 83.625 24.545 83.625 20 71 C12.08 70.67 4.16 70.34 -4 70 C-4.99 73.63 -5.98 77.26 -7 81 C-7.84128261 83.55302527 -8.71132486 86.0969786 -9.625 88.625 C-10.05039062 89.81351562 -10.47578125 91.00203125 -10.9140625 92.2265625 C-12 95 -12 95 -13 96 C-14.56172745 96.08685603 -16.12729344 96.10702219 -17.69140625 96.09765625 C-18.63564453 96.09443359 -19.57988281 96.09121094 -20.55273438 96.08789062 C-21.54595703 96.07951172 -22.53917969 96.07113281 -23.5625 96.0625 C-24.55958984 96.05798828 -25.55667969 96.05347656 -26.58398438 96.04882812 C-29.05605138 96.03700005 -31.52798665 96.01967958 -34 96 C-31.67426405 87.80253839 -28.85347015 79.80705454 -25.95703125 71.796875 C-25.46459745 70.42905492 -24.97238942 69.06115354 -24.48039246 67.69317627 C-23.18875169 64.1038416 -21.89389963 60.51567365 -20.59838867 56.92773438 C-19.30764151 53.35101343 -18.020241 49.77308848 -16.73242188 46.1953125 C-11.18401706 30.78630422 -5.60950215 15.38688388 0 0 Z M8 36 C7.35089846 37.58199631 6.70585306 39.16565724 6.0625 40.75 C5.70285156 41.63171875 5.34320313 42.5134375 4.97265625 43.421875 C3.86881743 46.19741081 3.86881743 46.19741081 3 50 C6.3 50 9.6 50 13 50 C11.51868325 42.84207314 11.51868325 42.84207314 9 36 C8.67 36 8.34 36 8 36 Z " fill="#FFFFFF" transform="translate(46,9)"/>
<path d="M0 0 C3.58045131 2.55158599 6.17986694 5.23982258 8.8125 8.75 C9.71935547 9.94882812 9.71935547 9.94882812 10.64453125 11.171875 C11.09183594 11.77515625 11.53914063 12.3784375 12 13 C7.88380164 17.91935902 3.59589638 22.52647956 -1 27 C-4.3722605 25.58203426 -6.07673159 23.92791202 -8.3125 21.0625 C-12.04756282 16.69303161 -15.37235754 14.57727403 -21.16015625 13.65625 C-27.30914672 13.23436386 -31.30032508 15.13344927 -36 19 C-41.68562688 24.68562688 -43.37411081 31.58122438 -43.41015625 39.37304688 C-43.39855469 40.21931641 -43.38695313 41.06558594 -43.375 41.9375 C-43.38660156 42.77990234 -43.39820312 43.62230469 -43.41015625 44.49023438 C-43.37082271 53.00594515 -41.52635963 60.28028624 -35.59765625 66.55859375 C-31.55035665 70.21006943 -27.61275216 71.60713154 -22.13671875 71.3359375 C-13.27496936 69.94268257 -8.36630148 64.84313104 -3 58 C1.07376031 59.61010527 3.76507069 62.53822271 6.75 65.625 C7.25660156 66.140625 7.76320313 66.65625 8.28515625 67.1875 C9.52803902 68.45383339 10.76465276 69.7263144 12 71 C5.17572068 81.27174134 -1.59156893 88.3510091 -14 91 C-28.34586858 92.80502599 -38.73663039 90.84294078 -50.421875 82.2109375 C-59.00763745 74.62577142 -63.35082953 62.56483687 -64.203125 51.32006836 C-64.30330934 48.43901708 -64.32918792 45.57021954 -64.3125 42.6875 C-64.30686035 41.67075195 -64.3012207 40.65400391 -64.29541016 39.60644531 C-64.06799301 25.55161542 -60.56031407 13.8140201 -51 3.1875 C-35.52978507 -11.17216528 -17.07295692 -9.57798724 0 0 Z " fill="#FFFFFF" transform="translate(79,465)"/>
<path d="M0 0 C22.44 0 44.88 0 68 0 C68 6.6 68 13.2 68 20 C52.16 20 36.32 20 20 20 C20 24.95 20 29.9 20 35 C31.88 35 43.76 35 56 35 C56 41.6 56 48.2 56 55 C44.12 55 32.24 55 20 55 C20 68.53 20 82.06 20 96 C13.4 96 6.8 96 0 96 C0 64.32 0 32.64 0 0 Z " fill="#FFFFFF" transform="translate(250,234)"/>
<path d="M0 0 C25.08 0 50.16 0 76 0 C76 6.27 76 12.54 76 19 C66.76 19 57.52 19 48 19 C48 44.41 48 69.82 48 96 C41.4 96 34.8 96 28 96 C28 70.59 28 45.18 28 19 C18.76 19 9.52 19 0 19 C0 12.73 0 6.46 0 0 Z " fill="#FFFFFF" transform="translate(322,9)"/>
</svg>
