<?xml version="1.0" encoding="utf-8"?>
<!-- Generator: Adobe Illustrator 22.0.1, SVG Export Plug-In . SVG Version: 6.00 Build 0)  -->
<svg version="1.1" id="Layer_1" xmlns="http://www.w3.org/2000/svg" xmlns:xlink="http://www.w3.org/1999/xlink" x="0px" y="0px"
	 viewBox="0 0 484 792" style="enable-background:new 0 0 484 792;" xml:space="preserve">
<style type="text/css">
	.st0{fill:#FFFFFF;}
</style>
<g>
	<path class="st0" d="M40.8,78.3h24.9l9.2,26H95L60.4,9.2H46.2l-34.6,95.2h20.1L40.8,78.3z M47.3,59.7l6-17.5l6,17.5H47.3z"/>
	<polygon class="st0" points="100.4,89.5 109.6,98.9 124.2,105.3 139,105.3 151.4,100 160.8,91.6 166.9,81.4 168.3,73.1 168.3,51.8 
		128.3,51.8 128.3,70.5 149.5,70.5 149.5,71.8 148.9,74.9 145.7,80.1 141,84.2 135.5,86.6 127.8,86.6 120.7,83.2 115.9,78.4 
		112.4,71.5 110.8,64.3 110.8,49 112.4,42 115.9,34.9 120.7,30.2 127.7,26.9 135.4,26.9 143.4,29.8 146.4,32.1 153,40 167.1,27.8 
		159.3,18.4 152.6,13.3 138.7,8.2 124.2,8.2 109.9,14.5 100.4,23.8 94.4,35.7 92,47.5 92,66.2 94.4,77.6 	"/>
	<polygon class="st0" points="240.9,85.6 195.5,85.6 195.5,63.4 227.3,63.4 227.3,44.7 195.5,44.7 195.5,27.9 240.9,27.9 240.9,9.2 
		176.7,9.2 176.7,104.3 240.9,104.3 	"/>
	<polygon class="st0" points="266.4,47.9 299.3,104.3 318.3,104.3 318.3,9.2 299.4,9.2 299.4,68.5 265,9.2 247.5,9.2 247.5,104.3 
		266.4,104.3 	"/>
	<polygon class="st0" points="349.8,104.3 368.6,104.3 368.6,27.9 396.9,27.9 396.9,9.2 321.9,9.2 321.9,27.9 349.8,27.9 	"/>
	<polygon class="st0" points="428.7,105.3 444.5,105.3 459.6,99.8 466.5,91.8 470.3,83.8 470.3,70.2 465.6,58.9 454.5,51.2 
		429,44.2 424.1,40.8 423.4,39.4 422.7,35.9 423.9,31.7 426.8,28.7 432.4,26.9 440.8,26.9 450.6,29.6 460.6,35.5 470.8,19.7 
		458.5,12.2 443.2,8.2 429.2,8.2 416.4,12.5 407.1,22.2 403.2,34.5 405.2,46.2 410.2,54.3 420.6,61.6 445.6,68.5 449.7,70.8 
		451.5,74.3 451.5,79.5 450.4,81.6 448.6,83.8 441.3,86.6 432.3,86.6 422.5,83.7 418.8,81.1 413.8,74.9 400.2,88 405.9,95.1 
		414.3,100.9 	"/>
	<path class="st0" d="M167.4,291.7l2.6,11.8l6.2,12.2l9.4,9.6l14,5.3H212l14-5.3l9.4-9.6l6.2-12.2l2.6-11.8v-20.1l-2.7-11.9l-6.2-12
		l-9.8-9.2l-13.7-5h-12l-13.7,5l-9.8,9.2l-6.2,12l-2.7,11.9v20.1H167.4z M208.6,252.2l6.8,2.4l4.5,4.1l3.9,7.7l1.6,7.2v16.2
		l-1.7,8.1l-3.6,7.2l-4.3,4.3l-7.2,2.7h-5.5l-7.2-2.7l-4.3-4.3l-3.6-7.2l-1.7-8.1v-16.2l1.6-7.2l3.9-7.7l4.5-4.1l6.8-2.4H208.6z"/>
	<polygon class="st0" points="319.3,234.4 252.7,234.4 252.7,329.6 271.6,329.6 271.6,288.6 307.4,288.6 307.4,269.9 271.6,269.9 
		271.6,253.2 319.3,253.2 	"/>
	<polygon class="st0" points="66.9,532.2 65.1,534.2 57.8,537 48.8,537 39.1,534.2 35.3,531.6 30.3,525.4 16.7,538.6 22.4,545.5 
		30.8,551.4 45.2,555.8 61,555.8 76.1,550.3 83,542.3 86.8,534.2 86.8,520.6 82.1,509.3 71,501.7 45.5,494.7 40.6,491.2 39.9,489.9 
		39.2,486.4 40.4,482.1 43.3,479.2 48.9,477.5 57.3,477.5 67.1,480 77.1,486 87.3,470.2 75,462.7 59.7,458.8 45.7,458.8 32.9,462.9 
		23.6,472.6 19.7,484.9 21.7,496.8 26.7,504.7 37.1,512.1 62.1,518.9 66.2,521.2 68,524.8 68,530 	"/>
	<path class="st0" d="M108.7,550.4l14,5.3h12.5l14-5.3l9.4-9.6l6.2-12.2l2.6-11.8v-20.1l-2.7-11.9l-6.2-12l-9.8-9.2l-13.7-5h-12
		l-13.7,5l-9.8,9.2l-6.2,12l-2.7,11.9v20.1l2.6,11.8l6.2,12.2L108.7,550.4z M131.8,477.5l6.8,2.4l4.5,4.1l3.9,7.7l1.6,7.2V515
		l-1.7,8.1l-3.6,7.2l-4.3,4.3l-7.2,2.7h-5.5l-7.2-2.7l-4.3-4.3l-3.6-7.2l-1.7-8.1v-16.2l1.6-7.2l3.9-7.7l4.5-4.1l6.8-2.4
		L131.8,477.5L131.8,477.5z"/>
	<polygon class="st0" points="191,492.4 194.5,485.4 199.2,480.6 206.3,477.5 214.1,477.5 221.8,480.8 224.7,483.2 231.8,491 
		245.3,478.2 237.5,469.1 231.2,464.2 217.2,458.8 202.7,458.8 188.4,465 178.9,474.2 173,486.2 170.4,497.9 170.4,516.6 173,528 
		178.9,540.1 188.2,549.4 202.7,555.8 217.2,555.8 231.2,550.3 237.5,545.4 245.3,536.3 231.8,523.4 224.9,531.3 222,533.8 
		214.1,537 206.3,537 199.2,533.8 194.5,528.9 191,522 189.3,514.8 189.3,499.5 	"/>
	<polygon class="st0" points="252.7,536.1 252.7,554.8 311.4,554.8 311.4,536.1 291.5,536.1 291.5,478.5 310.8,478.5 310.8,459.7 
		253.3,459.7 253.3,478.5 272.6,478.5 272.6,536.1 	"/>
	<path class="st0" d="M351.6,459.7L317,554.9H337l9.2-26h24.9l9.2,26h20.1l-34.8-95.2H351.6z M352.6,510.2l6-17.5l6,17.5H352.6z"/>
	<polygon class="st0" points="425,536.1 425,459.7 406.2,459.7 406.2,554.8 472.1,554.8 472.1,536.1 	"/>
	<polygon class="st0" points="38,717.6 41.5,710.7 46.4,705.8 53.3,702.6 61.1,702.6 68.9,705.9 71.9,708.4 78.9,716.3 92.3,703.5 
		84.7,694.4 78.3,689.5 64.4,683.9 49.8,683.9 35.4,690.2 26,699.5 20,711.4 17.6,723.1 17.6,741.9 20.1,753.3 26,765.2 35.2,774.6 
		49.8,781 64.4,781 78.3,775.6 84.7,770.6 92.3,761.5 78.8,748.7 72,756.6 69,759 61.1,762.3 53.4,762.3 46.3,758.9 41.5,754.2 
		38,747.2 36.4,740.1 36.4,724.8 	"/>
	<polygon class="st0" points="143.8,720.4 114.6,720.4 114.6,684.9 95.7,684.9 95.7,780.1 114.6,780.1 114.6,739.1 143.8,739.1 
		143.8,780.1 162.7,780.1 162.7,684.9 143.8,684.9 	"/>
	<path class="st0" d="M298.8,744.2l-34.4-59.3h-17.5v93.6l-34.1-93.6h-14.1L164,780.1h20.1l9.2-26h24.9l9.2,26h19.4h0.6h18.4v-56.5
		l32.9,56.5h19v-95.2h-18.8v59.3H298.8z M199.7,735.5l6-17.5l6,17.5H199.7z"/>
	<polygon class="st0" points="357.4,746.3 378.5,746.3 378.5,747.5 377.9,750.6 374.6,755.7 369.9,759.9 364.4,762.3 356.8,762.3 
		349.6,758.9 345,754.2 341.3,747.2 339.7,740.1 339.7,724.8 341.3,717.6 344.9,710.7 349.7,705.8 356.8,702.6 364.4,702.6 
		372.4,705.4 375.5,707.7 382,715.8 396,703.5 388.2,694.1 381.6,689 367.6,683.9 353.1,683.9 338.9,690.2 329.3,699.5 323.5,711.4 
		320.9,723.1 320.9,741.9 323.5,753.3 329.3,765.2 338.5,774.6 353.1,781 367.9,781 380.5,775.7 389.7,767.3 395.8,757.1 
		397.4,748.7 397.4,727.6 357.4,727.6 	"/>
	<polygon class="st0" points="405.7,780.1 469.9,780.1 469.9,761.3 424.6,761.3 424.6,739.1 456.3,739.1 456.3,720.4 424.6,720.4 
		424.6,703.6 469.9,703.6 469.9,684.9 405.7,684.9 	"/>
</g>
</svg>
