<?xml version="1.0" encoding="UTF-8"?>
<svg version="1.1" xmlns="http://www.w3.org/2000/svg" width="512" height="5817">
<path d="M0 0 C72.93 0 145.86 0 221 0 C221 13.2 221 26.4 221 40 C205.96792186 40.06828942 190.9359159 40.12330952 175.90372086 40.15543652 C168.92061983 40.17076442 161.93762352 40.19157628 154.95458984 40.22631836 C148.19179066 40.25994806 141.4290993 40.27694736 134.66622162 40.28463173 C132.11038268 40.2900945 129.55454835 40.30075612 126.99875641 40.31719017 C111.08862515 40.41524817 95.59412456 39.58563804 79.79730225 37.64595032 C75.48351222 37.12485355 71.34076575 36.8516694 67 37 C67.91249512 37.24943359 68.82499023 37.49886719 69.76513672 37.75585938 C91.09793163 43.65201928 110.81176055 51.05304239 130.62768555 60.88166809 C138.6590713 64.85357743 146.82792724 68.51640528 155 72.1875 C163.415118 75.9711386 171.78026894 79.80319501 180 84 C180 88.62 180 93.24 180 98 C170.50158219 103.18985715 160.90226344 108.0114563 151.12036133 112.64306641 C143.90747296 116.06603256 136.75722414 119.5998507 129.625 123.1875 C127.59519687 124.19950919 125.56525269 125.21123556 123.53515625 126.22265625 C120.29300157 127.84017319 117.07064961 129.48360513 113.87109375 131.18359375 C104.20788844 136.18452108 94.06903556 139.35396216 83.6875 142.5 C82.94323761 142.72608948 82.19897522 142.95217896 81.43215942 143.18511963 C68.78391256 147 68.78391256 147 64 147 C64 147.66 64 148.32 64 149 C64.67877197 148.88930176 65.35754395 148.77860352 66.05688477 148.66455078 C69.2250697 148.14916767 72.39377953 147.63707976 75.5625 147.125 C76.62919922 146.95097656 77.69589844 146.77695312 78.79492188 146.59765625 C80.97774487 146.24579822 83.16198572 145.90262717 85.34753418 145.56811523 C87.57090442 145.22228571 89.79178256 144.85909009 92.00708008 144.46484375 C104.95997881 142.38471633 117.97475704 142.74915838 131.05859375 142.8046875 C133.66032298 142.80842419 136.26205364 142.81126806 138.86378479 142.81326294 C144.97257822 142.82007578 151.08128731 142.83578049 157.19004923 142.85596192 C164.15518768 142.87846375 171.12032997 142.88934993 178.08549583 142.89935279 C192.39037605 142.92015183 206.69517038 142.95676993 221 143 C221 155.54 221 168.08 221 181 C148.07 181 75.14 181 0 181 C0 168.13 0 155.26 0 142 C44.04379105 120.47357077 44.04379105 120.47357077 55.86376953 114.89038086 C60.32203716 112.78068714 64.7533378 110.63050426 69.15345764 108.40153503 C84.70674096 100.52727536 99.98119711 94.13602866 117 90 C118.33347377 89.66722894 119.66682807 89.33397828 121 89 C116.17695106 87.09136807 111.47285041 85.54926075 106.42860413 84.35673523 C95.80616087 81.83164131 86.36611797 77.91538499 76.5625 73.1875 C74.15878538 72.05123987 71.75228665 70.92102764 69.34555054 69.79118347 C67.69956499 69.01820543 66.05440274 68.24347183 64.4100647 67.46699524 C56.43010665 63.70556387 48.37273245 60.12822914 40.29867554 56.57437134 C26.74962838 50.61011399 13.3226448 44.45946414 0 38 C0 25.46 0 12.92 0 0 Z " fill="#000000" transform="translate(145,4225)"/>
<path d="M0 0 C72.93 0 145.86 0 221 0 C221 13.2 221 26.4 221 40 C205.96792186 40.06828942 190.9359159 40.12330952 175.90372086 40.15543652 C168.92061983 40.17076442 161.93762352 40.19157628 154.95458984 40.22631836 C148.19179066 40.25994806 141.4290993 40.27694736 134.66622162 40.28463173 C132.11038268 40.2900945 129.55454835 40.30075612 126.99875641 40.31719017 C111.08862515 40.41524817 95.59412456 39.58563804 79.79730225 37.64595032 C75.48351222 37.12485355 71.34076575 36.8516694 67 37 C67.91249512 37.24943359 68.82499023 37.49886719 69.76513672 37.75585938 C91.09793163 43.65201928 110.81176055 51.05304239 130.62768555 60.88166809 C138.6590713 64.85357743 146.82792724 68.51640528 155 72.1875 C163.415118 75.9711386 171.78026894 79.80319501 180 84 C180 88.62 180 93.24 180 98 C170.50158219 103.18985715 160.90226344 108.0114563 151.12036133 112.64306641 C143.90747296 116.06603256 136.75722414 119.5998507 129.625 123.1875 C127.59519687 124.19950919 125.56525269 125.21123556 123.53515625 126.22265625 C120.29300157 127.84017319 117.07064961 129.48360513 113.87109375 131.18359375 C104.20788844 136.18452108 94.06903556 139.35396216 83.6875 142.5 C82.94323761 142.72608948 82.19897522 142.95217896 81.43215942 143.18511963 C68.78391256 147 68.78391256 147 64 147 C64 147.66 64 148.32 64 149 C64.67877197 148.88930176 65.35754395 148.77860352 66.05688477 148.66455078 C69.2250697 148.14916767 72.39377953 147.63707976 75.5625 147.125 C76.62919922 146.95097656 77.69589844 146.77695313 78.79492188 146.59765625 C80.97774487 146.24579822 83.16198572 145.90262717 85.34753418 145.56811523 C87.57090442 145.22228571 89.79178256 144.85909009 92.00708008 144.46484375 C104.95997881 142.38471633 117.97475704 142.74915838 131.05859375 142.8046875 C133.66032298 142.80842419 136.26205364 142.81126806 138.86378479 142.81326294 C144.97257822 142.82007578 151.08128731 142.83578049 157.19004923 142.85596192 C164.15518768 142.87846375 171.12032997 142.88934993 178.08549583 142.89935279 C192.39037605 142.92015183 206.69517038 142.95676993 221 143 C221 155.54 221 168.08 221 181 C148.07 181 75.14 181 0 181 C0 168.13 0 155.26 0 142 C44.04379105 120.47357077 44.04379105 120.47357077 55.86376953 114.89038086 C60.32203716 112.78068714 64.7533378 110.63050426 69.15345764 108.40153503 C84.70674096 100.52727536 99.98119711 94.13602866 117 90 C118.33347377 89.66722894 119.66682807 89.33397828 121 89 C116.17695106 87.09136807 111.47285041 85.54926075 106.42860413 84.35673523 C95.80616087 81.83164131 86.36611797 77.91538499 76.5625 73.1875 C74.15878538 72.05123987 71.75228665 70.92102764 69.34555054 69.79118347 C67.69956499 69.01820543 66.05440274 68.24347183 64.4100647 67.46699524 C56.43010665 63.70556387 48.37273245 60.12822914 40.29867554 56.57437134 C26.74962838 50.61011399 13.3226448 44.45946414 0 38 C0 25.46 0 12.92 0 0 Z " fill="#000000" transform="translate(145,2340)"/>
<path d="M0 0 C72.93 0 145.86 0 221 0 C221 13.2 221 26.4 221 40 C205.96792186 40.06828942 190.9359159 40.12330952 175.90372086 40.15543652 C168.92061983 40.17076442 161.93762352 40.19157628 154.95458984 40.22631836 C148.19179066 40.25994806 141.4290993 40.27694736 134.66622162 40.28463173 C132.11038268 40.2900945 129.55454835 40.30075612 126.99875641 40.31719017 C111.08862515 40.41524817 95.59412456 39.58563804 79.79730225 37.64595032 C75.48351222 37.12485355 71.34076575 36.8516694 67 37 C67.91249512 37.24943359 68.82499023 37.49886719 69.76513672 37.75585938 C91.09793163 43.65201928 110.81176055 51.05304239 130.62768555 60.88166809 C138.6590713 64.85357743 146.82792724 68.51640528 155 72.1875 C163.415118 75.9711386 171.78026894 79.80319501 180 84 C180 88.62 180 93.24 180 98 C170.50158219 103.18985715 160.90226344 108.0114563 151.12036133 112.64306641 C143.90747296 116.06603256 136.75722414 119.5998507 129.625 123.1875 C127.59519687 124.19950919 125.56525269 125.21123556 123.53515625 126.22265625 C120.29300157 127.84017319 117.07064961 129.48360513 113.87109375 131.18359375 C104.20788844 136.18452108 94.06903556 139.35396216 83.6875 142.5 C82.94323761 142.72608948 82.19897522 142.95217896 81.43215942 143.18511963 C68.78391256 147 68.78391256 147 64 147 C64 147.66 64 148.32 64 149 C64.67877197 148.88930176 65.35754395 148.77860352 66.05688477 148.66455078 C69.2250697 148.14916767 72.39377953 147.63707976 75.5625 147.125 C76.62919922 146.95097656 77.69589844 146.77695312 78.79492188 146.59765625 C80.97774487 146.24579822 83.16198572 145.90262717 85.34753418 145.56811523 C87.57090442 145.22228571 89.79178256 144.85909009 92.00708008 144.46484375 C104.95997881 142.38471633 117.97475704 142.74915838 131.05859375 142.8046875 C133.66032298 142.80842419 136.26205364 142.81126806 138.86378479 142.81326294 C144.97257822 142.82007578 151.08128731 142.83578049 157.19004923 142.85596192 C164.15518768 142.87846375 171.12032997 142.88934993 178.08549583 142.89935279 C192.39037605 142.92015183 206.69517038 142.95676993 221 143 C221 155.54 221 168.08 221 181 C148.07 181 75.14 181 0 181 C0 168.13 0 155.26 0 142 C44.04379105 120.47357077 44.04379105 120.47357077 55.86376953 114.89038086 C60.32203716 112.78068714 64.7533378 110.63050426 69.15345764 108.40153503 C84.70674096 100.52727536 99.98119711 94.13602866 117 90 C118.33347377 89.66722894 119.66682807 89.33397828 121 89 C116.17695106 87.09136807 111.47285041 85.54926075 106.42860413 84.35673523 C95.80616087 81.83164131 86.36611797 77.91538499 76.5625 73.1875 C74.15878538 72.05123987 71.75228665 70.92102764 69.34555054 69.79118347 C67.69956499 69.01820543 66.05440274 68.24347183 64.4100647 67.46699524 C56.43010665 63.70556387 48.37273245 60.12822914 40.29867554 56.57437134 C26.74962838 50.61011399 13.3226448 44.45946414 0 38 C0 25.46 0 12.92 0 0 Z " fill="#000000" transform="translate(145,455)"/>
<path d="M0 0 C73.59 0 147.18 0 223 0 C223 10.23 223 20.46 223 31 C211.48020934 39.93656488 211.48020934 39.93656488 206.04296875 42.03125 C198.85349318 44.98815533 192.24047267 48.64516568 185.5 52.5 C183.22276532 53.76166501 180.94412221 55.02079128 178.6640625 56.27734375 C171.35988383 60.33533824 164.15113551 64.54804955 156.94873047 68.78320312 C148.54771399 73.71165028 140.0640853 78.48370155 131.54638672 83.20727539 C130.57459473 83.74731201 129.60280273 84.28734863 128.6015625 84.84375 C127.64588379 85.37274902 126.69020508 85.90174805 125.70556641 86.44677734 C124.0245291 87.41183413 122.36477821 88.41637888 120.74365234 89.47900391 C112.29880968 94.99801643 102.81750759 98.00355065 93.375 101.375 C91.58949728 102.02117885 89.80433773 102.66830677 88.01953125 103.31640625 C83.68356661 104.88857441 79.34315977 106.44782514 75 108 C77.85447771 107.71117233 80.70854859 107.41895041 83.5625 107.125 C84.34302734 107.04636719 85.12355469 106.96773437 85.92773438 106.88671875 C89.66561677 106.49952774 93.37761901 106.10277998 97.08668518 105.49026489 C109.68215882 103.48408608 122.24287351 103.7482035 134.96484375 103.8046875 C137.4544717 103.80842461 139.94410113 103.81126828 142.43373108 103.81326294 C148.93883431 103.82084447 155.4438461 103.84044504 161.94891357 103.8626709 C168.60590544 103.8832483 175.26290652 103.89228993 181.91992188 103.90234375 C194.94666091 103.9236968 207.97330849 103.95883341 221 104 C221 116.54 221 129.08 221 142 C147.74 142 74.48 142 -1 142 C-1 131.77 -1 121.54 -1 111 C7.21711022 105.94331679 15.38028766 101.02725508 23.8125 96.375 C32.26599515 91.678049 40.66180248 86.89866522 49 82 C58.15493599 76.62428043 67.37308307 71.3771634 76.67089844 66.25219727 C81.73849389 63.44605351 86.72592094 60.58196039 91.609375 57.46484375 C108.99857332 46.50432435 127.53378566 40.26915484 147 34 C144.14552229 34.28882767 141.29145141 34.58104959 138.4375 34.875 C137.65697266 34.95363281 136.87644531 35.03226563 136.07226562 35.11328125 C132.33683238 35.50021856 128.62741243 35.89613034 124.92100525 36.50973511 C112.25360425 38.53088179 99.61118279 38.25160045 86.81640625 38.1953125 C84.30435805 38.19157548 81.79230837 38.18873177 79.28025818 38.18673706 C73.38396254 38.17992642 67.48774503 38.16422473 61.59148115 38.14403808 C54.20618333 38.11931309 46.82087561 38.1087102 39.43554688 38.09765625 C26.29031868 38.07630198 13.1451811 38.04116478 0 38 C0 25.46 0 12.92 0 0 Z " fill="#000000" transform="translate(145,3897)"/>
<path d="M0 0 C73.59 0 147.18 0 223 0 C223 10.23 223 20.46 223 31 C211.48020934 39.93656488 211.48020934 39.93656488 206.04296875 42.03125 C198.85349318 44.98815533 192.24047267 48.64516568 185.5 52.5 C183.22276532 53.76166501 180.94412221 55.02079128 178.6640625 56.27734375 C171.35988383 60.33533824 164.15113551 64.54804955 156.94873047 68.78320312 C148.54771399 73.71165028 140.0640853 78.48370155 131.54638672 83.20727539 C130.57459473 83.74731201 129.60280273 84.28734863 128.6015625 84.84375 C127.64588379 85.37274902 126.69020508 85.90174805 125.70556641 86.44677734 C124.0245291 87.41183413 122.36477821 88.41637888 120.74365234 89.47900391 C112.29880968 94.99801643 102.81750759 98.00355065 93.375 101.375 C91.58949728 102.02117885 89.80433773 102.66830677 88.01953125 103.31640625 C83.68356661 104.88857441 79.34315977 106.44782514 75 108 C77.85447771 107.71117233 80.70854859 107.41895041 83.5625 107.125 C84.34302734 107.04636719 85.12355469 106.96773437 85.92773438 106.88671875 C89.66561677 106.49952774 93.37761901 106.10277998 97.08668518 105.49026489 C109.68215882 103.48408608 122.24287351 103.7482035 134.96484375 103.8046875 C137.4544717 103.80842461 139.94410113 103.81126828 142.43373108 103.81326294 C148.93883431 103.82084447 155.4438461 103.84044504 161.94891357 103.8626709 C168.60590544 103.8832483 175.26290652 103.89228993 181.91992188 103.90234375 C194.94666091 103.9236968 207.97330849 103.95883341 221 104 C221 116.54 221 129.08 221 142 C147.74 142 74.48 142 -1 142 C-1 131.77 -1 121.54 -1 111 C7.21711022 105.94331679 15.38028766 101.02725508 23.8125 96.375 C32.26599515 91.678049 40.66180248 86.89866522 49 82 C58.15493599 76.62428043 67.37308307 71.3771634 76.67089844 66.25219727 C81.73849389 63.44605351 86.72592094 60.58196039 91.609375 57.46484375 C108.99857332 46.50432435 127.53378566 40.26915484 147 34 C144.14552229 34.28882767 141.29145141 34.58104959 138.4375 34.875 C137.65697266 34.95363281 136.87644531 35.03226563 136.07226562 35.11328125 C132.33683238 35.50021856 128.62741243 35.89613034 124.92100525 36.50973511 C112.25360425 38.53088179 99.61118279 38.25160045 86.81640625 38.1953125 C84.30435805 38.19157548 81.79230837 38.18873177 79.28025818 38.18673706 C73.38396254 38.17992642 67.48774503 38.16422473 61.59148115 38.14403808 C54.20618333 38.11931309 46.82087561 38.1087102 39.43554688 38.09765625 C26.29031868 38.07630198 13.1451811 38.04116478 0 38 C0 25.46 0 12.92 0 0 Z " fill="#000000" transform="translate(145,2012)"/>
<path d="M0 0 C73.59 0 147.18 0 223 0 C223 10.23 223 20.46 223 31 C211.48020934 39.93656488 211.48020934 39.93656488 206.04296875 42.03125 C198.85349318 44.98815533 192.24047267 48.64516568 185.5 52.5 C183.22276532 53.76166501 180.94412221 55.02079128 178.6640625 56.27734375 C171.35988383 60.33533824 164.15113551 64.54804955 156.94873047 68.78320312 C148.54771399 73.71165028 140.0640853 78.48370155 131.54638672 83.20727539 C130.57459473 83.74731201 129.60280273 84.28734863 128.6015625 84.84375 C127.64588379 85.37274902 126.69020508 85.90174805 125.70556641 86.44677734 C124.0245291 87.41183413 122.36477821 88.41637888 120.74365234 89.47900391 C112.29880968 94.99801643 102.81750759 98.00355065 93.375 101.375 C91.58949728 102.02117885 89.80433773 102.66830677 88.01953125 103.31640625 C83.68356661 104.88857441 79.34315977 106.44782514 75 108 C77.85447771 107.71117233 80.70854859 107.41895041 83.5625 107.125 C84.34302734 107.04636719 85.12355469 106.96773438 85.92773438 106.88671875 C89.66561677 106.49952774 93.37761901 106.10277998 97.08668518 105.49026489 C109.68215882 103.48408608 122.24287351 103.7482035 134.96484375 103.8046875 C137.4544717 103.80842461 139.94410113 103.81126828 142.43373108 103.81326294 C148.93883431 103.82084447 155.4438461 103.84044504 161.94891357 103.8626709 C168.60590544 103.8832483 175.26290652 103.89228993 181.91992188 103.90234375 C194.94666091 103.9236968 207.97330849 103.95883341 221 104 C221 116.54 221 129.08 221 142 C147.74 142 74.48 142 -1 142 C-1 131.77 -1 121.54 -1 111 C7.21711022 105.94331679 15.38028766 101.02725508 23.8125 96.375 C32.26599515 91.678049 40.66180248 86.89866522 49 82 C58.15493599 76.62428043 67.37308307 71.3771634 76.67089844 66.25219727 C81.73849389 63.44605351 86.72592094 60.58196039 91.609375 57.46484375 C108.99857332 46.50432435 127.53378566 40.26915484 147 34 C144.14552229 34.28882767 141.29145141 34.58104959 138.4375 34.875 C137.65697266 34.95363281 136.87644531 35.03226563 136.07226562 35.11328125 C132.33683238 35.50021856 128.62741243 35.89613034 124.92100525 36.50973511 C112.25360425 38.53088179 99.61118279 38.25160045 86.81640625 38.1953125 C84.30435805 38.19157548 81.79230837 38.18873177 79.28025818 38.18673706 C73.38396254 38.17992642 67.48774503 38.16422473 61.59148115 38.14403808 C54.20618333 38.11931309 46.82087561 38.1087102 39.43554688 38.09765625 C26.29031868 38.07630198 13.1451811 38.04116478 0 38 C0 25.46 0 12.92 0 0 Z " fill="#000000" transform="translate(145,127)"/>
<path d="M0 0 C17.97622712 -0.48639171 34.37458073 3.66010475 48.40234375 15.28125 C63.59077987 30.21398854 68.97419015 50.09128379 69.265625 70.890625 C69.29419296 74.56272106 69.29035564 78.23408891 69.27734375 81.90625 C69.27685028 82.85702423 69.27635681 83.80779846 69.27584839 84.78738403 C69.25051458 100.71094358 68.8476507 116.62502221 64.96484375 132.15625 C-7.30515625 132.15625 -79.57515625 132.15625 -154.03515625 132.15625 C-156.37145534 115.02339003 -158.23480441 99.10133565 -158.27539062 82.00439453 C-158.28505866 79.55596429 -158.31617404 77.10838964 -158.34765625 74.66015625 C-158.48108439 54.77512015 -156.13198833 34.22366939 -142.0390625 19 C-129.30890728 6.83714225 -114.57591248 5.64733699 -97.83984375 5.9140625 C-84.36389746 6.34683534 -70.9967819 11.06408678 -61.03515625 20.40625 C-57.24195467 24.50319026 -54.66532216 28.96616608 -52.2265625 33.96875 C-51.22822549 36.29787292 -51.22822549 36.29787292 -49.03515625 37.15625 C-48.92300781 36.28742188 -48.81085938 35.41859375 -48.6953125 34.5234375 C-46.61218146 23.89823655 -40.29647352 15.77437423 -31.7578125 9.4765625 C-22.13877428 3.20937714 -11.32316069 0.5829169 0 0 Z M-23.34765625 51.46875 C-31.10703638 63.82628132 -29.03515625 77.84739459 -29.03515625 92.15625 C-8.57515625 92.15625 11.88484375 92.15625 32.96484375 92.15625 C36.88288728 84.32016295 35.97890844 70.9761798 33.71484375 62.78125 C31.05565933 55.07453959 26.32942203 48.88077991 18.98046875 45.1484375 C4.97252603 39.55611928 -12.37018668 40.49128043 -23.34765625 51.46875 Z M-118.03515625 53.71875 C-126.51429197 64.75992673 -124.47523165 79.19557139 -123.03515625 92.15625 C-102.57515625 92.15625 -82.11515625 92.15625 -61.03515625 92.15625 C-60.57640199 73.05395648 -60.57640199 73.05395648 -69.03515625 57.15625 C-69.80859375 56.18171875 -69.80859375 56.18171875 -70.59765625 55.1875 C-76.14093162 48.89801448 -82.68133132 46.58154811 -90.9140625 45.77734375 C-100.95315191 45.32559671 -110.65645972 46.24801152 -118.03515625 53.71875 Z " fill="#000000" transform="translate(300.03515625,5556.84375)"/>
<path d="M0 0 C17.97622712 -0.48639171 34.37458073 3.66010475 48.40234375 15.28125 C63.59077987 30.21398854 68.97419015 50.09128379 69.265625 70.890625 C69.29419296 74.56272106 69.29035564 78.23408891 69.27734375 81.90625 C69.27685028 82.85702423 69.27635681 83.80779846 69.27584839 84.78738403 C69.25051458 100.71094358 68.8476507 116.62502221 64.96484375 132.15625 C-7.30515625 132.15625 -79.57515625 132.15625 -154.03515625 132.15625 C-156.37145534 115.02339003 -158.23480441 99.10133565 -158.27539062 82.00439453 C-158.28505866 79.55596429 -158.31617404 77.10838964 -158.34765625 74.66015625 C-158.48108439 54.77512015 -156.13198833 34.22366939 -142.0390625 19 C-129.30890728 6.83714225 -114.57591248 5.64733699 -97.83984375 5.9140625 C-84.36389746 6.34683534 -70.9967819 11.06408678 -61.03515625 20.40625 C-57.24195467 24.50319026 -54.66532216 28.96616608 -52.2265625 33.96875 C-51.22822549 36.29787292 -51.22822549 36.29787292 -49.03515625 37.15625 C-48.92300781 36.28742187 -48.81085938 35.41859375 -48.6953125 34.5234375 C-46.61218146 23.89823655 -40.29647352 15.77437423 -31.7578125 9.4765625 C-22.13877428 3.20937714 -11.32316069 0.5829169 0 0 Z M-23.34765625 51.46875 C-31.10703638 63.82628132 -29.03515625 77.84739459 -29.03515625 92.15625 C-8.57515625 92.15625 11.88484375 92.15625 32.96484375 92.15625 C36.88288728 84.32016295 35.97890844 70.9761798 33.71484375 62.78125 C31.05565933 55.07453959 26.32942203 48.88077991 18.98046875 45.1484375 C4.97252603 39.55611928 -12.37018668 40.49128043 -23.34765625 51.46875 Z M-118.03515625 53.71875 C-126.51429197 64.75992673 -124.47523165 79.19557139 -123.03515625 92.15625 C-102.57515625 92.15625 -82.11515625 92.15625 -61.03515625 92.15625 C-60.57640199 73.05395648 -60.57640199 73.05395648 -69.03515625 57.15625 C-69.80859375 56.18171875 -69.80859375 56.18171875 -70.59765625 55.1875 C-76.14093162 48.89801448 -82.68133132 46.58154811 -90.9140625 45.77734375 C-100.95315191 45.32559671 -110.65645972 46.24801152 -118.03515625 53.71875 Z " fill="#000000" transform="translate(300.03515625,3671.84375)"/>
<path d="M0 0 C17.97622712 -0.48639171 34.37458073 3.66010475 48.40234375 15.28125 C63.59077987 30.21398854 68.97419015 50.09128379 69.265625 70.890625 C69.29419296 74.56272106 69.29035564 78.23408891 69.27734375 81.90625 C69.27685028 82.85702423 69.27635681 83.80779846 69.27584839 84.78738403 C69.25051458 100.71094358 68.8476507 116.62502221 64.96484375 132.15625 C-7.30515625 132.15625 -79.57515625 132.15625 -154.03515625 132.15625 C-156.37145534 115.02339003 -158.23480441 99.10133565 -158.27539062 82.00439453 C-158.28505866 79.55596429 -158.31617404 77.10838964 -158.34765625 74.66015625 C-158.48108439 54.77512015 -156.13198833 34.22366939 -142.0390625 19 C-129.30890728 6.83714225 -114.57591248 5.64733699 -97.83984375 5.9140625 C-84.36389746 6.34683534 -70.9967819 11.06408678 -61.03515625 20.40625 C-57.24195467 24.50319026 -54.66532216 28.96616608 -52.2265625 33.96875 C-51.22822549 36.29787292 -51.22822549 36.29787292 -49.03515625 37.15625 C-48.92300781 36.28742188 -48.81085938 35.41859375 -48.6953125 34.5234375 C-46.61218146 23.89823655 -40.29647352 15.77437423 -31.7578125 9.4765625 C-22.13877428 3.20937714 -11.32316069 0.5829169 0 0 Z M-23.34765625 51.46875 C-31.10703638 63.82628132 -29.03515625 77.84739459 -29.03515625 92.15625 C-8.57515625 92.15625 11.88484375 92.15625 32.96484375 92.15625 C36.88288728 84.32016295 35.97890844 70.9761798 33.71484375 62.78125 C31.05565933 55.07453959 26.32942203 48.88077991 18.98046875 45.1484375 C4.97252603 39.55611928 -12.37018668 40.49128043 -23.34765625 51.46875 Z M-118.03515625 53.71875 C-126.51429197 64.75992673 -124.47523165 79.19557139 -123.03515625 92.15625 C-102.57515625 92.15625 -82.11515625 92.15625 -61.03515625 92.15625 C-60.57640199 73.05395648 -60.57640199 73.05395648 -69.03515625 57.15625 C-69.80859375 56.18171875 -69.80859375 56.18171875 -70.59765625 55.1875 C-76.14093162 48.89801448 -82.68133132 46.58154811 -90.9140625 45.77734375 C-100.95315191 45.32559671 -110.65645972 46.24801152 -118.03515625 53.71875 Z " fill="#000000" transform="translate(300.03515625,1786.84375)"/>
<path d="M0 0 C0 15.18 0 30.36 0 46 C-13.77919037 52.88959518 -13.77919037 52.88959518 -19.78125 55.5234375 C-20.46643707 55.82706207 -21.15162415 56.13068665 -21.85757446 56.44351196 C-24.07051405 57.42342024 -26.28518964 58.39932842 -28.5 59.375 C-30.86263145 60.41900406 -33.22491073 61.4638024 -35.58718872 62.50860596 C-37.21843621 63.22995855 -38.84984638 63.95094339 -40.48141479 64.67156982 C-46.42492378 67.29798047 -52.35871779 69.94557918 -58.2890625 72.6015625 C-60.76625861 73.70930728 -63.24358375 74.81676297 -65.72094727 75.9241333 C-67.3206056 76.64001574 -68.91972964 77.35709328 -70.51831055 78.07537842 C-72.74249329 79.07444385 -74.96865559 80.06896381 -77.1953125 81.0625 C-77.85818268 81.36169342 -78.52105286 81.66088684 -79.20401001 81.96914673 C-83.77223364 84 -83.77223364 84 -86 84 C-86.13277344 84.81984375 -86.26554688 85.6396875 -86.40234375 86.484375 C-86.57894531 87.56203125 -86.75554687 88.6396875 -86.9375 89.75 C-87.11152344 90.81734375 -87.28554688 91.8846875 -87.46484375 92.984375 C-87.88312803 95.34142219 -88.41940025 97.677601 -89 100 C-44.945 100.495 -44.945 100.495 0 101 C0 114.2 0 127.4 0 141 C-72.27 141 -144.54 141 -219 141 C-225.05123025 110.74384873 -231.17275532 69.00574267 -214.1796875 41 C-205.21422976 28.06161393 -192.58197539 19.5079786 -177 16.43359375 C-154.35199866 13.4881489 -128.83657147 15.61722568 -110.0625 29.6875 C-102.31820151 35.80191145 -97.32745039 43.24253155 -93 52 C-92.33871094 50.86159668 -92.33871094 50.86159668 -91.6640625 49.70019531 C-85.0180216 39.52424093 -76.87437702 35.62711706 -66 30.75 C-64.26778185 29.94447254 -62.53708536 29.13566546 -60.80786133 28.32373047 C-57.27887195 26.67060628 -53.74331185 25.03303696 -50.20166016 23.40722656 C-43.01495628 20.09721988 -35.90716509 16.62717569 -28.7980957 13.15441895 C-26.74555952 12.15331787 -24.69072359 11.15713822 -22.63476562 10.16308594 C-21.99548126 9.85391235 -21.3561969 9.54473877 -20.69754028 9.22619629 C-19.77024612 8.77778381 -19.77024612 8.77778381 -18.82421875 8.3203125 C-13.80460839 5.8911339 -8.81893337 3.40654505 -3.86645508 0.84326172 C-2 0 -2 0 0 0 Z M-182 67 C-188.17338968 75.69731696 -187.72125306 86.49783026 -186.5625 96.6875 C-186.35651035 99.83640532 -186.35651035 99.83640532 -185 101 C-182.91380978 101.09417773 -180.82439523 101.11742878 -178.73608398 101.11352539 C-178.08244873 101.11367142 -177.42881348 101.11381744 -176.75537109 101.1139679 C-174.58557872 101.11326883 -172.41587121 101.10547678 -170.24609375 101.09765625 C-168.74536689 101.09579205 -167.24463943 101.09436816 -165.74391174 101.09336853 C-161.78681774 101.08954352 -157.82976022 101.0797134 -153.87268066 101.06866455 C-149.83765151 101.05845006 -145.80261647 101.05387083 -141.76757812 101.04882812 C-133.84503531 101.03809111 -125.92252219 101.0210149 -118 101 C-117.97117358 98.12753154 -117.95016665 95.25535645 -117.93359375 92.3828125 C-117.92469116 91.57561768 -117.91578857 90.76842285 -117.90661621 89.93676758 C-117.86536335 80.39037036 -119.18076688 72.69518867 -126.05078125 65.65234375 C-129.13713446 63.03605636 -132.20204826 61.36668718 -136 60 C-136.928125 59.66355469 -136.928125 59.66355469 -137.875 59.3203125 C-152.28231142 55.2119776 -170.63914722 56.65930542 -182 67 Z " fill="#000000" transform="translate(366,4818)"/>
<path d="M0 0 C0 15.18 0 30.36 0 46 C-13.77919037 52.88959518 -13.77919037 52.88959518 -19.78125 55.5234375 C-20.46643707 55.82706207 -21.15162415 56.13068665 -21.85757446 56.44351196 C-24.07051405 57.42342024 -26.28518964 58.39932842 -28.5 59.375 C-30.86263145 60.41900406 -33.22491073 61.4638024 -35.58718872 62.50860596 C-37.21843621 63.22995855 -38.84984638 63.95094339 -40.48141479 64.67156982 C-46.42492378 67.29798047 -52.35871779 69.94557918 -58.2890625 72.6015625 C-60.76625861 73.70930728 -63.24358375 74.81676297 -65.72094727 75.9241333 C-67.3206056 76.64001574 -68.91972964 77.35709328 -70.51831055 78.07537842 C-72.74249329 79.07444385 -74.96865559 80.06896381 -77.1953125 81.0625 C-77.85818268 81.36169342 -78.52105286 81.66088684 -79.20401001 81.96914673 C-83.77223364 84 -83.77223364 84 -86 84 C-86.13277344 84.81984375 -86.26554688 85.6396875 -86.40234375 86.484375 C-86.57894531 87.56203125 -86.75554687 88.6396875 -86.9375 89.75 C-87.11152344 90.81734375 -87.28554688 91.8846875 -87.46484375 92.984375 C-87.88312803 95.34142219 -88.41940025 97.677601 -89 100 C-44.945 100.495 -44.945 100.495 0 101 C0 114.2 0 127.4 0 141 C-72.27 141 -144.54 141 -219 141 C-225.05123025 110.74384873 -231.17275532 69.00574267 -214.1796875 41 C-205.21422976 28.06161393 -192.58197539 19.5079786 -177 16.43359375 C-154.35199866 13.4881489 -128.83657147 15.61722568 -110.0625 29.6875 C-102.31820151 35.80191145 -97.32745039 43.24253155 -93 52 C-92.33871094 50.86159668 -92.33871094 50.86159668 -91.6640625 49.70019531 C-85.0180216 39.52424093 -76.87437702 35.62711706 -66 30.75 C-64.26778185 29.94447254 -62.53708536 29.13566546 -60.80786133 28.32373047 C-57.27887195 26.67060628 -53.74331185 25.03303696 -50.20166016 23.40722656 C-43.01495628 20.09721988 -35.90716509 16.62717569 -28.7980957 13.15441895 C-26.74555952 12.15331787 -24.69072359 11.15713822 -22.63476562 10.16308594 C-21.99548126 9.85391235 -21.3561969 9.54473877 -20.69754028 9.22619629 C-19.77024612 8.77778381 -19.77024612 8.77778381 -18.82421875 8.3203125 C-13.80460839 5.8911339 -8.81893337 3.40654505 -3.86645508 0.84326172 C-2 0 -2 0 0 0 Z M-182 67 C-188.17338968 75.69731696 -187.72125306 86.49783026 -186.5625 96.6875 C-186.35651035 99.83640532 -186.35651035 99.83640532 -185 101 C-182.91380978 101.09417773 -180.82439523 101.11742878 -178.73608398 101.11352539 C-178.08244873 101.11367142 -177.42881348 101.11381744 -176.75537109 101.1139679 C-174.58557872 101.11326883 -172.41587121 101.10547678 -170.24609375 101.09765625 C-168.74536689 101.09579205 -167.24463943 101.09436816 -165.74391174 101.09336853 C-161.78681774 101.08954352 -157.82976022 101.0797134 -153.87268066 101.06866455 C-149.83765151 101.05845006 -145.80261647 101.05387083 -141.76757812 101.04882812 C-133.84503531 101.03809111 -125.92252219 101.0210149 -118 101 C-117.97117358 98.12753154 -117.95016665 95.25535645 -117.93359375 92.3828125 C-117.92469116 91.57561768 -117.91578857 90.76842285 -117.90661621 89.93676758 C-117.86536335 80.39037036 -119.18076688 72.69518867 -126.05078125 65.65234375 C-129.13713446 63.03605636 -132.20204826 61.36668718 -136 60 C-136.928125 59.66355469 -136.928125 59.66355469 -137.875 59.3203125 C-152.28231142 55.2119776 -170.63914722 56.65930542 -182 67 Z " fill="#000000" transform="translate(366,2933)"/>
<path d="M0 0 C0 15.18 0 30.36 0 46 C-13.77919037 52.88959518 -13.77919037 52.88959518 -19.78125 55.5234375 C-20.46643707 55.82706207 -21.15162415 56.13068665 -21.85757446 56.44351196 C-24.07051405 57.42342024 -26.28518964 58.39932842 -28.5 59.375 C-30.86263145 60.41900406 -33.22491073 61.4638024 -35.58718872 62.50860596 C-37.21843621 63.22995855 -38.84984638 63.95094339 -40.48141479 64.67156982 C-46.42492378 67.29798047 -52.35871779 69.94557918 -58.2890625 72.6015625 C-60.76625861 73.70930728 -63.24358375 74.81676297 -65.72094727 75.9241333 C-67.3206056 76.64001574 -68.91972964 77.35709328 -70.51831055 78.07537842 C-72.74249329 79.07444385 -74.96865559 80.06896381 -77.1953125 81.0625 C-77.85818268 81.36169342 -78.52105286 81.66088684 -79.20401001 81.96914673 C-83.77223364 84 -83.77223364 84 -86 84 C-86.13277344 84.81984375 -86.26554688 85.6396875 -86.40234375 86.484375 C-86.57894531 87.56203125 -86.75554687 88.6396875 -86.9375 89.75 C-87.11152344 90.81734375 -87.28554688 91.8846875 -87.46484375 92.984375 C-87.88312803 95.34142219 -88.41940025 97.677601 -89 100 C-44.945 100.495 -44.945 100.495 0 101 C0 114.2 0 127.4 0 141 C-72.27 141 -144.54 141 -219 141 C-225.05123025 110.74384873 -231.17275532 69.00574267 -214.1796875 41 C-205.21422976 28.06161393 -192.58197539 19.5079786 -177 16.43359375 C-154.35199866 13.4881489 -128.83657147 15.61722568 -110.0625 29.6875 C-102.31820151 35.80191145 -97.32745039 43.24253155 -93 52 C-92.33871094 50.86159668 -92.33871094 50.86159668 -91.6640625 49.70019531 C-85.0180216 39.52424093 -76.87437702 35.62711706 -66 30.75 C-64.26778185 29.94447254 -62.53708536 29.13566546 -60.80786133 28.32373047 C-57.27887195 26.67060628 -53.74331185 25.03303696 -50.20166016 23.40722656 C-43.01495628 20.09721988 -35.90716509 16.62717569 -28.7980957 13.15441895 C-26.74555952 12.15331787 -24.69072359 11.15713822 -22.63476562 10.16308594 C-21.99548126 9.85391235 -21.3561969 9.54473877 -20.69754028 9.22619629 C-19.77024612 8.77778381 -19.77024612 8.77778381 -18.82421875 8.3203125 C-13.80460839 5.8911339 -8.81893337 3.40654505 -3.86645508 0.84326172 C-2 0 -2 0 0 0 Z M-182 67 C-188.17338968 75.69731696 -187.72125306 86.49783026 -186.5625 96.6875 C-186.35651035 99.83640532 -186.35651035 99.83640532 -185 101 C-182.91380978 101.09417773 -180.82439523 101.11742878 -178.73608398 101.11352539 C-178.08244873 101.11367142 -177.42881348 101.11381744 -176.75537109 101.1139679 C-174.58557872 101.11326883 -172.41587121 101.10547678 -170.24609375 101.09765625 C-168.74536689 101.09579205 -167.24463943 101.09436816 -165.74391174 101.09336853 C-161.78681774 101.08954352 -157.82976022 101.0797134 -153.87268066 101.06866455 C-149.83765151 101.05845006 -145.80261647 101.05387083 -141.76757812 101.04882812 C-133.84503531 101.03809111 -125.92252219 101.0210149 -118 101 C-117.97117358 98.12753154 -117.95016665 95.25535645 -117.93359375 92.3828125 C-117.92469116 91.57561768 -117.91578857 90.76842285 -117.90661621 89.93676758 C-117.86536335 80.39037036 -119.18076688 72.69518867 -126.05078125 65.65234375 C-129.13713446 63.03605636 -132.20204826 61.36668718 -136 60 C-136.928125 59.66355469 -136.928125 59.66355469 -137.875 59.3203125 C-152.28231142 55.2119776 -170.63914722 56.65930542 -182 67 Z " fill="#000000" transform="translate(366,1048)"/>
<path d="M0 0 C72.93 0 145.86 0 221 0 C221 13.2 221 26.4 221 40 C190.31 40 159.62 40 128 40 C128 59.8 128 79.6 128 100 C158.69 100 189.38 100 221 100 C221 113.2 221 126.4 221 140 C148.07 140 75.14 140 0 140 C0 126.8 0 113.6 0 100 C30.03 100 60.06 100 91 100 C91 80.2 91 60.4 91 40 C60.97 40 30.94 40 0 40 C0 26.8 0 13.6 0 0 Z " fill="#000000" transform="translate(145,4596)"/>
<path d="M0 0 C72.93 0 145.86 0 221 0 C221 13.2 221 26.4 221 40 C190.31 40 159.62 40 128 40 C128 59.8 128 79.6 128 100 C158.69 100 189.38 100 221 100 C221 113.2 221 126.4 221 140 C148.07 140 75.14 140 0 140 C0 126.8 0 113.6 0 100 C30.03 100 60.06 100 91 100 C91 80.2 91 60.4 91 40 C60.97 40 30.94 40 0 40 C0 26.8 0 13.6 0 0 Z " fill="#000000" transform="translate(145,2711)"/>
<path d="M0 0 C72.93 0 145.86 0 221 0 C221 13.2 221 26.4 221 40 C190.31 40 159.62 40 128 40 C128 59.8 128 79.6 128 100 C158.69 100 189.38 100 221 100 C221 113.2 221 126.4 221 140 C148.07 140 75.14 140 0 140 C0 126.8 0 113.6 0 100 C30.03 100 60.06 100 91 100 C91 80.2 91 60.4 91 40 C60.97 40 30.94 40 0 40 C0 26.8 0 13.6 0 0 Z " fill="#000000" transform="translate(145,826)"/>
<path d="M0 0 C20.55053913 -0.06793279 41.1009862 -0.12310679 61.65160942 -0.15543652 C71.19535236 -0.17085216 80.73902016 -0.19183923 90.28271484 -0.22631836 C98.60885521 -0.2563842 106.93494111 -0.27561345 115.26113427 -0.28226548 C119.66266196 -0.28614888 124.06403394 -0.29516234 128.46551132 -0.31719017 C132.62367473 -0.33782812 136.78162101 -0.34377983 140.93983078 -0.33932304 C142.45131111 -0.34013623 143.96280011 -0.34593706 145.47423553 -0.35761642 C168.27701002 -0.52490655 191.59450152 3.33772806 208.71484375 19.58984375 C221.39780044 32.96656901 225.40327199 48.77188449 225.3125 66.75 C225.30512817 68.47307373 225.30512817 68.47307373 225.29760742 70.23095703 C225.05914353 87.50552609 220.82173902 104.2705217 208.88671875 117.30859375 C191.79059362 133.90106871 168.87714754 136.1697016 146.22070312 136.11352539 C144.62348431 136.113243 143.02626537 136.11340226 141.42904663 136.1139679 C137.11146477 136.11425385 132.7939109 136.1083898 128.47633553 136.10139394 C123.95732898 136.09512674 119.43832174 136.09455394 114.91931152 136.09336853 C106.37015728 136.09026513 97.82101588 136.08206512 89.27186728 136.07201904 C79.53547215 136.0608271 69.79907639 136.0553397 60.06267643 136.05032361 C40.04177553 136.03988166 20.02089224 136.02154852 0 136 C0 122.8 0 109.6 0 96 C4.53121582 95.98018066 9.06243164 95.96036133 13.73095703 95.93994141 C28.73056949 95.872925 43.73011406 95.79538441 58.72964668 95.71247292 C67.82056137 95.66247717 76.91146762 95.61603342 86.00244141 95.578125 C93.93159271 95.54505206 101.86067596 95.50513787 109.78975189 95.45720994 C113.98316419 95.4320961 118.17653223 95.41027136 122.36999893 95.39665604 C126.32790303 95.383697 130.28565414 95.36149816 134.24347305 95.33261681 C135.68565197 95.3236479 137.12785544 95.31787627 138.57006073 95.31578636 C160.40666768 95.36612234 160.40666768 95.36612234 179.9375 86.75 C185.68321123 79.0890517 187.82948807 71.53157206 187 62 C185.83147073 55.89052416 184.09822161 49.94435159 179 46 C167.05821123 38.86671852 153.85612558 38.70015047 140.31738281 38.68115234 C138.77868129 38.67183258 137.23998473 38.66166094 135.70129395 38.65071106 C131.56165115 38.62362753 127.42204196 38.6083266 123.28233433 38.59528303 C118.94215138 38.57955677 114.60203612 38.5527973 110.26190186 38.5272522 C102.05998912 38.48063138 93.85806342 38.44380694 85.65608668 38.41057932 C76.31132504 38.37223932 66.96663166 38.32286062 57.62192774 38.27259517 C38.41466283 38.16952389 19.20736878 38.08164028 0 38 C0 25.46 0 12.92 0 0 Z " fill="#000000" transform="translate(145,4433)"/>
<path d="M0 0 C20.55053913 -0.06793279 41.1009862 -0.12310679 61.65160942 -0.15543652 C71.19535236 -0.17085216 80.73902016 -0.19183923 90.28271484 -0.22631836 C98.60885521 -0.2563842 106.93494111 -0.27561345 115.26113427 -0.28226548 C119.66266196 -0.28614888 124.06403394 -0.29516234 128.46551132 -0.31719017 C132.62367473 -0.33782812 136.78162101 -0.34377983 140.93983078 -0.33932304 C142.45131111 -0.34013623 143.96280011 -0.34593706 145.47423553 -0.35761642 C168.27701002 -0.52490655 191.59450152 3.33772806 208.71484375 19.58984375 C221.39780044 32.96656901 225.40327199 48.77188449 225.3125 66.75 C225.30512817 68.47307373 225.30512817 68.47307373 225.29760742 70.23095703 C225.05914353 87.50552609 220.82173902 104.2705217 208.88671875 117.30859375 C191.79059362 133.90106871 168.87714754 136.1697016 146.22070312 136.11352539 C144.62348431 136.113243 143.02626537 136.11340226 141.42904663 136.1139679 C137.11146477 136.11425385 132.7939109 136.1083898 128.47633553 136.10139394 C123.95732898 136.09512674 119.43832174 136.09455394 114.91931152 136.09336853 C106.37015728 136.09026513 97.82101588 136.08206512 89.27186728 136.07201904 C79.53547215 136.0608271 69.79907639 136.0553397 60.06267643 136.05032361 C40.04177553 136.03988166 20.02089224 136.02154852 0 136 C0 122.8 0 109.6 0 96 C4.53121582 95.98018066 9.06243164 95.96036133 13.73095703 95.93994141 C28.73056949 95.872925 43.73011406 95.79538441 58.72964668 95.71247292 C67.82056137 95.66247717 76.91146762 95.61603342 86.00244141 95.578125 C93.93159271 95.54505206 101.86067596 95.50513787 109.78975189 95.45720994 C113.98316419 95.4320961 118.17653223 95.41027136 122.36999893 95.39665604 C126.32790303 95.383697 130.28565414 95.36149816 134.24347305 95.33261681 C135.68565197 95.3236479 137.12785544 95.31787627 138.57006073 95.31578636 C160.40666768 95.36612234 160.40666768 95.36612234 179.9375 86.75 C185.68321123 79.0890517 187.82948807 71.53157206 187 62 C185.83147073 55.89052416 184.09822161 49.94435159 179 46 C167.05821123 38.86671852 153.85612558 38.70015047 140.31738281 38.68115234 C138.77868129 38.67183258 137.23998473 38.66166094 135.70129395 38.65071106 C131.56165115 38.62362753 127.42204196 38.6083266 123.28233433 38.59528303 C118.94215138 38.57955677 114.60203612 38.5527973 110.26190186 38.5272522 C102.05998912 38.48063138 93.85806342 38.44380694 85.65608668 38.41057932 C76.31132504 38.37223932 66.96663166 38.32286062 57.62192774 38.27259517 C38.41466283 38.16952389 19.20736878 38.08164028 0 38 C0 25.46 0 12.92 0 0 Z " fill="#000000" transform="translate(145,2548)"/>
<path d="M0 0 C20.55053913 -0.06793279 41.1009862 -0.12310679 61.65160942 -0.15543652 C71.19535236 -0.17085216 80.73902016 -0.19183923 90.28271484 -0.22631836 C98.60885521 -0.2563842 106.93494111 -0.27561345 115.26113427 -0.28226548 C119.66266196 -0.28614888 124.06403394 -0.29516234 128.46551132 -0.31719017 C132.62367473 -0.33782812 136.78162101 -0.34377983 140.93983078 -0.33932304 C142.45131111 -0.34013623 143.96280011 -0.34593706 145.47423553 -0.35761642 C168.27701002 -0.52490655 191.59450152 3.33772806 208.71484375 19.58984375 C221.39780044 32.96656901 225.40327199 48.77188449 225.3125 66.75 C225.30512817 68.47307373 225.30512817 68.47307373 225.29760742 70.23095703 C225.05914353 87.50552609 220.82173902 104.2705217 208.88671875 117.30859375 C191.79059362 133.90106871 168.87714754 136.1697016 146.22070312 136.11352539 C144.62348431 136.113243 143.02626537 136.11340226 141.42904663 136.1139679 C137.11146477 136.11425385 132.7939109 136.1083898 128.47633553 136.10139394 C123.95732898 136.09512674 119.43832174 136.09455394 114.91931152 136.09336853 C106.37015728 136.09026513 97.82101588 136.08206512 89.27186728 136.07201904 C79.53547215 136.0608271 69.79907639 136.0553397 60.06267643 136.05032361 C40.04177553 136.03988166 20.02089224 136.02154852 0 136 C0 122.8 0 109.6 0 96 C4.53121582 95.98018066 9.06243164 95.96036133 13.73095703 95.93994141 C28.73056949 95.872925 43.73011406 95.79538441 58.72964668 95.71247292 C67.82056137 95.66247717 76.91146762 95.61603342 86.00244141 95.578125 C93.93159271 95.54505206 101.86067596 95.50513787 109.78975189 95.45720994 C113.98316419 95.4320961 118.17653223 95.41027136 122.36999893 95.39665604 C126.32790303 95.383697 130.28565414 95.36149816 134.24347305 95.33261681 C135.68565197 95.3236479 137.12785544 95.31787627 138.57006073 95.31578636 C160.40666768 95.36612234 160.40666768 95.36612234 179.9375 86.75 C185.68321123 79.0890517 187.82948807 71.53157206 187 62 C185.83147073 55.89052416 184.09822161 49.94435159 179 46 C167.05821123 38.86671852 153.85612558 38.70015047 140.31738281 38.68115234 C138.77868129 38.67183258 137.23998473 38.66166094 135.70129395 38.65071106 C131.56165115 38.62362753 127.42204196 38.6083266 123.28233433 38.59528303 C118.94215138 38.57955677 114.60203612 38.5527973 110.26190186 38.5272522 C102.05998912 38.48063138 93.85806342 38.44380694 85.65608668 38.41057932 C76.31132504 38.37223932 66.96663166 38.32286062 57.62192774 38.27259517 C38.41466283 38.16952389 19.20736878 38.08164028 0 38 C0 25.46 0 12.92 0 0 Z " fill="#000000" transform="translate(145,663)"/>
<path d="M0 0 C0 14.19 0 28.38 0 43 C-6.94113607 44.85368564 -13.88263349 46.70587996 -20.82519531 48.55419922 C-23.18838855 49.18384231 -25.55134529 49.81437373 -27.9140625 50.44580078 C-31.30407376 51.35160496 -34.69491401 52.25424373 -38.0859375 53.15625 C-39.14743011 53.44060913 -40.20892273 53.72496826 -41.30258179 54.01794434 C-42.28344757 54.27821411 -43.26431335 54.53848389 -44.27490234 54.80664062 C-45.14094086 55.03758423 -46.00697937 55.26852783 -46.89926147 55.50646973 C-49 56 -49 56 -51 56 C-51 73.16 -51 90.32 -51 108 C-48.36 108.33 -45.72 108.66 -43 109 C-41.3733498 109.33721766 -39.75273212 109.70688186 -38.14453125 110.12329102 C-37.28424316 110.34344376 -36.42395508 110.5635965 -35.53759766 110.79042053 C-34.63831543 111.02587082 -33.7390332 111.26132111 -32.8125 111.50390625 C-31.86938965 111.7466478 -30.9262793 111.98938934 -29.95458984 112.23948669 C-26.96850549 113.00918561 -23.98425122 113.78572759 -21 114.5625 C-18.96496116 115.08834523 -16.92980599 115.61374046 -14.89453125 116.13867188 C-9.92808916 117.41974679 -4.96418477 118.71007699 0 120 C0 133.2 0 146.4 0 160 C-18.37968009 155.40507998 -18.37968009 155.40507998 -26.04052734 153.18530273 C-26.92327615 152.9320051 -27.80602495 152.67870747 -28.71552372 152.41773415 C-31.58975304 151.59229793 -34.46284698 150.76298417 -37.3359375 149.93359375 C-39.3980481 149.34053469 -41.46022945 148.74772158 -43.5224762 148.15513611 C-49.00814374 146.57810285 -54.49283766 144.99770919 -59.97733688 143.41661835 C-65.6842742 141.7720271 -71.39210969 140.13055902 -77.09985352 138.48876953 C-87.29009271 135.55716661 -97.47959064 132.62299737 -107.66875362 129.6876564 C-117.44634412 126.87104065 -127.2249835 124.0580799 -137.00390625 121.24609375 C-148.96989831 117.80499204 -160.93469578 114.35978012 -172.89830017 110.91038513 C-179.41692195 109.03125041 -185.93667214 107.15612243 -192.45780945 105.28573608 C-196.16047573 104.22333206 -199.86244644 103.15852077 -203.5642395 102.09307861 C-205.20150053 101.62247832 -206.8390833 101.15299566 -208.47702026 100.68475342 C-210.62225305 100.07140581 -212.76634028 99.45421548 -214.91015625 98.8359375 C-216.66017944 98.33392822 -216.66017944 98.33392822 -218.44555664 97.82177734 C-221 97 -221 97 -222 96 C-222.0883967 93.6243148 -222.11530305 91.27791326 -222.09765625 88.90234375 C-222.0962413 88.19348526 -222.09482635 87.48462677 -222.09336853 86.75428772 C-222.08775443 84.48198288 -222.07519963 82.20977525 -222.0625 79.9375 C-222.05748681 78.40039204 -222.05292359 76.86328255 -222.04882812 75.32617188 C-222.03778042 71.55074358 -222.02050641 67.77538829 -222 64 C-220.56185944 63.58468521 -220.56185944 63.58468521 -219.09466553 63.16098022 C-177.44625703 51.13336009 -135.79794664 39.10538327 -94.15657425 27.05342102 C-91.81491582 26.37569919 -89.47323857 25.69804241 -87.13156128 25.02038574 C-71.11539175 20.38518501 -55.10151526 15.74227433 -39.09375 11.078125 C-37.76454262 10.69092473 -36.43533426 10.30372782 -35.10612488 9.91653442 C-28.99370406 8.13579859 -22.88180913 6.35328159 -16.77075195 4.56787109 C-14.66618686 3.95407251 -12.56161382 3.34030115 -10.45703125 2.7265625 C-9.02266724 2.30651947 -9.02266724 2.30651947 -7.55932617 1.87799072 C-6.70032715 1.62773132 -5.84132813 1.37747192 -4.95629883 1.11962891 C-4.21068192 0.90174713 -3.465065 0.68386536 -2.69685364 0.4593811 C-1 0 -1 0 0 0 Z M-90.20727539 64.0222168 C-91.0594313 64.24646835 -91.91158722 64.47071991 -92.78956604 64.70176697 C-93.71623581 64.94842606 -94.64290558 65.19508514 -95.59765625 65.44921875 C-97.60189864 65.97223687 -99.60647011 66.49399517 -101.61132812 67.01464844 C-102.66521729 67.28853394 -103.71910645 67.56241943 -104.80493164 67.84460449 C-125.76747065 73.2686595 -146.48341996 77.55088596 -168 80 C-168 80.66 -168 81.32 -168 82 C-167.22664307 82.08862305 -166.45328613 82.17724609 -165.65649414 82.26855469 C-140.53536167 85.27384912 -116.30484786 90.96794376 -91.82872009 97.29823303 C-90.95647293 97.52248459 -90.08422577 97.74673615 -89.18554688 97.9777832 C-88.42205933 98.17588089 -87.65857178 98.37397858 -86.87194824 98.57807922 C-84.99464199 99.07329182 -84.99464199 99.07329182 -83 99 C-83 87.12 -83 75.24 -83 63 C-85.73483333 63 -87.59728449 63.32681432 -90.20727539 64.0222168 Z " fill="#000000" transform="translate(366,4052)"/>
<path d="M0 0 C0 14.19 0 28.38 0 43 C-6.94113607 44.85368564 -13.88263349 46.70587996 -20.82519531 48.55419922 C-23.18838855 49.18384231 -25.55134529 49.81437373 -27.9140625 50.44580078 C-31.30407376 51.35160496 -34.69491401 52.25424373 -38.0859375 53.15625 C-39.14743011 53.44060913 -40.20892273 53.72496826 -41.30258179 54.01794434 C-42.28344757 54.27821411 -43.26431335 54.53848389 -44.27490234 54.80664062 C-45.14094086 55.03758423 -46.00697937 55.26852783 -46.89926147 55.50646973 C-49 56 -49 56 -51 56 C-51 73.16 -51 90.32 -51 108 C-48.36 108.33 -45.72 108.66 -43 109 C-41.3733498 109.33721766 -39.75273212 109.70688186 -38.14453125 110.12329102 C-37.28424316 110.34344376 -36.42395508 110.5635965 -35.53759766 110.79042053 C-34.63831543 111.02587082 -33.7390332 111.26132111 -32.8125 111.50390625 C-31.86938965 111.7466478 -30.9262793 111.98938934 -29.95458984 112.23948669 C-26.96850549 113.00918561 -23.98425122 113.78572759 -21 114.5625 C-18.96496116 115.08834523 -16.92980599 115.61374046 -14.89453125 116.13867188 C-9.92808916 117.41974679 -4.96418477 118.71007699 0 120 C0 133.2 0 146.4 0 160 C-18.37968009 155.40507998 -18.37968009 155.40507998 -26.04052734 153.18530273 C-26.92327615 152.9320051 -27.80602495 152.67870747 -28.71552372 152.41773415 C-31.58975304 151.59229793 -34.46284698 150.76298417 -37.3359375 149.93359375 C-39.3980481 149.34053469 -41.46022945 148.74772158 -43.5224762 148.15513611 C-49.00814374 146.57810285 -54.49283766 144.99770919 -59.97733688 143.41661835 C-65.6842742 141.7720271 -71.39210969 140.13055902 -77.09985352 138.48876953 C-87.29009271 135.55716661 -97.47959064 132.62299737 -107.66875362 129.6876564 C-117.44634412 126.87104065 -127.2249835 124.0580799 -137.00390625 121.24609375 C-148.96989831 117.80499204 -160.93469578 114.35978012 -172.89830017 110.91038513 C-179.41692195 109.03125041 -185.93667214 107.15612243 -192.45780945 105.28573608 C-196.16047573 104.22333206 -199.86244644 103.15852077 -203.5642395 102.09307861 C-205.20150053 101.62247832 -206.8390833 101.15299566 -208.47702026 100.68475342 C-210.62225305 100.07140581 -212.76634028 99.45421548 -214.91015625 98.8359375 C-216.66017944 98.33392822 -216.66017944 98.33392822 -218.44555664 97.82177734 C-221 97 -221 97 -222 96 C-222.0883967 93.6243148 -222.11530305 91.27791326 -222.09765625 88.90234375 C-222.0962413 88.19348526 -222.09482635 87.48462677 -222.09336853 86.75428772 C-222.08775443 84.48198288 -222.07519963 82.20977525 -222.0625 79.9375 C-222.05748681 78.40039204 -222.05292359 76.86328255 -222.04882812 75.32617188 C-222.03778042 71.55074358 -222.02050641 67.77538829 -222 64 C-220.56185944 63.58468521 -220.56185944 63.58468521 -219.09466553 63.16098022 C-177.44625703 51.13336009 -135.79794664 39.10538327 -94.15657425 27.05342102 C-91.81491582 26.37569919 -89.47323857 25.69804241 -87.13156128 25.02038574 C-71.11539175 20.38518501 -55.10151526 15.74227433 -39.09375 11.078125 C-37.76454262 10.69092473 -36.43533426 10.30372782 -35.10612488 9.91653442 C-28.99370406 8.13579859 -22.88180913 6.35328159 -16.77075195 4.56787109 C-14.66618686 3.95407251 -12.56161382 3.34030115 -10.45703125 2.7265625 C-9.02266724 2.30651947 -9.02266724 2.30651947 -7.55932617 1.87799072 C-6.70032715 1.62773132 -5.84132813 1.37747192 -4.95629883 1.11962891 C-4.21068192 0.90174713 -3.465065 0.68386536 -2.69685364 0.4593811 C-1 0 -1 0 0 0 Z M-90.20727539 64.0222168 C-91.0594313 64.24646835 -91.91158722 64.47071991 -92.78956604 64.70176697 C-93.71623581 64.94842606 -94.64290558 65.19508514 -95.59765625 65.44921875 C-97.60189864 65.97223687 -99.60647011 66.49399517 -101.61132812 67.01464844 C-102.66521729 67.28853394 -103.71910645 67.56241943 -104.80493164 67.84460449 C-125.76747065 73.2686595 -146.48341996 77.55088596 -168 80 C-168 80.66 -168 81.32 -168 82 C-167.22664307 82.08862305 -166.45328613 82.17724609 -165.65649414 82.26855469 C-140.53536167 85.27384912 -116.30484786 90.96794376 -91.82872009 97.29823303 C-90.95647293 97.52248459 -90.08422577 97.74673615 -89.18554688 97.9777832 C-88.42205933 98.17588089 -87.65857178 98.37397858 -86.87194824 98.57807922 C-84.99464199 99.07329182 -84.99464199 99.07329182 -83 99 C-83 87.12 -83 75.24 -83 63 C-85.73483333 63 -87.59728449 63.32681432 -90.20727539 64.0222168 Z " fill="#000000" transform="translate(366,2167)"/>
<path d="M0 0 C0 14.19 0 28.38 0 43 C-6.94113607 44.85368564 -13.88263349 46.70587996 -20.82519531 48.55419922 C-23.18838855 49.18384231 -25.55134529 49.81437373 -27.9140625 50.44580078 C-31.30407376 51.35160496 -34.69491401 52.25424373 -38.0859375 53.15625 C-39.14743011 53.44060913 -40.20892273 53.72496826 -41.30258179 54.01794434 C-42.28344757 54.27821411 -43.26431335 54.53848389 -44.27490234 54.80664062 C-45.14094086 55.03758423 -46.00697937 55.26852783 -46.89926147 55.50646973 C-49 56 -49 56 -51 56 C-51 73.16 -51 90.32 -51 108 C-48.36 108.33 -45.72 108.66 -43 109 C-41.3733498 109.33721766 -39.75273212 109.70688186 -38.14453125 110.12329102 C-37.28424316 110.34344376 -36.42395508 110.5635965 -35.53759766 110.79042053 C-34.63831543 111.02587082 -33.7390332 111.26132111 -32.8125 111.50390625 C-31.86938965 111.7466478 -30.9262793 111.98938934 -29.95458984 112.23948669 C-26.96850549 113.00918561 -23.98425122 113.78572759 -21 114.5625 C-18.96496116 115.08834523 -16.92980599 115.61374046 -14.89453125 116.13867188 C-9.92808916 117.41974679 -4.96418477 118.71007699 0 120 C0 133.2 0 146.4 0 160 C-18.37968009 155.40507998 -18.37968009 155.40507998 -26.04052734 153.18530273 C-26.92327615 152.9320051 -27.80602495 152.67870747 -28.71552372 152.41773415 C-31.58975304 151.59229793 -34.46284698 150.76298417 -37.3359375 149.93359375 C-39.3980481 149.34053469 -41.46022945 148.74772158 -43.5224762 148.15513611 C-49.00814374 146.57810285 -54.49283766 144.99770919 -59.97733688 143.41661835 C-65.6842742 141.7720271 -71.39210969 140.13055902 -77.09985352 138.48876953 C-87.29009271 135.55716661 -97.47959064 132.62299737 -107.66875362 129.6876564 C-117.44634412 126.87104065 -127.2249835 124.0580799 -137.00390625 121.24609375 C-148.96989831 117.80499204 -160.93469578 114.35978012 -172.89830017 110.91038513 C-179.41692195 109.03125041 -185.93667214 107.15612243 -192.45780945 105.28573608 C-196.16047573 104.22333206 -199.86244644 103.15852077 -203.5642395 102.09307861 C-205.20150053 101.62247832 -206.8390833 101.15299566 -208.47702026 100.68475342 C-210.62225305 100.07140581 -212.76634028 99.45421548 -214.91015625 98.8359375 C-216.66017944 98.33392822 -216.66017944 98.33392822 -218.44555664 97.82177734 C-221 97 -221 97 -222 96 C-222.0883967 93.6243148 -222.11530305 91.27791326 -222.09765625 88.90234375 C-222.0962413 88.19348526 -222.09482635 87.48462677 -222.09336853 86.75428772 C-222.08775443 84.48198288 -222.07519963 82.20977525 -222.0625 79.9375 C-222.05748681 78.40039204 -222.05292359 76.86328255 -222.04882812 75.32617188 C-222.03778042 71.55074358 -222.02050641 67.77538829 -222 64 C-220.56185944 63.58468521 -220.56185944 63.58468521 -219.09466553 63.16098022 C-177.44625703 51.13336009 -135.79794664 39.10538327 -94.15657425 27.05342102 C-91.81491582 26.37569919 -89.47323857 25.69804241 -87.13156128 25.02038574 C-71.11539175 20.38518501 -55.10151526 15.74227433 -39.09375 11.078125 C-37.76454262 10.69092473 -36.43533426 10.30372782 -35.10612488 9.91653442 C-28.99370406 8.13579859 -22.88180913 6.35328159 -16.77075195 4.56787109 C-14.66618686 3.95407251 -12.56161382 3.34030115 -10.45703125 2.7265625 C-9.02266724 2.30651947 -9.02266724 2.30651947 -7.55932617 1.87799072 C-6.70032715 1.62773132 -5.84132813 1.37747192 -4.95629883 1.11962891 C-4.21068192 0.90174713 -3.465065 0.68386536 -2.69685364 0.4593811 C-1 0 -1 0 0 0 Z M-90.20727539 64.0222168 C-91.0594313 64.24646835 -91.91158722 64.47071991 -92.78956604 64.70176697 C-93.71623581 64.94842606 -94.64290558 65.19508514 -95.59765625 65.44921875 C-97.60189864 65.97223687 -99.60647011 66.49399517 -101.61132812 67.01464844 C-102.66521729 67.28853394 -103.71910645 67.56241943 -104.80493164 67.84460449 C-125.76747065 73.2686595 -146.48341996 77.55088596 -168 80 C-168 80.66 -168 81.32 -168 82 C-167.22664307 82.08862305 -166.45328613 82.17724609 -165.65649414 82.26855469 C-140.53536167 85.27384912 -116.30484786 90.96794376 -91.82872009 97.29823303 C-90.95647293 97.52248459 -90.08422577 97.74673615 -89.18554688 97.9777832 C-88.42205933 98.17588089 -87.65857178 98.37397858 -86.87194824 98.57807922 C-84.99464199 99.07329182 -84.99464199 99.07329182 -83 99 C-83 87.12 -83 75.24 -83 63 C-85.73483333 63 -87.59728449 63.32681432 -90.20727539 64.0222168 Z " fill="#000000" transform="translate(366,282)"/>
<path d="M0 0 C12.21 0 24.42 0 37 0 C37 36.96 37 73.92 37 112 C-35.93 112 -108.86 112 -184 112 C-184 75.37 -184 38.74 -184 1 C-171.79 1 -159.58 1 -147 1 C-147 24.43 -147 47.86 -147 72 C-129.18 72 -111.36 72 -93 72 C-93 50.88 -93 29.76 -93 8 C-80.79 8 -68.58 8 -56 8 C-56 29.12 -56 50.24 -56 72 C-37.52 72 -19.04 72 0 72 C0 48.24 0 24.48 0 0 Z " fill="#000000" transform="translate(329,5423)"/>
<path d="M0 0 C12.21 0 24.42 0 37 0 C37 36.96 37 73.92 37 112 C-35.93 112 -108.86 112 -184 112 C-184 75.37 -184 38.74 -184 1 C-171.79 1 -159.58 1 -147 1 C-147 24.43 -147 47.86 -147 72 C-129.18 72 -111.36 72 -93 72 C-93 50.88 -93 29.76 -93 8 C-80.79 8 -68.58 8 -56 8 C-56 29.12 -56 50.24 -56 72 C-37.52 72 -19.04 72 0 72 C0 48.24 0 24.48 0 0 Z " fill="#000000" transform="translate(329,4982)"/>
<path d="M0 0 C12.21 0 24.42 0 37 0 C37 36.96 37 73.92 37 112 C-35.93 112 -108.86 112 -184 112 C-184 75.37 -184 38.74 -184 1 C-171.79 1 -159.58 1 -147 1 C-147 24.43 -147 47.86 -147 72 C-129.18 72 -111.36 72 -93 72 C-93 50.88 -93 29.76 -93 8 C-80.79 8 -68.58 8 -56 8 C-56 29.12 -56 50.24 -56 72 C-37.52 72 -19.04 72 0 72 C0 48.24 0 24.48 0 0 Z " fill="#000000" transform="translate(329,3538)"/>
<path d="M0 0 C12.21 0 24.42 0 37 0 C37 36.96 37 73.92 37 112 C-35.93 112 -108.86 112 -184 112 C-184 75.37 -184 38.74 -184 1 C-171.79 1 -159.58 1 -147 1 C-147 24.43 -147 47.86 -147 72 C-129.18 72 -111.36 72 -93 72 C-93 50.88 -93 29.76 -93 8 C-80.79 8 -68.58 8 -56 8 C-56 29.12 -56 50.24 -56 72 C-37.52 72 -19.04 72 0 72 C0 48.24 0 24.48 0 0 Z " fill="#000000" transform="translate(329,3097)"/>
<path d="M0 0 C12.21 0 24.42 0 37 0 C37 36.96 37 73.92 37 112 C-35.93 112 -108.86 112 -184 112 C-184 75.37 -184 38.74 -184 1 C-171.79 1 -159.58 1 -147 1 C-147 24.43 -147 47.86 -147 72 C-129.18 72 -111.36 72 -93 72 C-93 50.88 -93 29.76 -93 8 C-80.79 8 -68.58 8 -56 8 C-56 29.12 -56 50.24 -56 72 C-37.52 72 -19.04 72 0 72 C0 48.24 0 24.48 0 0 Z " fill="#000000" transform="translate(329,1653)"/>
<path d="M0 0 C12.21 0 24.42 0 37 0 C37 36.96 37 73.92 37 112 C-35.93 112 -108.86 112 -184 112 C-184 75.37 -184 38.74 -184 1 C-171.79 1 -159.58 1 -147 1 C-147 24.43 -147 47.86 -147 72 C-129.18 72 -111.36 72 -93 72 C-93 50.88 -93 29.76 -93 8 C-80.79 8 -68.58 8 -56 8 C-56 29.12 -56 50.24 -56 72 C-37.52 72 -19.04 72 0 72 C0 48.24 0 24.48 0 0 Z " fill="#000000" transform="translate(329,1212)"/>
<path d="M0 0 C12.21 0 24.42 0 37 0 C37 17.16 37 34.32 37 52 C97.72 52 158.44 52 221 52 C221 65.53 221 79.06 221 93 C160.28 92.67 99.56 92.34 37 92 C37 109.49 37 126.98 37 145 C24.79 145 12.58 145 0 145 C0 97.15 0 49.3 0 0 Z " fill="#000000" transform="translate(145,5266)"/>
<path d="M0 0 C12.21 0 24.42 0 37 0 C37 17.16 37 34.32 37 52 C97.72 52 158.44 52 221 52 C221 65.53 221 79.06 221 93 C160.28 92.67 99.56 92.34 37 92 C37 109.49 37 126.98 37 145 C24.79 145 12.58 145 0 145 C0 97.15 0 49.3 0 0 Z " fill="#000000" transform="translate(145,5111)"/>
<path d="M0 0 C12.21 0 24.42 0 37 0 C37 17.16 37 34.32 37 52 C97.72 52 158.44 52 221 52 C221 65.53 221 79.06 221 93 C160.28 92.67 99.56 92.34 37 92 C37 109.49 37 126.98 37 145 C24.79 145 12.58 145 0 145 C0 97.15 0 49.3 0 0 Z " fill="#000000" transform="translate(145,3381)"/>
<path d="M0 0 C12.21 0 24.42 0 37 0 C37 17.16 37 34.32 37 52 C97.72 52 158.44 52 221 52 C221 65.53 221 79.06 221 93 C160.28 92.67 99.56 92.34 37 92 C37 109.49 37 126.98 37 145 C24.79 145 12.58 145 0 145 C0 97.15 0 49.3 0 0 Z " fill="#000000" transform="translate(145,3226)"/>
<path d="M0 0 C12.21 0 24.42 0 37 0 C37 17.16 37 34.32 37 52 C97.72 52 158.44 52 221 52 C221 65.53 221 79.06 221 93 C160.28 92.67 99.56 92.34 37 92 C37 109.49 37 126.98 37 145 C24.79 145 12.58 145 0 145 C0 97.15 0 49.3 0 0 Z " fill="#000000" transform="translate(145,1496)"/>
<path d="M0 0 C12.21 0 24.42 0 37 0 C37 17.16 37 34.32 37 52 C97.72 52 158.44 52 221 52 C221 65.53 221 79.06 221 93 C160.28 92.67 99.56 92.34 37 92 C37 109.49 37 126.98 37 145 C24.79 145 12.58 145 0 145 C0 97.15 0 49.3 0 0 Z " fill="#000000" transform="translate(145,1341)"/>
</svg>
