<?xml version="1.0" encoding="utf-8"?>
<!-- Generator: Adobe Illustrator 22.0.1, SVG Export Plug-In . SVG Version: 6.00 Build 0)  -->
<svg version="1.1" id="Layer_1" xmlns="http://www.w3.org/2000/svg" xmlns:xlink="http://www.w3.org/1999/xlink" x="0px" y="0px"
	 viewBox="0 0 102.1 1160" style="enable-background:new 0 0 102.1 1160;" xml:space="preserve">
<style type="text/css">
	.st0{fill:#010101;}
</style>
<title>inn_graph_lateral</title>
<polygon class="st0" points="29.2,57.1 34.2,59.4 42.7,59.4 49.8,56.4 54.5,49.6 58.9,33.7 61,30.7 61.8,30.2 64,29.8 66.6,30.5 
	68.5,32.4 69.6,35.9 69.6,41.1 68,47.1 64.2,53.4 74.1,59.7 78.8,52.1 81.2,42.6 81.2,33.9 78.6,25.9 72.6,20.1 64.9,17.7 
	57.6,18.9 52.6,22 48,28.5 43.8,44.1 42.3,46.6 40.2,47.7 36.9,47.7 35.6,47 34.2,45.9 32.5,41.4 32.5,35.8 34.3,29.8 35.9,27.3 
	39.8,24.3 31.6,15.8 27.2,19.4 23.6,24.6 20.8,33.6 20.8,43.4 24.3,52.7 "/>
<path class="st0" d="M80.6,66.9H21.4v28.3l3.5,7.4l5.7,4.7l8.6,2l8.5-1.9l4.9-3.3l3.7,2.5l7.1,1.8l8.6-1.9l6.6-6l2.2-8.1V66.9H80.6z
	 M69,78.6V91l-0.9,3l-1.8,1.6l-2.9,0.6l-2.3-0.6l-0.7-0.5l-1.8-2.7v-14L69,78.6z M46.9,78.6v13.8l-1.7,2.8L43,96.4l-3.8,0.9L36,96.5
	L34.3,95l-1.2-2.6V78.6H46.9z"/>
<path class="st0" d="M21.4,146.6v12.9l25-11.1l1.5,2.8l6.4,4.3l8.6,2.4l9-2.6l6.6-6.6l2.1-8.1v-25.4H21.4v11.7h22.4v9.9L21.4,146.6z
	 M69,126.9v12.3l-1,3.4l-2.2,2.2l-3.1,0.9l-3.3-0.9l-2.3-1.5l-1.6-3.3v-13.1L69,126.9z"/>
<polygon class="st0" points="32.7,203.1 39.1,205.1 80.6,205.1 80.6,193.3 40.8,193.3 38,192.5 34.2,189.6 32.5,184.9 32.5,181.4 
	34.4,176.5 38,173.7 40.8,172.9 80.6,172.9 80.6,161.1 39.1,161.1 32.7,163.1 24.7,169.3 20.8,179.2 20.8,187 24.7,196.9 "/>
<polygon class="st0" points="27.3,251.4 33,256.2 40.9,247.8 36,243.5 34.5,241.6 32.5,236.8 32.5,231.9 34.6,227.5 37.6,224.6 
	41.9,222.4 46.3,221.4 55.8,221.4 60.3,222.4 64.6,224.6 67.6,227.6 69.6,231.9 69.6,236.8 67.5,241.6 66,243.4 61.1,247.8 
	69.1,256.2 74.7,251.4 77.8,247.4 81.2,238.7 81.2,229.7 77.3,220.8 71.6,214.9 64.1,211.2 56.9,209.7 45.2,209.7 38.1,211.2 
	30.7,214.9 24.8,220.6 20.8,229.7 20.8,238.7 24.3,247.4 "/>
<polygon class="st0" points="21.4,308.2 55.6,285 80.6,308.6 80.6,292.2 59.3,272.4 80.6,272.4 80.6,260.6 21.4,260.6 21.4,272.4 
	42.4,272.4 47,276.8 21.4,293.8 "/>
<polygon class="st0" points="80.6,358.7 69,358.7 69,370.7 33.1,370.7 33.1,358.3 21.4,358.3 21.4,394.8 33.1,394.8 33.1,382.4 
	69,382.4 69,394.4 80.6,394.4 "/>
<polygon class="st0" points="21.4,446.9 80.6,446.9 80.6,435.2 43.7,435.2 80.6,413.8 80.6,402.9 21.4,402.9 21.4,414.6 56.6,414.6 
	21.4,435.1 "/>
<polygon class="st0" points="80.6,449.9 69,449.9 69,467.2 21.4,467.2 21.4,478.9 69,478.9 69,496.5 80.6,496.5 "/>
<polygon class="st0" points="80.6,543.1 80.6,503.2 21.4,503.2 21.4,543.1 33.1,543.1 33.1,514.9 46.9,514.9 46.9,534.6 58.6,534.6 
	58.6,514.9 69,514.9 69,543.1 "/>
<path class="st0" d="M21.4,581.8v12.9l25-11.1l1.5,2.8l6.4,4.3l8.6,2.4l9-2.6l6.6-6.6l2.1-8.1v-25.4H21.4v11.7h22.4v9.9L21.4,581.8z
	 M69,562.1v12.3l-1,3.4l-2.2,2.2l-3.1,0.9l-3.3-1l-2.3-1.5l-1.6-3.3v-13L69,562.1L69,562.1z"/>
<polygon class="st0" points="21.4,640.3 80.6,640.3 80.6,628.6 43.7,628.6 80.6,607.2 80.6,596.3 21.4,596.3 21.4,608.1 56.6,608.1 
	21.4,628.5 "/>
<path class="st0" d="M21.4,680.2v12.5L80.6,671v-8.8l-59.2-21.6v12.5l16.2,5.7v15.5L21.4,680.2z M49.2,670.4v-7.5l10.9,3.7
	L49.2,670.4z"/>
<polygon class="st0" points="80.6,691.7 69,691.7 69,709 21.4,709 21.4,720.7 69,720.7 69,738.3 80.6,738.3 "/>
<polygon class="st0" points="80.6,781.2 80.6,745.5 69,745.5 69,757.5 33.1,757.5 33.1,745.1 21.4,745.1 21.4,781.6 33.1,781.6 
	33.1,769.2 69,769.2 69,781.2 "/>
<path class="st0" d="M24.2,824.4l5.9,5.9l7.6,3.8l7.3,1.6h12.5l7.4-1.7l7.4-3.8l5.7-6.1l3.1-8.5V808l-3.1-8.5l-5.8-6.1l-7.4-3.8
	l-7.4-1.7H45l-7.3,1.6l-7.6,3.8l-5.9,5.9l-3.3,8.7v7.8L24.2,824.4z M32.5,813.4V810l1.6-4.4l2.6-2.7l4.5-2.3l5-1.1h10.1l4.4,1
	l4.8,2.4l2.5,2.8l1.5,4.3v3.5l-1.5,4.2l-2.5,2.8l-4.8,2.4l-4.4,1h-10l-5-1.1l-4.5-2.3l-2.6-2.7L32.5,813.4z"/>
<polygon class="st0" points="21.4,849.8 56.6,849.8 21.4,870.3 21.4,882.1 80.6,882.1 80.6,870.4 43.7,870.4 80.6,849 80.6,838.1 
	21.4,838.1 "/>
<path class="st0" d="M21.4,895l16.2,5.7v15.5l-16.2,5.7v12.5l59.2-21.5V904l-59.2-21.6L21.4,895z M49.2,912.2v-7.5l10.9,3.7
	L49.2,912.2z"/>
<polygon class="st0" points="21.4,979.7 33.1,979.7 33.1,950.4 80.6,950.4 80.6,938.7 21.4,938.7 "/>
<polygon class="st0" points="33.1,1058.8 69,1058.8 69,1070.8 80.6,1070.8 80.6,1035.1 69,1035.1 69,1047.1 33.1,1047.1 
	33.1,1034.7 21.4,1034.7 21.4,1071.2 33.1,1071.2 "/>
<polygon class="st0" points="80.6,1111.7 43.7,1111.7 80.6,1090.2 80.6,1079.4 21.4,1079.4 21.4,1091.1 56.6,1091.1 21.4,1111.6 
	21.4,1123.4 80.6,1123.4 "/>
<polygon class="st0" points="80.6,1160 43.7,1160 80.6,1138.6 80.6,1127.7 21.4,1127.7 21.4,1139.4 56.6,1139.4 21.4,1159.9 
	21.4,1171.7 80.6,1171.7 "/>
<polygon class="st0" points="29.2,1217.1 34.2,1219.4 42.7,1219.4 49.8,1216.4 54.5,1209.6 58.9,1193.7 61,1190.7 61.8,1190.2 
	64,1189.8 66.6,1190.5 68.5,1192.4 69.6,1195.9 69.6,1201.1 68,1207.1 64.2,1213.4 74.1,1219.7 78.8,1212.1 81.2,1202.6 
	81.2,1193.9 78.6,1185.9 72.6,1180.1 64.9,1177.7 57.6,1178.9 52.6,1182 48,1188.5 43.8,1204.1 42.3,1206.6 40.2,1207.7 
	36.9,1207.7 35.6,1207 34.2,1205.9 32.5,1201.3 32.5,1195.8 34.3,1189.8 35.9,1187.3 39.8,1184.3 31.6,1175.8 27.2,1179.4 
	23.6,1184.6 20.8,1193.6 20.8,1203.4 24.3,1212.7 "/>
<path class="st0" d="M80.6,1226.9H21.4v28.3l3.5,7.4l5.7,4.7l8.6,2l8.5-1.9l4.9-3.3l3.7,2.5l7.1,1.8l8.6-1.9l6.6-6l2.2-8.1v-25.5
	H80.6z M69,1238.6v12.5l-0.9,3l-1.8,1.6l-2.9,0.6l-2.3-0.6l-0.7-0.5l-1.8-2.7v-14L69,1238.6z M46.9,1238.6v13.8l-1.7,2.8l-2.2,1.3
	l-3.8,0.9l-3.3-0.8l-1.7-1.4l-1.2-2.6v-13.8L46.9,1238.6z"/>
<path class="st0" d="M21.4,1306.6v12.9l25-11.1l1.5,2.8l6.4,4.3l8.6,2.4l9-2.6l6.6-6.6l2.1-8.1v-25.4H21.4v11.7h22.4v9.9
	L21.4,1306.6z M69,1286.9v12.3l-1,3.4l-2.2,2.2l-3.1,0.9l-3.3-1l-2.3-1.5l-1.6-3.3v-13H69z"/>
<polygon class="st0" points="32.7,1363.1 39.1,1365 80.6,1365.1 80.6,1353.3 40.8,1353.3 38,1352.5 34.2,1349.6 32.5,1344.9 
	32.5,1341.4 34.4,1336.5 38,1333.7 40.8,1332.9 80.6,1332.9 80.6,1321.2 39.1,1321.2 32.7,1323.1 24.7,1329.3 20.8,1339.2 
	20.8,1347 24.7,1356.9 "/>
<polygon class="st0" points="27.3,1411.4 33,1416.2 40.9,1407.8 36,1403.5 34.5,1401.6 32.5,1396.8 32.5,1391.9 34.6,1387.5 
	37.6,1384.6 41.9,1382.4 46.3,1381.4 55.8,1381.4 60.3,1382.4 64.6,1384.6 67.6,1387.6 69.6,1391.9 69.6,1396.8 67.5,1401.6 
	66,1403.4 61.1,1407.8 69.1,1416.2 74.7,1411.4 77.8,1407.4 81.2,1398.7 81.2,1389.7 77.3,1380.8 71.6,1374.9 64.1,1371.2 
	56.9,1369.7 45.2,1369.7 38.1,1371.2 30.7,1374.9 24.8,1380.6 20.8,1389.7 20.8,1398.7 24.3,1407.4 "/>
<polygon class="st0" points="21.4,1468.2 55.6,1445 80.6,1468.6 80.6,1452.2 59.3,1432.4 80.6,1432.4 80.6,1420.7 21.4,1420.7 
	21.4,1432.4 42.4,1432.4 47,1436.8 21.4,1453.8 "/>
<polygon class="st0" points="80.6,1518.7 69,1518.7 69,1530.7 33.1,1530.7 33.1,1518.3 21.4,1518.3 21.4,1554.8 33.1,1554.8 
	33.1,1542.4 69,1542.4 69,1554.4 80.6,1554.4 "/>
<polygon class="st0" points="21.4,1606.9 80.6,1606.9 80.6,1595.2 43.7,1595.2 80.6,1573.8 80.6,1562.9 21.4,1562.9 21.4,1574.6 
	56.6,1574.6 21.4,1595.1 "/>
<polygon class="st0" points="80.6,1609.9 69,1609.9 69,1627.2 21.4,1627.2 21.4,1638.9 69,1638.9 69,1656.5 80.6,1656.5 "/>
<polygon class="st0" points="80.6,1703.1 80.6,1663.2 21.4,1663.2 21.4,1703.1 33.1,1703.1 33.1,1674.9 46.9,1674.9 46.9,1694.6 
	58.6,1694.6 58.6,1674.9 69,1674.9 69,1703.1 "/>
<path class="st0" d="M21.4,1741.8v12.9l25-11.1l1.5,2.8l6.4,4.3l8.6,2.4l9-2.6l6.6-6.6l2.1-8.1v-25.4H21.4v11.7h22.4v9.9
	L21.4,1741.8z M69,1722.1v12.3l-1,3.4l-2.2,2.2l-3.1,0.9l-3.3-1l-2.3-1.5l-1.6-3.3v-13H69z"/>
<polygon class="st0" points="21.4,1800.3 80.6,1800.3 80.6,1788.6 43.7,1788.6 80.6,1767.2 80.6,1756.3 21.4,1756.3 21.4,1768 
	56.6,1768.1 21.4,1788.5 "/>
<path class="st0" d="M21.4,1840.2v12.5l59.2-21.6v-8.8l-59.2-21.6v12.5l16.2,5.7v15.5L21.4,1840.2z M49.2,1830.4v-7.5l10.9,3.7
	L49.2,1830.4z"/>
<polygon class="st0" points="80.6,1851.7 69,1851.7 69,1869 21.4,1869 21.4,1880.7 69,1880.7 69,1898.3 80.6,1898.3 "/>
<polygon class="st0" points="80.6,1941.2 80.6,1905.5 69,1905.5 69,1917.5 33.1,1917.5 33.1,1905.1 21.4,1905.1 21.4,1941.6 
	33.1,1941.6 33.1,1929.2 69,1929.2 69,1941.2 "/>
<path class="st0" d="M24.2,1984.4l5.9,5.8l7.6,3.8l7.3,1.6h12.5l7.4-1.7l7.4-3.8l5.7-6.1l3.1-8.5v-7.5l-3.1-8.6l-5.8-6.1l-7.4-3.8
	l-7.4-1.7H45l-7.3,1.6l-7.6,3.8l-5.9,5.9l-3.3,8.7v7.8L24.2,1984.4z M32.5,1973.4v-3.4l1.6-4.4l2.6-2.7l4.5-2.3l5-1.1h10.1l4.4,1
	l4.8,2.4l2.5,2.8l1.5,4.3v3.5l-1.5,4.2l-2.5,2.8l-4.8,2.4l-4.4,1h-10l-5-1.1l-4.5-2.3l-2.7-2.7L32.5,1973.4z"/>
<polygon class="st0" points="21.4,2009.8 56.6,2009.8 21.4,2030.3 21.4,2042.1 80.6,2042.1 80.6,2030.4 43.7,2030.4 80.6,2009 
	80.6,1998.1 21.4,1998.1 "/>
<path class="st0" d="M21.4,2054.9l16.2,5.7v15.5l-16.2,5.7v12.5l59.2-21.5v-8.8l-59.2-21.6L21.4,2054.9z M49.2,2072.2v-7.5l10.9,3.7
	L49.2,2072.2z"/>
<polygon class="st0" points="21.4,2139.7 33.1,2139.7 33.1,2110.4 80.6,2110.4 80.6,2098.7 21.4,2098.7 "/>
<polygon class="st0" points="33.1,2218.8 69,2218.8 69,2230.9 80.6,2230.9 80.6,2195.1 69,2195.1 69,2207.1 33.1,2207.1 
	33.1,2194.7 21.4,2194.7 21.4,2231.2 33.1,2231.2 "/>
<polygon class="st0" points="80.6,2271.6 43.7,2271.6 80.6,2250.2 80.6,2239.4 21.4,2239.4 21.4,2251.1 56.6,2251.1 21.4,2271.6 
	21.4,2283.4 80.6,2283.4 "/>
<polygon class="st0" points="21.4,0 21.4,11.7 80.6,11.7 80.6,0 43.7,0 "/>
<polygon class="st0" points="21.4,2320 43.7,2320 80.6,2298.6 80.6,2287.7 21.4,2287.7 21.4,2299.4 56.6,2299.4 21.4,2319.9 "/>
<polygon class="st0" points="29.2,2377.1 34.2,2379.4 42.7,2379.4 49.8,2376.4 54.5,2369.6 58.9,2353.7 61,2350.7 61.8,2350.2 
	64,2349.8 66.6,2350.5 68.5,2352.4 69.6,2355.9 69.6,2361.1 68,2367.1 64.2,2373.4 74.1,2379.7 78.8,2372.1 81.2,2362.6 
	81.2,2353.9 78.6,2345.9 72.6,2340.1 64.9,2337.7 57.6,2338.9 52.6,2342 48,2348.5 43.8,2364.1 42.3,2366.6 40.2,2367.7 
	36.9,2367.7 35.6,2367 34.2,2365.9 32.5,2361.4 32.5,2355.8 34.3,2349.8 35.9,2347.3 39.8,2344.3 31.6,2335.8 27.2,2339.4 
	23.6,2344.6 20.8,2353.6 20.8,2363.4 24.3,2372.7 "/>
<path class="st0" d="M80.6,2386.9H21.4v28.3l3.5,7.4l5.7,4.7l8.6,2l8.5-1.9l4.9-3.3l3.7,2.5l7.1,1.8l8.6-1.9l6.6-6l2.2-8.1v-25.5
	H80.6z M69,2398.6v12.4l-0.9,3l-1.8,1.6l-2.9,0.6l-2.3-0.6l-0.7-0.5l-1.8-2.7v-14L69,2398.6z M46.9,2398.6v13.8l-1.7,2.8l-2.2,1.2
	l-3.8,0.9l-3.2-0.8l-1.7-1.5l-1.2-2.6v-13.8L46.9,2398.6L46.9,2398.6z"/>
<path class="st0" d="M21.4,2466.6v12.9l25-11.1l1.5,2.8l6.4,4.3l8.6,2.4l9-2.6l6.6-6.6l2.1-8.1v-25.4H21.4v11.7h22.4v9.9
	L21.4,2466.6z M69,2446.9v12.3l-1,3.4l-2.2,2.2l-3.1,0.9l-3.3-0.9l-2.3-1.5l-1.6-3.3v-13.1L69,2446.9L69,2446.9z"/>
<polygon class="st0" points="32.7,2523.1 39.1,2525.1 80.6,2525.1 80.6,2513.3 40.8,2513.3 38,2512.5 34.2,2509.6 32.5,2504.9 
	32.5,2501.4 34.4,2496.5 38,2493.7 40.8,2492.9 80.6,2492.9 80.6,2481.1 39.1,2481.1 32.7,2483.1 24.7,2489.3 20.8,2499.2 
	20.8,2507 24.7,2516.9 "/>
<polygon class="st0" points="27.3,2571.4 33,2576.2 40.9,2567.8 36,2563.5 34.5,2561.6 32.5,2556.8 32.5,2551.9 34.6,2547.5 
	37.6,2544.6 41.9,2542.4 46.3,2541.4 55.8,2541.4 60.3,2542.4 64.6,2544.6 67.6,2547.6 69.6,2551.9 69.6,2556.8 67.5,2561.6 
	66,2563.4 61.1,2567.8 69.1,2576.2 74.7,2571.4 77.8,2567.4 81.2,2558.7 81.2,2549.7 77.3,2540.8 71.6,2534.9 64.1,2531.2 
	56.9,2529.7 45.2,2529.7 38.1,2531.2 30.7,2534.9 24.8,2540.6 20.8,2549.7 20.8,2558.7 24.3,2567.4 "/>
<polygon class="st0" points="21.4,2628.2 55.6,2605 80.6,2628.6 80.6,2612.2 59.3,2592.4 80.6,2592.4 80.6,2580.6 21.4,2580.6 
	21.4,2592.4 42.4,2592.4 47,2596.8 21.4,2613.8 "/>
<polygon class="st0" points="80.6,2678.7 69,2678.7 69,2690.7 33.1,2690.7 33.1,2678.3 21.4,2678.3 21.4,2714.8 33.1,2714.8 
	33.1,2702.4 69,2702.4 69,2714.4 80.6,2714.4 "/>
<polygon class="st0" points="21.4,2766.9 80.6,2766.9 80.6,2755.2 43.7,2755.2 80.6,2733.8 80.6,2722.9 21.4,2722.9 21.4,2734.6 
	56.6,2734.6 21.4,2755.1 "/>
<polygon class="st0" points="80.6,2769.9 69,2769.9 69,2787.2 21.4,2787.2 21.4,2798.9 69,2798.9 69,2816.5 80.6,2816.5 "/>
<polygon class="st0" points="80.6,2863.1 80.6,2823.2 21.4,2823.2 21.4,2863.1 33.1,2863.1 33.1,2834.9 46.9,2834.9 46.9,2854.6 
	58.6,2854.6 58.6,2834.9 69,2834.9 69,2863.1 "/>
<path class="st0" d="M21.4,2901.8v12.9l25-11.1l1.5,2.8l6.4,4.3l8.6,2.4l9-2.6l6.6-6.6l2.1-8.1v-25.4H21.4v11.7h22.4v9.9
	L21.4,2901.8z M69,2882.1v12.3l-1,3.4l-2.2,2.2l-3.1,0.9l-3.3-1l-2.3-1.5l-1.6-3.3v-13L69,2882.1L69,2882.1z"/>
<polygon class="st0" points="21.4,2960.3 80.6,2960.3 80.6,2948.6 43.7,2948.6 80.6,2927.2 80.6,2916.3 21.4,2916.3 21.4,2928.1 
	56.6,2928.1 21.4,2948.5 "/>
<path class="st0" d="M21.4,3000.2v12.5l59.2-21.7v-8.8l-59.2-21.6v12.5l16.2,5.7v15.5L21.4,3000.2z M49.2,2990.4v-7.5l10.9,3.7
	L49.2,2990.4z"/>
<polygon class="st0" points="80.6,3011.7 69,3011.7 69,3029 21.4,3029 21.4,3040.7 69,3040.7 69,3058.3 80.6,3058.3 "/>
<polygon class="st0" points="80.6,3101.2 80.6,3065.5 69,3065.5 69,3077.5 33.1,3077.5 33.1,3065.1 21.4,3065.1 21.4,3101.6 
	33.1,3101.6 33.1,3089.2 69,3089.2 69,3101.2 "/>
<path class="st0" d="M24.2,3144.4l5.9,5.9l7.6,3.8l7.3,1.6h12.5l7.4-1.7l7.4-3.8l5.7-6.1l3.1-8.5v-7.6l-3.1-8.5l-5.8-6.1l-7.4-3.8
	l-7.4-1.7H45l-7.3,1.6l-7.6,3.8l-5.9,5.9l-3.3,8.7v7.8L24.2,3144.4z M32.5,3133.4v-3.4l1.6-4.4l2.6-2.7l4.5-2.3l5-1.1h10.1l4.4,1
	l4.8,2.4l2.5,2.8l1.5,4.3v3.5l-1.5,4.2l-2.5,2.8l-4.8,2.4l-4.4,1h-10l-5-1.1l-4.5-2.3l-2.6-2.7L32.5,3133.4z"/>
<polygon class="st0" points="21.4,3169.8 56.6,3169.8 21.4,3190.3 21.4,3202.1 80.6,3202.1 80.6,3190.4 43.7,3190.4 80.6,3169 
	80.6,3158.1 21.4,3158.1 "/>
<path class="st0" d="M21.4,3215l16.2,5.7v15.5l-16.2,5.7v12.5l59.2-21.5v-8.9l-59.2-21.6L21.4,3215z M49.2,3232.2v-7.5l10.9,3.7
	L49.2,3232.2z"/>
<polygon class="st0" points="21.4,3299.7 33.1,3299.7 33.1,3270.4 80.6,3270.4 80.6,3258.7 21.4,3258.7 "/>
<polygon class="st0" points="33.1,3378.8 69,3378.8 69,3390.8 80.6,3390.8 80.6,3355.1 69,3355.1 69,3367.1 33.1,3367.1 
	33.1,3354.7 21.4,3354.7 21.4,3391.2 33.1,3391.2 "/>
<polygon class="st0" points="80.6,3431.7 43.7,3431.7 80.6,3410.2 80.6,3399.4 21.4,3399.4 21.4,3411.1 56.6,3411.1 21.4,3431.6 
	21.4,3443.4 80.6,3443.4 "/>
<polygon class="st0" points="80.6,3480 43.7,3480 80.6,3458.6 80.6,3447.7 21.4,3447.7 21.4,3459.4 56.6,3459.4 21.4,3479.9 
	21.4,3491.7 80.6,3491.7 "/>
<polygon class="st0" points="29.2,3537.1 34.2,3539.4 42.7,3539.4 49.8,3536.4 54.5,3529.6 58.9,3513.7 61,3510.7 61.8,3510.2 
	64,3509.8 66.6,3510.5 68.5,3512.4 69.6,3515.9 69.6,3521.1 68,3527.1 64.2,3533.4 74.1,3539.7 78.8,3532.1 81.2,3522.6 
	81.2,3513.9 78.6,3505.9 72.6,3500.1 64.9,3497.7 57.6,3498.9 52.6,3502 48,3508.5 43.8,3524.1 42.3,3526.6 40.2,3527.7 
	36.9,3527.7 35.6,3527 34.2,3525.9 32.5,3521.3 32.5,3515.8 34.3,3509.8 35.9,3507.3 39.8,3504.3 31.6,3495.8 27.2,3499.4 
	23.6,3504.6 20.8,3513.6 20.8,3523.4 24.3,3532.7 "/>
<path class="st0" d="M80.6,3546.9H21.4v28.3l3.5,7.4l5.7,4.7l8.6,2l8.5-1.9l4.9-3.3l3.7,2.5l7.1,1.8l8.6-1.9l6.6-6l2.2-8.1v-25.5
	H80.6z M69,3558.6v12.5l-0.9,3l-1.8,1.6l-2.9,0.6l-2.3-0.6l-0.7-0.5l-1.8-2.7v-14L69,3558.6z M46.9,3558.6v13.8l-1.7,2.8l-2.2,1.3
	l-3.8,0.9l-3.3-0.8l-1.7-1.4l-1.2-2.6v-13.8L46.9,3558.6z"/>
<path class="st0" d="M21.4,3626.6v12.9l25-11.1l1.5,2.8l6.4,4.3l8.6,2.4l9-2.6l6.6-6.6l2.1-8.1v-25.4H21.4v11.7h22.4v9.9
	L21.4,3626.6z M69,3606.9v12.3l-1,3.4l-2.2,2.2l-3.1,0.9l-3.3-1l-2.3-1.5l-1.6-3.3v-13L69,3606.9L69,3606.9z"/>
<polygon class="st0" points="32.7,3683.1 39.1,3685 80.6,3685.1 80.6,3673.3 40.8,3673.3 38,3672.5 34.2,3669.6 32.5,3664.9 
	32.5,3661.4 34.4,3656.5 38,3653.7 40.8,3652.9 80.6,3652.9 80.6,3641.2 39.1,3641.2 32.7,3643.1 24.7,3649.3 20.8,3659.2 
	20.8,3667 24.7,3676.9 "/>
<polygon class="st0" points="27.3,3731.4 33,3736.2 40.9,3727.8 36,3723.5 34.5,3721.6 32.5,3716.8 32.5,3711.9 34.6,3707.5 
	37.6,3704.6 41.9,3702.4 46.3,3701.4 55.8,3701.4 60.3,3702.4 64.6,3704.6 67.6,3707.6 69.6,3711.9 69.6,3716.8 67.5,3721.6 
	66,3723.4 61.1,3727.8 69.1,3736.2 74.7,3731.4 77.8,3727.4 81.2,3718.7 81.2,3709.7 77.3,3700.8 71.6,3694.9 64.1,3691.2 
	56.9,3689.7 45.2,3689.7 38.1,3691.2 30.7,3694.9 24.8,3700.6 20.8,3709.7 20.8,3718.7 24.3,3727.4 "/>
<polygon class="st0" points="21.4,3788.2 55.6,3765 80.6,3788.6 80.6,3772.2 59.3,3752.4 80.6,3752.4 80.6,3740.7 21.4,3740.7 
	21.4,3752.4 42.4,3752.4 47,3756.8 21.4,3773.8 "/>
<polygon class="st0" points="80.6,3838.7 69,3838.7 69,3850.7 33.1,3850.7 33.1,3838.3 21.4,3838.3 21.4,3874.8 33.1,3874.8 
	33.1,3862.4 69,3862.4 69,3874.4 80.6,3874.4 "/>
<polygon class="st0" points="21.4,3926.9 80.6,3926.9 80.6,3915.2 43.7,3915.2 80.6,3893.8 80.6,3882.9 21.4,3882.9 21.4,3894.6 
	56.6,3894.6 21.4,3915.1 "/>
<polygon class="st0" points="80.6,3929.9 69,3929.9 69,3947.2 21.4,3947.2 21.4,3958.9 69,3958.9 69,3976.5 80.6,3976.5 "/>
<polygon class="st0" points="80.6,4023.1 80.6,3983.2 21.4,3983.2 21.4,4023.1 33.1,4023.1 33.1,3994.9 46.9,3994.9 46.9,4014.6 
	58.6,4014.6 58.6,3994.9 69,3994.9 69,4023.1 "/>
<path class="st0" d="M21.4,4061.8v12.9l25-11.1l1.5,2.8l6.4,4.3l8.6,2.4l9-2.6l6.6-6.6l2.1-8.1v-25.4H21.4v11.7h22.4v9.9
	L21.4,4061.8z M69,4042.1v12.3l-1,3.4l-2.2,2.2l-3.1,0.9l-3.3-1l-2.3-1.5l-1.6-3.3v-13L69,4042.1L69,4042.1z"/>
<polygon class="st0" points="21.4,4120.3 80.6,4120.3 80.6,4108.6 43.7,4108.6 80.6,4087.2 80.6,4076.3 21.4,4076.3 21.4,4088 
	56.6,4088.1 21.4,4108.5 "/>
<path class="st0" d="M21.4,4160.2v12.5l59.2-21.6v-8.8l-59.2-21.6v12.5l16.2,5.7v15.5L21.4,4160.2z M49.2,4150.4v-7.5l10.9,3.7
	L49.2,4150.4z"/>
<polygon class="st0" points="80.6,4171.7 69,4171.7 69,4189 21.4,4189 21.4,4200.7 69,4200.7 69,4218.3 80.6,4218.3 "/>
<polygon class="st0" points="80.6,4261.2 80.6,4225.5 69,4225.5 69,4237.5 33.1,4237.5 33.1,4225.1 21.4,4225.1 21.4,4261.6 
	33.1,4261.6 33.1,4249.2 69,4249.2 69,4261.2 "/>
<path class="st0" d="M24.2,4304.4l5.9,5.8l7.6,3.8l7.3,1.6h12.5l7.4-1.7l7.4-3.8l5.7-6.1l3.1-8.5v-7.5l-3.1-8.6l-5.8-6.1l-7.4-3.8
	l-7.4-1.7H45l-7.3,1.6l-7.6,3.8l-5.9,5.9l-3.3,8.7v7.8L24.2,4304.4z M32.5,4293.4v-3.4l1.6-4.4l2.6-2.7l4.5-2.3l5-1.1h10.1l4.4,1
	l4.8,2.4l2.5,2.8l1.5,4.3v3.5l-1.5,4.2l-2.5,2.8l-4.8,2.4l-4.4,1h-10l-5-1.1l-4.5-2.3l-2.7-2.7L32.5,4293.4z"/>
<polygon class="st0" points="21.4,4329.8 56.6,4329.8 21.4,4350.3 21.4,4362.1 80.6,4362.1 80.6,4350.4 43.7,4350.4 80.6,4329 
	80.6,4318.1 21.4,4318.1 "/>
<path class="st0" d="M21.4,4374.9l16.2,5.7v15.5l-16.2,5.7v12.5l59.2-21.5v-8.8l-59.2-21.6L21.4,4374.9z M49.2,4392.2v-7.5l10.9,3.7
	L49.2,4392.2z"/>
<polygon class="st0" points="21.4,4459.7 33.1,4459.7 33.1,4430.4 80.6,4430.4 80.6,4418.7 21.4,4418.7 "/>
<polygon class="st0" points="33.1,4538.8 69,4538.8 69,4550.9 80.6,4550.9 80.6,4515.1 69,4515.1 69,4527.1 33.1,4527.1 
	33.1,4514.7 21.4,4514.7 21.4,4551.2 33.1,4551.2 "/>
<polygon class="st0" points="80.6,4591.6 43.7,4591.6 80.6,4570.2 80.6,4559.4 21.4,4559.4 21.4,4571.1 56.6,4571.1 21.4,4591.6 
	21.4,4603.4 80.6,4603.4 "/>
<polygon class="st0" points="21.4,2320 21.4,2331.7 80.6,2331.7 80.6,2320 43.7,2320 "/>
<polygon class="st0" points="21.4,4640 43.7,4640 80.6,4618.6 80.6,4607.7 21.4,4607.7 21.4,4619.4 56.6,4619.4 21.4,4639.9 "/>
<polygon class="st0" points="29.2,4697.1 34.2,4699.4 42.7,4699.4 49.8,4696.4 54.5,4689.6 58.9,4673.7 61,4670.7 61.8,4670.2 
	64,4669.8 66.6,4670.5 68.5,4672.4 69.6,4675.9 69.6,4681.1 68,4687.1 64.2,4693.4 74.1,4699.7 78.8,4692.1 81.2,4682.6 
	81.2,4673.9 78.6,4665.9 72.6,4660.1 64.9,4657.7 57.6,4658.9 52.6,4662 48,4668.5 43.8,4684.1 42.3,4686.6 40.2,4687.7 
	36.9,4687.7 35.6,4687 34.2,4685.9 32.5,4681.4 32.5,4675.8 34.3,4669.8 35.9,4667.3 39.8,4664.3 31.6,4655.8 27.2,4659.4 
	23.6,4664.6 20.8,4673.6 20.8,4683.4 24.3,4692.7 "/>
<path class="st0" d="M80.6,4706.9H21.4v28.3l3.5,7.4l5.7,4.7l8.6,2l8.5-1.9l4.9-3.3l3.7,2.5l7.1,1.8l8.6-1.9l6.6-6l2.2-8.1v-25.5
	H80.6z M69,4718.6v12.4l-0.9,3l-1.8,1.6l-2.9,0.6l-2.3-0.6l-0.7-0.5l-1.8-2.7v-14L69,4718.6z M46.9,4718.6v13.8l-1.7,2.8l-2.2,1.2
	l-3.8,0.9l-3.2-0.8l-1.7-1.5l-1.2-2.6v-13.8H46.9z"/>
<path class="st0" d="M21.4,4786.6v12.9l25-11.1l1.5,2.8l6.4,4.3l8.6,2.4l9-2.6l6.6-6.6l2.1-8.1v-25.4H21.4v11.7h22.4v9.9
	L21.4,4786.6z M69,4766.9v12.3l-1,3.4l-2.2,2.2l-3.1,0.9l-3.3-0.9l-2.3-1.5l-1.6-3.3v-13.1H69z"/>
<polygon class="st0" points="32.7,4843.1 39.1,4845.1 80.6,4845.1 80.6,4833.3 40.8,4833.3 38,4832.5 34.2,4829.6 32.5,4824.9 
	32.5,4821.4 34.4,4816.5 38,4813.7 40.8,4812.9 80.6,4812.9 80.6,4801.1 39.1,4801.1 32.7,4803.1 24.7,4809.3 20.8,4819.2 
	20.8,4827 24.7,4836.9 "/>
<polygon class="st0" points="27.3,4891.4 33,4896.2 40.9,4887.8 36,4883.5 34.5,4881.6 32.5,4876.8 32.5,4871.9 34.6,4867.5 
	37.6,4864.6 41.9,4862.4 46.3,4861.4 55.8,4861.4 60.3,4862.4 64.6,4864.6 67.6,4867.6 69.6,4871.9 69.6,4876.8 67.5,4881.6 
	66,4883.4 61.1,4887.8 69.1,4896.2 74.7,4891.4 77.8,4887.4 81.2,4878.7 81.2,4869.7 77.3,4860.8 71.6,4854.9 64.1,4851.2 
	56.9,4849.7 45.2,4849.7 38.1,4851.2 30.7,4854.9 24.8,4860.6 20.8,4869.7 20.8,4878.7 24.3,4887.4 "/>
<polygon class="st0" points="21.4,4948.2 55.6,4925 80.6,4948.6 80.6,4932.2 59.3,4912.4 80.6,4912.4 80.6,4900.6 21.4,4900.6 
	21.4,4912.4 42.4,4912.4 47,4916.8 21.4,4933.8 "/>
<polygon class="st0" points="80.6,4998.7 69,4998.7 69,5010.7 33.1,5010.7 33.1,4998.3 21.4,4998.3 21.4,5034.8 33.1,5034.8 
	33.1,5022.4 69,5022.4 69,5034.4 80.6,5034.4 "/>
<polygon class="st0" points="21.4,5086.9 80.6,5086.9 80.6,5075.2 43.7,5075.2 80.6,5053.8 80.6,5042.9 21.4,5042.9 21.4,5054.6 
	56.6,5054.6 21.4,5075.1 "/>
<polygon class="st0" points="80.6,5089.9 69,5089.9 69,5107.2 21.4,5107.2 21.4,5118.9 69,5118.9 69,5136.5 80.6,5136.5 "/>
<polygon class="st0" points="80.6,5183.1 80.6,5143.2 21.4,5143.2 21.4,5183.1 33.1,5183.1 33.1,5154.9 46.9,5154.9 46.9,5174.6 
	58.6,5174.6 58.6,5154.9 69,5154.9 69,5183.1 "/>
<path class="st0" d="M21.4,5221.8v12.9l25-11.1l1.5,2.8l6.4,4.3l8.6,2.4l9-2.6l6.6-6.6l2.1-8.1v-25.4H21.4v11.7h22.4v9.9
	L21.4,5221.8z M69,5202.1v12.3l-1,3.4l-2.2,2.2l-3.1,0.9l-3.3-1l-2.3-1.5l-1.6-3.3v-13H69L69,5202.1z"/>
<polygon class="st0" points="21.4,5280.3 80.6,5280.3 80.6,5268.6 43.7,5268.6 80.6,5247.2 80.6,5236.3 21.4,5236.3 21.4,5248.1 
	56.6,5248.1 21.4,5268.5 "/>
<path class="st0" d="M21.4,5320.2v12.5l59.2-21.7v-8.8l-59.2-21.6v12.5l16.2,5.7v15.5L21.4,5320.2z M49.2,5310.4v-7.5l10.9,3.7
	L49.2,5310.4z"/>
<polygon class="st0" points="80.6,5331.7 69,5331.7 69,5349 21.4,5349 21.4,5360.7 69,5360.7 69,5378.3 80.6,5378.3 "/>
<polygon class="st0" points="80.6,5421.2 80.6,5385.5 69,5385.5 69,5397.5 33.1,5397.5 33.1,5385.1 21.4,5385.1 21.4,5421.6 
	33.1,5421.6 33.1,5409.2 69,5409.2 69,5421.2 "/>
<path class="st0" d="M24.2,5464.4l5.9,5.9l7.6,3.8l7.3,1.6h12.5l7.4-1.7l7.4-3.8l5.7-6.1l3.1-8.5v-7.6l-3.1-8.5l-5.8-6.1l-7.4-3.8
	l-7.4-1.7H45l-7.3,1.6l-7.6,3.8l-5.9,5.9l-3.3,8.7v7.8L24.2,5464.4z M32.5,5453.4v-3.4l1.6-4.4l2.6-2.7l4.5-2.3l5-1.1h10.1l4.4,1
	l4.8,2.4l2.5,2.8l1.5,4.3v3.5l-1.5,4.2l-2.5,2.8l-4.8,2.4l-4.4,1h-10l-5-1.1l-4.5-2.3l-2.6-2.7L32.5,5453.4z"/>
<polygon class="st0" points="21.4,5489.8 56.6,5489.8 21.4,5510.3 21.4,5522.1 80.6,5522.1 80.6,5510.4 43.7,5510.4 80.6,5489 
	80.6,5478.1 21.4,5478.1 "/>
<path class="st0" d="M21.4,5535l16.2,5.7v15.5l-16.2,5.7v12.5l59.2-21.5v-8.9l-59.2-21.6L21.4,5535z M49.2,5552.2v-7.5l10.9,3.7
	L49.2,5552.2z"/>
<polygon class="st0" points="21.4,5619.7 33.1,5619.7 33.1,5590.4 80.6,5590.4 80.6,5578.7 21.4,5578.7 "/>
<polygon class="st0" points="33.1,5698.8 69,5698.8 69,5710.8 80.6,5710.8 80.6,5675.1 69,5675.1 69,5687.1 33.1,5687.1 
	33.1,5674.7 21.4,5674.7 21.4,5711.2 33.1,5711.2 "/>
<polygon class="st0" points="80.6,5751.7 43.7,5751.7 80.6,5730.2 80.6,5719.4 21.4,5719.4 21.4,5731.1 56.6,5731.1 21.4,5751.6 
	21.4,5763.4 80.6,5763.4 "/>
<polygon class="st0" points="80.6,5800 43.7,5800 80.6,5778.6 80.6,5767.7 21.4,5767.7 21.4,5779.4 56.6,5779.4 21.4,5799.9 
	21.4,5811.7 80.6,5811.7 "/>
<polygon class="st0" points="29.2,5857.1 34.2,5859.4 42.7,5859.4 49.8,5856.4 54.5,5849.6 58.9,5833.7 61,5830.7 61.8,5830.2 
	64,5829.8 66.6,5830.5 68.5,5832.4 69.6,5835.9 69.6,5841.1 68,5847.1 64.2,5853.4 74.1,5859.7 78.8,5852.1 81.2,5842.6 
	81.2,5833.9 78.6,5825.9 72.6,5820.1 64.9,5817.7 57.6,5818.9 52.6,5822 48,5828.5 43.8,5844.1 42.3,5846.6 40.2,5847.7 
	36.9,5847.7 35.6,5847 34.2,5845.9 32.5,5841.3 32.5,5835.8 34.3,5829.8 35.9,5827.3 39.8,5824.3 31.6,5815.8 27.2,5819.4 
	23.6,5824.6 20.8,5833.6 20.8,5843.4 24.3,5852.7 "/>
<path class="st0" d="M80.6,5866.9H21.4v28.3l3.5,7.4l5.7,4.7l8.6,2l8.5-1.9l4.9-3.3l3.7,2.5l7.1,1.8l8.6-1.9l6.6-6l2.2-8.1v-25.5
	H80.6z M69,5878.6v12.5l-0.9,3l-1.8,1.6l-2.9,0.6l-2.3-0.6l-0.7-0.5l-1.8-2.7v-14L69,5878.6z M46.9,5878.6v13.8l-1.7,2.8l-2.2,1.3
	l-3.8,0.9l-3.3-0.8l-1.7-1.4l-1.2-2.6v-13.8L46.9,5878.6z"/>
<path class="st0" d="M21.4,5946.6v12.9l25-11.1l1.5,2.8l6.4,4.3l8.6,2.4l9-2.6l6.6-6.6l2.1-8.1v-25.4H21.4v11.7h22.4v9.9
	L21.4,5946.6z M69,5926.9v12.3l-1,3.4l-2.2,2.2l-3.1,0.9l-3.3-1l-2.3-1.5l-1.6-3.3v-13H69z"/>
<polygon class="st0" points="32.7,6003.1 39.1,6005 80.6,6005.1 80.6,5993.3 40.8,5993.3 38,5992.5 34.2,5989.6 32.5,5984.9 
	32.5,5981.4 34.4,5976.5 38,5973.7 40.8,5972.9 80.6,5972.9 80.6,5961.2 39.1,5961.2 32.7,5963.1 24.7,5969.3 20.8,5979.2 
	20.8,5987 24.7,5996.9 "/>
<polygon class="st0" points="27.3,6051.4 33,6056.2 40.9,6047.8 36,6043.5 34.5,6041.6 32.5,6036.8 32.5,6031.9 34.6,6027.5 
	37.6,6024.6 41.9,6022.4 46.3,6021.4 55.8,6021.4 60.3,6022.4 64.6,6024.6 67.6,6027.6 69.6,6031.9 69.6,6036.8 67.5,6041.6 
	66,6043.4 61.1,6047.8 69.1,6056.2 74.7,6051.4 77.8,6047.4 81.2,6038.7 81.2,6029.7 77.3,6020.8 71.6,6014.9 64.1,6011.2 
	56.9,6009.7 45.2,6009.7 38.1,6011.2 30.7,6014.9 24.8,6020.6 20.8,6029.7 20.8,6038.7 24.3,6047.4 "/>
<polygon class="st0" points="21.4,6108.2 55.6,6085 80.6,6108.6 80.6,6092.2 59.3,6072.4 80.6,6072.4 80.6,6060.7 21.4,6060.7 
	21.4,6072.4 42.4,6072.4 47,6076.8 21.4,6093.8 "/>
<polygon class="st0" points="80.6,6158.7 69,6158.7 69,6170.7 33.1,6170.7 33.1,6158.3 21.4,6158.3 21.4,6194.8 33.1,6194.8 
	33.1,6182.4 69,6182.4 69,6194.4 80.6,6194.4 "/>
<polygon class="st0" points="21.4,6246.9 80.6,6246.9 80.6,6235.2 43.7,6235.2 80.6,6213.8 80.6,6202.9 21.4,6202.9 21.4,6214.6 
	56.6,6214.6 21.4,6235.1 "/>
<polygon class="st0" points="80.6,6249.9 69,6249.9 69,6267.2 21.4,6267.2 21.4,6278.9 69,6278.9 69,6296.5 80.6,6296.5 "/>
<polygon class="st0" points="80.6,6343.1 80.6,6303.2 21.4,6303.2 21.4,6343.1 33.1,6343.1 33.1,6314.9 46.9,6314.9 46.9,6334.6 
	58.6,6334.6 58.6,6314.9 69,6314.9 69,6343.1 "/>
<path class="st0" d="M21.4,6381.8v12.9l25-11.1l1.5,2.8l6.4,4.3l8.6,2.4l9-2.6l6.6-6.6l2.1-8.1v-25.4H21.4v11.7h22.4v9.9
	L21.4,6381.8z M69,6362.1v12.3l-1,3.4l-2.2,2.2l-3.1,0.9l-3.3-1l-2.3-1.5l-1.6-3.3v-13H69z"/>
<polygon class="st0" points="21.4,6440.3 80.6,6440.3 80.6,6428.6 43.7,6428.6 80.6,6407.2 80.6,6396.3 21.4,6396.3 21.4,6408 
	56.6,6408.1 21.4,6428.5 "/>
<path class="st0" d="M21.4,6480.2v12.5l59.2-21.6v-8.8l-59.2-21.6v12.5l16.2,5.7v15.5L21.4,6480.2z M49.2,6470.4v-7.5l10.9,3.7
	L49.2,6470.4z"/>
<polygon class="st0" points="80.6,6491.7 69,6491.7 69,6509 21.4,6509 21.4,6520.7 69,6520.7 69,6538.3 80.6,6538.3 "/>
<polygon class="st0" points="80.6,6581.2 80.6,6545.5 69,6545.5 69,6557.5 33.1,6557.5 33.1,6545.1 21.4,6545.1 21.4,6581.6 
	33.1,6581.6 33.1,6569.2 69,6569.2 69,6581.2 "/>
<path class="st0" d="M24.2,6624.4l5.9,5.8l7.6,3.8l7.3,1.6h12.5l7.4-1.7l7.4-3.8l5.7-6.1l3.1-8.5v-7.5l-3.1-8.6l-5.8-6.1l-7.4-3.8
	l-7.4-1.7H45l-7.3,1.6l-7.6,3.8l-5.9,5.9l-3.3,8.7v7.8L24.2,6624.4z M32.5,6613.4v-3.4l1.6-4.4l2.6-2.7l4.5-2.3l5-1.1h10.1l4.4,1
	l4.8,2.4l2.5,2.8l1.5,4.3v3.5l-1.5,4.2l-2.5,2.8l-4.8,2.4l-4.4,1h-10l-5-1.1l-4.5-2.3l-2.7-2.7L32.5,6613.4z"/>
<polygon class="st0" points="21.4,6649.8 56.6,6649.8 21.4,6670.3 21.4,6682.1 80.6,6682.1 80.6,6670.4 43.7,6670.4 80.6,6649 
	80.6,6638.1 21.4,6638.1 "/>
<path class="st0" d="M21.4,6694.9l16.2,5.7v15.5l-16.2,5.7v12.5l59.2-21.5v-8.8l-59.2-21.6L21.4,6694.9z M49.2,6712.2v-7.5l10.9,3.7
	L49.2,6712.2z"/>
<polygon class="st0" points="21.4,6779.7 33.1,6779.7 33.1,6750.4 80.6,6750.4 80.6,6738.7 21.4,6738.7 "/>
<polygon class="st0" points="33.1,6858.8 69,6858.8 69,6870.9 80.6,6870.9 80.6,6835.1 69,6835.1 69,6847.1 33.1,6847.1 
	33.1,6834.7 21.4,6834.7 21.4,6871.2 33.1,6871.2 "/>
<polygon class="st0" points="80.6,6911.6 43.7,6911.6 80.6,6890.2 80.6,6879.4 21.4,6879.4 21.4,6891.1 56.6,6891.1 21.4,6911.6 
	21.4,6923.4 80.6,6923.4 "/>
<polygon class="st0" points="21.4,4640 21.4,4651.7 80.6,4651.7 80.6,4640 43.7,4640 "/>
<polygon class="st0" points="21.4,6960 43.7,6960 80.6,6938.6 80.6,6927.7 21.4,6927.7 21.4,6939.4 56.6,6939.4 21.4,6959.9 "/>
<polygon class="st0" points="29.2,7017.1 34.2,7019.4 42.7,7019.4 49.8,7016.4 54.5,7009.6 58.9,6993.7 61,6990.7 61.8,6990.2 
	64,6989.8 66.6,6990.5 68.5,6992.4 69.6,6995.9 69.6,7001.1 68,7007.1 64.2,7013.4 74.1,7019.7 78.8,7012.1 81.2,7002.6 
	81.2,6993.9 78.6,6985.9 72.6,6980.1 64.9,6977.7 57.6,6978.9 52.6,6982 48,6988.5 43.8,7004.1 42.3,7006.6 40.2,7007.7 
	36.9,7007.7 35.6,7007 34.2,7005.9 32.5,7001.4 32.5,6995.8 34.3,6989.8 35.9,6987.3 39.8,6984.3 31.6,6975.8 27.2,6979.4 
	23.6,6984.6 20.8,6993.6 20.8,7003.4 24.3,7012.7 "/>
<path class="st0" d="M80.6,7026.9H21.4v28.3l3.5,7.4l5.7,4.7l8.6,2l8.5-1.9l4.9-3.3l3.7,2.5l7.1,1.8l8.6-1.9l6.6-6l2.2-8.1v-25.5
	H80.6z M69,7038.6v12.4l-0.9,3l-1.8,1.6l-2.9,0.6l-2.3-0.6l-0.7-0.5l-1.8-2.7v-14L69,7038.6z M46.9,7038.6v13.8l-1.7,2.8l-2.2,1.2
	l-3.8,0.9l-3.2-0.8l-1.7-1.5l-1.2-2.6v-13.8H46.9z"/>
<path class="st0" d="M21.4,7106.6v12.9l25-11.1l1.5,2.8l6.4,4.3l8.6,2.4l9-2.6l6.6-6.6l2.1-8.1v-25.4H21.4v11.7h22.4v9.9
	L21.4,7106.6z M69,7086.9v12.3l-1,3.4l-2.2,2.2l-3.1,0.9l-3.3-0.9l-2.3-1.5l-1.6-3.3v-13.1H69z"/>
<polygon class="st0" points="32.7,7163.1 39.1,7165.1 80.6,7165.1 80.6,7153.3 40.8,7153.3 38,7152.5 34.2,7149.6 32.5,7144.9 
	32.5,7141.4 34.4,7136.5 38,7133.7 40.8,7132.9 80.6,7132.9 80.6,7121.1 39.1,7121.1 32.7,7123.1 24.7,7129.3 20.8,7139.2 
	20.8,7147 24.7,7156.9 "/>
<polygon class="st0" points="27.3,7211.4 33,7216.2 40.9,7207.8 36,7203.5 34.5,7201.6 32.5,7196.8 32.5,7191.9 34.6,7187.5 
	37.6,7184.6 41.9,7182.4 46.3,7181.4 55.8,7181.4 60.3,7182.4 64.6,7184.6 67.6,7187.6 69.6,7191.9 69.6,7196.8 67.5,7201.6 
	66,7203.4 61.1,7207.8 69.1,7216.2 74.7,7211.4 77.8,7207.4 81.2,7198.7 81.2,7189.7 77.3,7180.8 71.6,7174.9 64.1,7171.2 
	56.9,7169.7 45.2,7169.7 38.1,7171.2 30.7,7174.9 24.8,7180.6 20.8,7189.7 20.8,7198.7 24.3,7207.4 "/>
<polygon class="st0" points="21.4,7268.2 55.6,7245 80.6,7268.6 80.6,7252.2 59.3,7232.4 80.6,7232.4 80.6,7220.6 21.4,7220.6 
	21.4,7232.4 42.4,7232.4 47,7236.8 21.4,7253.8 "/>
<polygon class="st0" points="80.6,7318.7 69,7318.7 69,7330.7 33.1,7330.7 33.1,7318.3 21.4,7318.3 21.4,7354.8 33.1,7354.8 
	33.1,7342.4 69,7342.4 69,7354.4 80.6,7354.4 "/>
<polygon class="st0" points="21.4,7406.9 80.6,7406.9 80.6,7395.2 43.7,7395.2 80.6,7373.8 80.6,7362.9 21.4,7362.9 21.4,7374.6 
	56.6,7374.6 21.4,7395.1 "/>
<polygon class="st0" points="80.6,7409.9 69,7409.9 69,7427.2 21.4,7427.2 21.4,7438.9 69,7438.9 69,7456.5 80.6,7456.5 "/>
<polygon class="st0" points="80.6,7503.1 80.6,7463.2 21.4,7463.2 21.4,7503.1 33.1,7503.1 33.1,7474.9 46.9,7474.9 46.9,7494.6 
	58.6,7494.6 58.6,7474.9 69,7474.9 69,7503.1 "/>
<path class="st0" d="M21.4,7541.8v12.9l25-11.1l1.5,2.8l6.4,4.3l8.6,2.4l9-2.6l6.6-6.6l2.1-8.1v-25.4H21.4v11.7h22.4v9.9
	L21.4,7541.8z M69,7522.1v12.3l-1,3.4l-2.2,2.2l-3.1,0.9l-3.3-1l-2.3-1.5l-1.6-3.3v-13H69L69,7522.1z"/>
<polygon class="st0" points="21.4,7600.3 80.6,7600.3 80.6,7588.6 43.7,7588.6 80.6,7567.2 80.6,7556.3 21.4,7556.3 21.4,7568.1 
	56.6,7568.1 21.4,7588.5 "/>
<path class="st0" d="M21.4,7640.2v12.5l59.2-21.7v-8.8l-59.2-21.6v12.5l16.2,5.7v15.5L21.4,7640.2z M49.2,7630.4v-7.5l10.9,3.7
	L49.2,7630.4z"/>
<polygon class="st0" points="80.6,7651.7 69,7651.7 69,7669 21.4,7669 21.4,7680.7 69,7680.7 69,7698.3 80.6,7698.3 "/>
<polygon class="st0" points="80.6,7741.2 80.6,7705.5 69,7705.5 69,7717.5 33.1,7717.5 33.1,7705.1 21.4,7705.1 21.4,7741.6 
	33.1,7741.6 33.1,7729.2 69,7729.2 69,7741.2 "/>
<path class="st0" d="M24.2,7784.4l5.9,5.9l7.6,3.8l7.3,1.6h12.5l7.4-1.7l7.4-3.8l5.7-6.1l3.1-8.5v-7.6l-3.1-8.5l-5.8-6.1l-7.4-3.8
	l-7.4-1.7H45l-7.3,1.6l-7.6,3.8l-5.9,5.9l-3.3,8.7v7.8L24.2,7784.4z M32.5,7773.4v-3.4l1.6-4.4l2.6-2.7l4.5-2.3l5-1.1h10.1l4.4,1
	l4.8,2.4l2.5,2.8l1.5,4.3v3.5l-1.5,4.2l-2.5,2.8l-4.8,2.4l-4.4,1h-10l-5-1.1l-4.5-2.3l-2.6-2.7L32.5,7773.4z"/>
<polygon class="st0" points="21.4,7809.8 56.6,7809.8 21.4,7830.3 21.4,7842.1 80.6,7842.1 80.6,7830.4 43.7,7830.4 80.6,7809 
	80.6,7798.1 21.4,7798.1 "/>
<path class="st0" d="M21.4,7855l16.2,5.7v15.5l-16.2,5.7v12.5l59.2-21.5v-8.9l-59.2-21.6L21.4,7855z M49.2,7872.2v-7.5l10.9,3.7
	L49.2,7872.2z"/>
<polygon class="st0" points="21.4,7939.7 33.1,7939.7 33.1,7910.4 80.6,7910.4 80.6,7898.7 21.4,7898.7 "/>
<polygon class="st0" points="33.1,8018.8 69,8018.8 69,8030.8 80.6,8030.8 80.6,7995.1 69,7995.1 69,8007.1 33.1,8007.1 
	33.1,7994.7 21.4,7994.7 21.4,8031.2 33.1,8031.2 "/>
<polygon class="st0" points="80.6,8071.7 43.7,8071.7 80.6,8050.2 80.6,8039.4 21.4,8039.4 21.4,8051.1 56.6,8051.1 21.4,8071.6 
	21.4,8083.4 80.6,8083.4 "/>
<polygon class="st0" points="21.4,6960 21.4,6971.7 80.6,6971.7 80.6,6960 43.7,6960 "/>
<polygon class="st0" points="21.4,8120 43.7,8120 80.6,8098.6 80.6,8087.7 21.4,8087.7 21.4,8099.4 56.6,8099.4 21.4,8119.9 "/>
</svg>
