<?xml version="1.0" encoding="UTF-8"?>
<svg version="1.1" xmlns="http://www.w3.org/2000/svg" width="512" height="5817">
<path d="M0 0 C72.93 0 145.86 0 221 0 C221 12.87 221 25.74 221 39 C176.95620895 60.52642923 176.95620895 60.52642923 165.13623047 66.10961914 C160.67796284 68.21931286 156.2466622 70.36949574 151.84654236 72.59846497 C136.29325904 80.47272464 121.01880289 86.86397134 104 91 C102.66652623 91.33277106 101.33317193 91.66602172 100 92 C104.82304894 93.90863193 109.52714959 95.45073925 114.57139587 96.64326477 C125.19383913 99.16835869 134.63388203 103.08461501 144.4375 107.8125 C146.84121462 108.94876013 149.24771335 110.07897236 151.65444946 111.20881653 C153.30043501 111.98179457 154.94559726 112.75652817 156.5899353 113.53300476 C164.56989335 117.29443613 172.62726755 120.87177086 180.70132446 124.42562866 C194.25037162 130.38988601 207.6773552 136.54053586 221 143 C221 155.54 221 168.08 221 181 C148.07 181 75.14 181 0 181 C0 167.8 0 154.6 0 141 C15.03207814 140.93171058 30.0640841 140.87669048 45.09627914 140.84456348 C52.07938017 140.82923558 59.06237648 140.80842372 66.04541016 140.77368164 C72.80820934 140.74005194 79.5709007 140.72305264 86.33377838 140.71536827 C88.88961732 140.7099055 91.44545165 140.69924388 94.00124359 140.68280983 C109.91137485 140.58475183 125.40587544 141.41436196 141.20269775 143.35404968 C145.51648778 143.87514645 149.65923425 144.1483306 154 144 C153.08750488 143.75056641 152.17500977 143.50113281 151.23486328 143.24414062 C129.90206837 137.34798072 110.18823945 129.94695761 90.37231445 120.11833191 C82.3409287 116.14642257 74.17207276 112.48359472 66 108.8125 C57.584882 105.0288614 49.21973106 101.19680499 41 97 C41 92.38 41 87.76 41 83 C50.49841781 77.81014285 60.09773656 72.9885437 69.87963867 68.35693359 C77.09252704 64.93396744 84.24277586 61.4001493 91.375 57.8125 C93.40480313 56.80049081 95.43474731 55.78876444 97.46484375 54.77734375 C100.70699843 53.15982681 103.92935039 51.51639487 107.12890625 49.81640625 C116.79211156 44.81547892 126.93096444 41.64603784 137.3125 38.5 C138.42889359 38.16086578 138.42889359 38.16086578 139.56784058 37.81488037 C152.21608744 34 152.21608744 34 157 34 C157 33.34 157 32.68 157 32 C156.32122803 32.11069824 155.64245605 32.22139648 154.94311523 32.33544922 C151.7749303 32.85083233 148.60622047 33.36292024 145.4375 33.875 C144.37080078 34.04902344 143.30410156 34.22304688 142.20507812 34.40234375 C140.02225513 34.75420178 137.83801428 35.09737283 135.65246582 35.43188477 C133.42909558 35.77771429 131.20821744 36.14090991 128.99291992 36.53515625 C116.04002119 38.61528367 103.02524296 38.25084162 89.94140625 38.1953125 C87.33967702 38.19157581 84.73794636 38.18873194 82.13621521 38.18673706 C76.02742178 38.17992422 69.91871269 38.16421951 63.80995077 38.14403808 C56.84481232 38.12153625 49.87967003 38.11065007 42.91450417 38.10064721 C28.60962395 38.07984817 14.30482962 38.04323007 0 38 C0 25.46 0 12.92 0 0 Z " fill="#000000" transform="translate(146,5180)"/>
<path d="M0 0 C72.93 0 145.86 0 221 0 C221 12.87 221 25.74 221 39 C176.95620895 60.52642923 176.95620895 60.52642923 165.13623047 66.10961914 C160.67796284 68.21931286 156.2466622 70.36949574 151.84654236 72.59846497 C136.29325904 80.47272464 121.01880289 86.86397134 104 91 C102.66652623 91.33277106 101.33317193 91.66602172 100 92 C104.82304894 93.90863193 109.52714959 95.45073925 114.57139587 96.64326477 C125.19383913 99.16835869 134.63388203 103.08461501 144.4375 107.8125 C146.84121462 108.94876013 149.24771335 110.07897236 151.65444946 111.20881653 C153.30043501 111.98179457 154.94559726 112.75652817 156.5899353 113.53300476 C164.56989335 117.29443613 172.62726755 120.87177086 180.70132446 124.42562866 C194.25037162 130.38988601 207.6773552 136.54053586 221 143 C221 155.54 221 168.08 221 181 C148.07 181 75.14 181 0 181 C0 167.8 0 154.6 0 141 C15.03207814 140.93171058 30.0640841 140.87669048 45.09627914 140.84456348 C52.07938017 140.82923558 59.06237648 140.80842372 66.04541016 140.77368164 C72.80820934 140.74005194 79.5709007 140.72305264 86.33377838 140.71536827 C88.88961732 140.7099055 91.44545165 140.69924388 94.00124359 140.68280983 C109.91137485 140.58475183 125.40587544 141.41436196 141.20269775 143.35404968 C145.51648778 143.87514645 149.65923425 144.1483306 154 144 C153.08750488 143.75056641 152.17500977 143.50113281 151.23486328 143.24414062 C129.90206837 137.34798072 110.18823945 129.94695761 90.37231445 120.11833191 C82.3409287 116.14642257 74.17207276 112.48359472 66 108.8125 C57.584882 105.0288614 49.21973106 101.19680499 41 97 C41 92.38 41 87.76 41 83 C50.49841781 77.81014285 60.09773656 72.9885437 69.87963867 68.35693359 C77.09252704 64.93396744 84.24277586 61.4001493 91.375 57.8125 C93.40480313 56.80049081 95.43474731 55.78876444 97.46484375 54.77734375 C100.70699843 53.15982681 103.92935039 51.51639487 107.12890625 49.81640625 C116.79211156 44.81547892 126.93096444 41.64603784 137.3125 38.5 C138.42889359 38.16086578 138.42889359 38.16086578 139.56784058 37.81488037 C152.21608744 34 152.21608744 34 157 34 C157 33.34 157 32.68 157 32 C156.32122803 32.11069824 155.64245605 32.22139648 154.94311523 32.33544922 C151.7749303 32.85083233 148.60622047 33.36292024 145.4375 33.875 C144.37080078 34.04902344 143.30410156 34.22304687 142.20507812 34.40234375 C140.02225513 34.75420178 137.83801428 35.09737283 135.65246582 35.43188477 C133.42909558 35.77771429 131.20821744 36.14090991 128.99291992 36.53515625 C116.04002119 38.61528367 103.02524296 38.25084162 89.94140625 38.1953125 C87.33967702 38.19157581 84.73794636 38.18873194 82.13621521 38.18673706 C76.02742178 38.17992422 69.91871269 38.16421951 63.80995077 38.14403808 C56.84481232 38.12153625 49.87967003 38.11065007 42.91450417 38.10064721 C28.60962395 38.07984817 14.30482962 38.04323007 0 38 C0 25.46 0 12.92 0 0 Z " fill="#000000" transform="translate(146,3295)"/>
<path d="M0 0 C72.93 0 145.86 0 221 0 C221 12.87 221 25.74 221 39 C176.95620895 60.52642923 176.95620895 60.52642923 165.13623047 66.10961914 C160.67796284 68.21931286 156.2466622 70.36949574 151.84654236 72.59846497 C136.29325904 80.47272464 121.01880289 86.86397134 104 91 C102.66652623 91.33277106 101.33317193 91.66602172 100 92 C104.82304894 93.90863193 109.52714959 95.45073925 114.57139587 96.64326477 C125.19383913 99.16835869 134.63388203 103.08461501 144.4375 107.8125 C146.84121462 108.94876013 149.24771335 110.07897236 151.65444946 111.20881653 C153.30043501 111.98179457 154.94559726 112.75652817 156.5899353 113.53300476 C164.56989335 117.29443613 172.62726755 120.87177086 180.70132446 124.42562866 C194.25037162 130.38988601 207.6773552 136.54053586 221 143 C221 155.54 221 168.08 221 181 C148.07 181 75.14 181 0 181 C0 167.8 0 154.6 0 141 C15.03207814 140.93171058 30.0640841 140.87669048 45.09627914 140.84456348 C52.07938017 140.82923558 59.06237648 140.80842372 66.04541016 140.77368164 C72.80820934 140.74005194 79.5709007 140.72305264 86.33377838 140.71536827 C88.88961732 140.7099055 91.44545165 140.69924388 94.00124359 140.68280983 C109.91137485 140.58475183 125.40587544 141.41436196 141.20269775 143.35404968 C145.51648778 143.87514645 149.65923425 144.1483306 154 144 C153.08750488 143.75056641 152.17500977 143.50113281 151.23486328 143.24414062 C129.90206837 137.34798072 110.18823945 129.94695761 90.37231445 120.11833191 C82.3409287 116.14642257 74.17207276 112.48359472 66 108.8125 C57.584882 105.0288614 49.21973106 101.19680499 41 97 C41 92.38 41 87.76 41 83 C50.49841781 77.81014285 60.09773656 72.9885437 69.87963867 68.35693359 C77.09252704 64.93396744 84.24277586 61.4001493 91.375 57.8125 C93.40480313 56.80049081 95.43474731 55.78876444 97.46484375 54.77734375 C100.70699843 53.15982681 103.92935039 51.51639487 107.12890625 49.81640625 C116.79211156 44.81547892 126.93096444 41.64603784 137.3125 38.5 C138.42889359 38.16086578 138.42889359 38.16086578 139.56784058 37.81488037 C152.21608744 34 152.21608744 34 157 34 C157 33.34 157 32.68 157 32 C156.32122803 32.11069824 155.64245605 32.22139648 154.94311523 32.33544922 C151.7749303 32.85083233 148.60622047 33.36292024 145.4375 33.875 C144.37080078 34.04902344 143.30410156 34.22304687 142.20507812 34.40234375 C140.02225513 34.75420178 137.83801428 35.09737283 135.65246582 35.43188477 C133.42909558 35.77771429 131.20821744 36.14090991 128.99291992 36.53515625 C116.04002119 38.61528367 103.02524296 38.25084162 89.94140625 38.1953125 C87.33967702 38.19157581 84.73794636 38.18873194 82.13621521 38.18673706 C76.02742178 38.17992422 69.91871269 38.16421951 63.80995077 38.14403808 C56.84481232 38.12153625 49.87967003 38.11065007 42.91450417 38.10064721 C28.60962395 38.07984817 14.30482962 38.04323007 0 38 C0 25.46 0 12.92 0 0 Z " fill="#000000" transform="translate(146,1410)"/>
<path d="M0 0 C73.26 0 146.52 0 222 0 C222 10.23 222 20.46 222 31 C213.78288978 36.05668321 205.61971234 40.97274492 197.1875 45.625 C188.73400485 50.321951 180.33819752 55.10133478 172 60 C162.84506401 65.37571957 153.62691693 70.6228366 144.32910156 75.74780273 C139.26150611 78.55394649 134.27407906 81.41803961 129.390625 84.53515625 C112.00142668 95.49567565 93.46621434 101.73084516 74 108 C76.85447771 107.71117233 79.70854859 107.41895041 82.5625 107.125 C83.34302734 107.04636719 84.12355469 106.96773437 84.92773438 106.88671875 C88.66316762 106.49978144 92.37258757 106.10386966 96.07899475 105.49026489 C108.74639575 103.46911821 121.38881721 103.74839955 134.18359375 103.8046875 C136.69564195 103.80842452 139.20769163 103.81126823 141.71974182 103.81326294 C147.61603746 103.82007358 153.51225497 103.83577527 159.40851885 103.85596192 C166.79381667 103.88068691 174.17912439 103.8912898 181.56445312 103.90234375 C194.70968132 103.92369802 207.8548189 103.95883522 221 104 C221 116.54 221 129.08 221 142 C147.41 142 73.82 142 -2 142 C-2 131.77 -2 121.54 -2 111 C9.51979066 102.06343512 9.51979066 102.06343512 14.95703125 99.96875 C22.14650682 97.01184467 28.75952733 93.35483432 35.5 89.5 C37.77723468 88.23833499 40.05587779 86.97920872 42.3359375 85.72265625 C49.64011617 81.66466176 56.84886449 77.45195045 64.05126953 73.21679688 C72.45228601 68.28834972 80.9359147 63.51629845 89.45361328 58.79272461 C90.42540527 58.25268799 91.39719727 57.71265137 92.3984375 57.15625 C93.35411621 56.62725098 94.30979492 56.09825195 95.29443359 55.55322266 C96.9754709 54.58816587 98.63522179 53.58362112 100.25634766 52.52099609 C108.70119032 47.00198357 118.18249241 43.99644935 127.625 40.625 C129.41050272 39.97882115 131.19566227 39.33169323 132.98046875 38.68359375 C137.31643339 37.11142559 141.65684023 35.55217486 146 34 C143.14552229 34.28882767 140.29145141 34.58104959 137.4375 34.875 C136.65697266 34.95363281 135.87644531 35.03226563 135.07226562 35.11328125 C131.33438323 35.50047226 127.62238099 35.89722002 123.91331482 36.50973511 C111.31784118 38.51591392 98.75712649 38.2517965 86.03515625 38.1953125 C83.5455283 38.19157539 81.05589887 38.18873172 78.56626892 38.18673706 C72.06116569 38.17915553 65.5561539 38.15955496 59.05108643 38.1373291 C52.39409456 38.1167517 45.73709348 38.10771007 39.08007812 38.09765625 C26.05333909 38.0763032 13.02669151 38.04116659 0 38 C0 25.46 0 12.92 0 0 Z " fill="#000000" transform="translate(146,5547)"/>
<path d="M0 0 C73.26 0 146.52 0 222 0 C222 10.23 222 20.46 222 31 C213.78288978 36.05668321 205.61971234 40.97274492 197.1875 45.625 C188.73400485 50.321951 180.33819752 55.10133478 172 60 C162.84506401 65.37571957 153.62691693 70.6228366 144.32910156 75.74780273 C139.26150611 78.55394649 134.27407906 81.41803961 129.390625 84.53515625 C112.00142668 95.49567565 93.46621434 101.73084516 74 108 C76.85447771 107.71117233 79.70854859 107.41895041 82.5625 107.125 C83.34302734 107.04636719 84.12355469 106.96773437 84.92773438 106.88671875 C88.66316762 106.49978144 92.37258757 106.10386966 96.07899475 105.49026489 C108.74639575 103.46911821 121.38881721 103.74839955 134.18359375 103.8046875 C136.69564195 103.80842452 139.20769163 103.81126823 141.71974182 103.81326294 C147.61603746 103.82007358 153.51225497 103.83577527 159.40851885 103.85596192 C166.79381667 103.88068691 174.17912439 103.8912898 181.56445312 103.90234375 C194.70968132 103.92369802 207.8548189 103.95883522 221 104 C221 116.54 221 129.08 221 142 C147.41 142 73.82 142 -2 142 C-2 131.77 -2 121.54 -2 111 C9.51979066 102.06343512 9.51979066 102.06343512 14.95703125 99.96875 C22.14650682 97.01184467 28.75952733 93.35483432 35.5 89.5 C37.77723468 88.23833499 40.05587779 86.97920872 42.3359375 85.72265625 C49.64011617 81.66466176 56.84886449 77.45195045 64.05126953 73.21679688 C72.45228601 68.28834972 80.9359147 63.51629845 89.45361328 58.79272461 C90.42540527 58.25268799 91.39719727 57.71265137 92.3984375 57.15625 C93.35411621 56.62725098 94.30979492 56.09825195 95.29443359 55.55322266 C96.9754709 54.58816587 98.63522179 53.58362112 100.25634766 52.52099609 C108.70119032 47.00198357 118.18249241 43.99644935 127.625 40.625 C129.41050272 39.97882115 131.19566227 39.33169323 132.98046875 38.68359375 C137.31643339 37.11142559 141.65684023 35.55217486 146 34 C143.14552229 34.28882767 140.29145141 34.58104959 137.4375 34.875 C136.65697266 34.95363281 135.87644531 35.03226563 135.07226562 35.11328125 C131.33438323 35.50047226 127.62238099 35.89722002 123.91331482 36.50973511 C111.31784118 38.51591392 98.75712649 38.2517965 86.03515625 38.1953125 C83.5455283 38.19157539 81.05589887 38.18873172 78.56626892 38.18673706 C72.06116569 38.17915553 65.5561539 38.15955496 59.05108643 38.1373291 C52.39409456 38.1167517 45.73709348 38.10771007 39.08007812 38.09765625 C26.05333909 38.0763032 13.02669151 38.04116659 0 38 C0 25.46 0 12.92 0 0 Z " fill="#000000" transform="translate(146,3662)"/>
<path d="M0 0 C73.26 0 146.52 0 222 0 C222 10.23 222 20.46 222 31 C213.78288978 36.05668321 205.61971234 40.97274492 197.1875 45.625 C188.73400485 50.321951 180.33819752 55.10133478 172 60 C162.84506401 65.37571957 153.62691693 70.6228366 144.32910156 75.74780273 C139.26150611 78.55394649 134.27407906 81.41803961 129.390625 84.53515625 C112.00142668 95.49567565 93.46621434 101.73084516 74 108 C76.85447771 107.71117233 79.70854859 107.41895041 82.5625 107.125 C83.34302734 107.04636719 84.12355469 106.96773437 84.92773438 106.88671875 C88.66316762 106.49978144 92.37258757 106.10386966 96.07899475 105.49026489 C108.74639575 103.46911821 121.38881721 103.74839955 134.18359375 103.8046875 C136.69564195 103.80842452 139.20769163 103.81126823 141.71974182 103.81326294 C147.61603746 103.82007358 153.51225497 103.83577527 159.40851885 103.85596192 C166.79381667 103.88068691 174.17912439 103.8912898 181.56445312 103.90234375 C194.70968132 103.92369802 207.8548189 103.95883522 221 104 C221 116.54 221 129.08 221 142 C147.41 142 73.82 142 -2 142 C-2 131.77 -2 121.54 -2 111 C9.51979066 102.06343512 9.51979066 102.06343512 14.95703125 99.96875 C22.14650682 97.01184467 28.75952733 93.35483432 35.5 89.5 C37.77723468 88.23833499 40.05587779 86.97920872 42.3359375 85.72265625 C49.64011617 81.66466176 56.84886449 77.45195045 64.05126953 73.21679688 C72.45228601 68.28834972 80.9359147 63.51629845 89.45361328 58.79272461 C90.42540527 58.25268799 91.39719727 57.71265137 92.3984375 57.15625 C93.35411621 56.62725098 94.30979492 56.09825195 95.29443359 55.55322266 C96.9754709 54.58816587 98.63522179 53.58362112 100.25634766 52.52099609 C108.70119032 47.00198357 118.18249241 43.99644935 127.625 40.625 C129.41050272 39.97882115 131.19566227 39.33169323 132.98046875 38.68359375 C137.31643339 37.11142559 141.65684023 35.55217486 146 34 C143.14552229 34.28882767 140.29145141 34.58104959 137.4375 34.875 C136.65697266 34.95363281 135.87644531 35.03226563 135.07226562 35.11328125 C131.33438323 35.50047226 127.62238099 35.89722002 123.91331482 36.50973511 C111.31784118 38.51591392 98.75712649 38.2517965 86.03515625 38.1953125 C83.5455283 38.19157539 81.05589887 38.18873172 78.56626892 38.18673706 C72.06116569 38.17915553 65.5561539 38.15955496 59.05108643 38.1373291 C52.39409456 38.1167517 45.73709348 38.10771007 39.08007812 38.09765625 C26.05333909 38.0763032 13.02669151 38.04116659 0 38 C0 25.46 0 12.92 0 0 Z " fill="#000000" transform="translate(146,1777)"/>
<path d="M0 0 C72.27 0 144.54 0 219 0 C221.33629909 17.13285997 223.19964816 33.05491435 223.24023438 50.15185547 C223.24990241 52.60028571 223.28101779 55.04786036 223.3125 57.49609375 C223.44592814 77.38112985 221.09683208 97.93258061 207.00390625 113.15625 C194.27375103 125.31910775 179.54075623 126.50891301 162.8046875 126.2421875 C149.32874121 125.80941466 135.96162565 121.09216322 126 111.75 C122.20679842 107.65305974 119.63016591 103.19008392 117.19140625 98.1875 C116.19306924 95.85837708 116.19306924 95.85837708 114 95 C113.83177734 96.30324219 113.83177734 96.30324219 113.66015625 97.6328125 C111.57702521 108.25801345 105.26131727 116.38187577 96.72265625 122.6796875 C88.26806917 128.1881867 78.11113339 131.56743814 68 132 C66.99839844 132.0515625 65.99679688 132.103125 64.96484375 132.15625 C46.98861663 132.64264171 30.59026302 128.49614525 16.5625 116.875 C1.37406388 101.94226146 -4.0093464 82.06496621 -4.30078125 61.265625 C-4.32934921 57.59352894 -4.32551189 53.92216109 -4.3125 50.25 C-4.31200653 49.29922577 -4.31151306 48.34845154 -4.31100464 47.36886597 C-4.28567083 31.44530642 -3.88280695 15.53122779 0 0 Z M32 40 C28.08195647 47.83608705 28.98593531 61.1800702 31.25 69.375 C33.90918442 77.08171041 38.63542172 83.27547009 45.984375 87.0078125 C56.05656863 91.02888205 67.6710996 91.22674183 78 88 C85.34302538 84.53702417 89.50647896 79.90201883 92.38671875 72.35546875 C95.12671892 61.83177384 94 50.69359195 94 40 C73.54 40 53.08 40 32 40 Z M126 40 C125.54124574 59.10229352 125.54124574 59.10229352 134 75 C134.515625 75.6496875 135.03125 76.299375 135.5625 76.96875 C141.10577537 83.25823552 147.64617507 85.57470189 155.87890625 86.37890625 C164.94189065 86.78672973 173.74663517 86.11174963 181.12109375 80.33984375 C187.91400238 73.4622003 189.13912208 65.2290645 189.25 55.875 C189.17376586 50.47508194 188.60268874 45.42419867 188 40 C167.54 40 147.08 40 126 40 Z " fill="#000000" transform="translate(147,3897)"/>
<path d="M0 0 C72.27 0 144.54 0 219 0 C221.33629909 17.13285997 223.19964816 33.05491435 223.24023438 50.15185547 C223.24990241 52.60028571 223.28101779 55.04786036 223.3125 57.49609375 C223.44592814 77.38112985 221.09683208 97.93258061 207.00390625 113.15625 C194.27375103 125.31910775 179.54075623 126.50891301 162.8046875 126.2421875 C149.32874121 125.80941466 135.96162565 121.09216322 126 111.75 C122.20679842 107.65305974 119.63016591 103.19008392 117.19140625 98.1875 C116.19306924 95.85837708 116.19306924 95.85837708 114 95 C113.83177734 96.30324219 113.83177734 96.30324219 113.66015625 97.6328125 C111.57702521 108.25801345 105.26131727 116.38187577 96.72265625 122.6796875 C88.26806917 128.1881867 78.11113339 131.56743814 68 132 C66.99839844 132.0515625 65.99679688 132.103125 64.96484375 132.15625 C46.98861663 132.64264171 30.59026302 128.49614525 16.5625 116.875 C1.37406388 101.94226146 -4.0093464 82.06496621 -4.30078125 61.265625 C-4.32934921 57.59352894 -4.32551189 53.92216109 -4.3125 50.25 C-4.31200653 49.29922577 -4.31151306 48.34845154 -4.31100464 47.36886597 C-4.28567083 31.44530642 -3.88280695 15.53122779 0 0 Z M32 40 C28.08195647 47.83608705 28.98593531 61.1800702 31.25 69.375 C33.90918442 77.08171041 38.63542172 83.27547009 45.984375 87.0078125 C56.05656863 91.02888205 67.6710996 91.22674183 78 88 C85.34302538 84.53702417 89.50647896 79.90201883 92.38671875 72.35546875 C95.12671892 61.83177384 94 50.69359195 94 40 C73.54 40 53.08 40 32 40 Z M126 40 C125.54124574 59.10229352 125.54124574 59.10229352 134 75 C134.515625 75.6496875 135.03125 76.299375 135.5625 76.96875 C141.10577537 83.25823552 147.64617507 85.57470189 155.87890625 86.37890625 C164.94189065 86.78672973 173.74663517 86.11174963 181.12109375 80.33984375 C187.91400238 73.4622003 189.13912208 65.2290645 189.25 55.875 C189.17376586 50.47508194 188.60268874 45.42419867 188 40 C167.54 40 147.08 40 126 40 Z " fill="#000000" transform="translate(147,2012)"/>
<path d="M0 0 C72.27 0 144.54 0 219 0 C221.33629909 17.13285997 223.19964816 33.05491435 223.24023438 50.15185547 C223.24990241 52.60028571 223.28101779 55.04786036 223.3125 57.49609375 C223.44592814 77.38112985 221.09683208 97.93258061 207.00390625 113.15625 C194.27375103 125.31910775 179.54075623 126.50891301 162.8046875 126.2421875 C149.32874121 125.80941466 135.96162565 121.09216322 126 111.75 C122.20679842 107.65305974 119.63016591 103.19008392 117.19140625 98.1875 C116.19306924 95.85837708 116.19306924 95.85837708 114 95 C113.83177734 96.30324219 113.83177734 96.30324219 113.66015625 97.6328125 C111.57702521 108.25801345 105.26131727 116.38187577 96.72265625 122.6796875 C88.26806917 128.1881867 78.11113339 131.56743814 68 132 C66.99839844 132.0515625 65.99679688 132.103125 64.96484375 132.15625 C46.98861663 132.64264171 30.59026302 128.49614525 16.5625 116.875 C1.37406388 101.94226146 -4.0093464 82.06496621 -4.30078125 61.265625 C-4.32934921 57.59352894 -4.32551189 53.92216109 -4.3125 50.25 C-4.31200653 49.29922577 -4.31151306 48.34845154 -4.31100464 47.36886597 C-4.28567083 31.44530642 -3.88280695 15.53122779 0 0 Z M32 40 C28.08195647 47.83608705 28.98593531 61.1800702 31.25 69.375 C33.90918442 77.08171041 38.63542172 83.27547009 45.984375 87.0078125 C56.05656863 91.02888205 67.6710996 91.22674183 78 88 C85.34302538 84.53702417 89.50647896 79.90201883 92.38671875 72.35546875 C95.12671892 61.83177384 94 50.69359195 94 40 C73.54 40 53.08 40 32 40 Z M126 40 C125.54124574 59.10229352 125.54124574 59.10229352 134 75 C134.515625 75.6496875 135.03125 76.299375 135.5625 76.96875 C141.10577537 83.25823552 147.64617507 85.57470189 155.87890625 86.37890625 C164.94189065 86.78672973 173.74663517 86.11174963 181.12109375 80.33984375 C187.91400238 73.4622003 189.13912208 65.2290645 189.25 55.875 C189.17376586 50.47508194 188.60268874 45.42419867 188 40 C167.54 40 147.08 40 126 40 Z " fill="#000000" transform="translate(147,127)"/>
<path d="M0 0 C72.27 0 144.54 0 219 0 C225.05123025 30.25615127 231.17275532 71.99425733 214.1796875 100 C205.21422976 112.93838607 192.58197539 121.4920214 177 124.56640625 C154.35199866 127.5118511 128.83657147 125.38277432 110.0625 111.3125 C102.31820151 105.19808855 97.32745039 97.75746845 93 89 C92.55914062 89.75893555 92.11828125 90.51787109 91.6640625 91.29980469 C85.0180216 101.47575907 76.87437702 105.37288294 66 110.25 C64.26778185 111.05552746 62.53708536 111.86433454 60.80786133 112.67626953 C57.27887195 114.32939372 53.74331185 115.96696304 50.20166016 117.59277344 C43.01495628 120.90278012 35.90716509 124.37282431 28.7980957 127.84558105 C26.74555952 128.84668213 24.69072359 129.84286178 22.63476562 130.83691406 C21.99548126 131.14608765 21.3561969 131.45526123 20.69754028 131.77380371 C20.07934418 132.07274536 19.46114807 132.37168701 18.82421875 132.6796875 C13.80460839 135.1088661 8.81893337 137.59345495 3.86645508 140.15673828 C2 141 2 141 0 141 C0 125.82 0 110.64 0 95 C13.77919037 88.11040482 13.77919037 88.11040482 19.78125 85.4765625 C20.80903061 85.02112564 20.80903061 85.02112564 21.85757446 84.55648804 C24.07051405 83.57657976 26.28518964 82.60067158 28.5 81.625 C30.86263145 80.58099594 33.22491073 79.5361976 35.58718872 78.49139404 C37.21843621 77.77004145 38.84984638 77.04905661 40.48141479 76.32843018 C46.42492378 73.70201953 52.35871779 71.05442082 58.2890625 68.3984375 C60.76625861 67.29069272 63.24358375 66.18323703 65.72094727 65.0758667 C67.3206056 64.35998426 68.91972964 63.64290672 70.51831055 62.92462158 C72.74249329 61.92555615 74.96865559 60.93103619 77.1953125 59.9375 C77.85818268 59.63830658 78.52105286 59.33911316 79.20401001 59.03085327 C83.77223364 57 83.77223364 57 86 57 C86.13277344 56.18015625 86.26554687 55.3603125 86.40234375 54.515625 C86.66724609 52.89914062 86.66724609 52.89914062 86.9375 51.25 C87.11152344 50.18265625 87.28554687 49.1153125 87.46484375 48.015625 C87.88312803 45.65857781 88.41940025 43.322399 89 41 C59.63 40.67 30.26 40.34 0 40 C0 26.8 0 13.6 0 0 Z M118 40 C117.97117358 42.87246846 117.95016665 45.74464355 117.93359375 48.6171875 C117.92469116 49.42438232 117.91578857 50.23157715 117.90661621 51.06323242 C117.86536335 60.60962964 119.18076688 68.30481133 126.05078125 75.34765625 C129.13713446 77.96394364 132.20204826 79.63331282 136 81 C136.61875 81.22429687 137.2375 81.44859375 137.875 81.6796875 C149.77007607 85.07164279 164.48542785 84.3452745 175.45703125 78.74609375 C180.93335219 75.49922819 184.03046681 72.08445074 186 66 C187.98664634 57.92097155 187.38337038 49.14651448 186 41 C184.92120693 39.69637405 184.92120693 39.69637405 182.33616638 39.87974548 C181.14813919 39.88196609 179.960112 39.88418671 178.73608398 39.88647461 C178.08244873 39.88632858 177.42881348 39.88618256 176.75537109 39.8860321 C174.58557872 39.88673117 172.41587121 39.89452322 170.24609375 39.90234375 C168.74536689 39.90420795 167.24463943 39.90563184 165.74391174 39.90663147 C161.78681774 39.91045648 157.82976022 39.9202866 153.87268066 39.93133545 C149.83765151 39.94154994 145.80261647 39.94612917 141.76757812 39.95117188 C133.84503531 39.96190889 125.92252219 39.9789851 118 40 Z " fill="#000000" transform="translate(146,4627)"/>
<path d="M0 0 C72.27 0 144.54 0 219 0 C225.05123025 30.25615127 231.17275532 71.99425733 214.1796875 100 C205.21422976 112.93838607 192.58197539 121.4920214 177 124.56640625 C154.35199866 127.5118511 128.83657147 125.38277432 110.0625 111.3125 C102.31820151 105.19808855 97.32745039 97.75746845 93 89 C92.55914062 89.75893555 92.11828125 90.51787109 91.6640625 91.29980469 C85.0180216 101.47575907 76.87437702 105.37288294 66 110.25 C64.26778185 111.05552746 62.53708536 111.86433454 60.80786133 112.67626953 C57.27887195 114.32939372 53.74331185 115.96696304 50.20166016 117.59277344 C43.01495628 120.90278012 35.90716509 124.37282431 28.7980957 127.84558105 C26.74555952 128.84668213 24.69072359 129.84286178 22.63476562 130.83691406 C21.99548126 131.14608765 21.3561969 131.45526123 20.69754028 131.77380371 C20.07934418 132.07274536 19.46114807 132.37168701 18.82421875 132.6796875 C13.80460839 135.1088661 8.81893337 137.59345495 3.86645508 140.15673828 C2 141 2 141 0 141 C0 125.82 0 110.64 0 95 C13.77919037 88.11040482 13.77919037 88.11040482 19.78125 85.4765625 C20.80903061 85.02112564 20.80903061 85.02112564 21.85757446 84.55648804 C24.07051405 83.57657976 26.28518964 82.60067158 28.5 81.625 C30.86263145 80.58099594 33.22491073 79.5361976 35.58718872 78.49139404 C37.21843621 77.77004145 38.84984638 77.04905661 40.48141479 76.32843018 C46.42492378 73.70201953 52.35871779 71.05442082 58.2890625 68.3984375 C60.76625861 67.29069272 63.24358375 66.18323703 65.72094727 65.0758667 C67.3206056 64.35998426 68.91972964 63.64290672 70.51831055 62.92462158 C72.74249329 61.92555615 74.96865559 60.93103619 77.1953125 59.9375 C77.85818268 59.63830658 78.52105286 59.33911316 79.20401001 59.03085327 C83.77223364 57 83.77223364 57 86 57 C86.13277344 56.18015625 86.26554687 55.3603125 86.40234375 54.515625 C86.66724609 52.89914063 86.66724609 52.89914063 86.9375 51.25 C87.11152344 50.18265625 87.28554687 49.1153125 87.46484375 48.015625 C87.88312803 45.65857781 88.41940025 43.322399 89 41 C59.63 40.67 30.26 40.34 0 40 C0 26.8 0 13.6 0 0 Z M118 40 C117.97117358 42.87246846 117.95016665 45.74464355 117.93359375 48.6171875 C117.92469116 49.42438232 117.91578857 50.23157715 117.90661621 51.06323242 C117.86536335 60.60962964 119.18076688 68.30481133 126.05078125 75.34765625 C129.13713446 77.96394364 132.20204826 79.63331282 136 81 C136.61875 81.22429688 137.2375 81.44859375 137.875 81.6796875 C149.77007607 85.07164279 164.48542785 84.3452745 175.45703125 78.74609375 C180.93335219 75.49922819 184.03046681 72.08445074 186 66 C187.98664634 57.92097155 187.38337038 49.14651448 186 41 C184.92120693 39.69637405 184.92120693 39.69637405 182.33616638 39.87974548 C181.14813919 39.88196609 179.960112 39.88418671 178.73608398 39.88647461 C178.08244873 39.88632858 177.42881348 39.88618256 176.75537109 39.8860321 C174.58557872 39.88673117 172.41587121 39.89452322 170.24609375 39.90234375 C168.74536689 39.90420795 167.24463943 39.90563184 165.74391174 39.90663147 C161.78681774 39.91045648 157.82976022 39.9202866 153.87268066 39.93133545 C149.83765151 39.94154994 145.80261647 39.94612917 141.76757812 39.95117188 C133.84503531 39.96190889 125.92252219 39.9789851 118 40 Z " fill="#000000" transform="translate(146,2742)"/>
<path d="M0 0 C72.27 0 144.54 0 219 0 C225.05123025 30.25615127 231.17275532 71.99425733 214.1796875 100 C205.21422976 112.93838607 192.58197539 121.4920214 177 124.56640625 C154.35199866 127.5118511 128.83657147 125.38277432 110.0625 111.3125 C102.31820151 105.19808855 97.32745039 97.75746845 93 89 C92.55914062 89.75893555 92.11828125 90.51787109 91.6640625 91.29980469 C85.0180216 101.47575907 76.87437702 105.37288294 66 110.25 C64.26778185 111.05552746 62.53708536 111.86433454 60.80786133 112.67626953 C57.27887195 114.32939372 53.74331185 115.96696304 50.20166016 117.59277344 C43.01495628 120.90278012 35.90716509 124.37282431 28.7980957 127.84558105 C26.74555952 128.84668213 24.69072359 129.84286178 22.63476562 130.83691406 C21.99548126 131.14608765 21.3561969 131.45526123 20.69754028 131.77380371 C20.07934418 132.07274536 19.46114807 132.37168701 18.82421875 132.6796875 C13.80460839 135.1088661 8.81893337 137.59345495 3.86645508 140.15673828 C2 141 2 141 0 141 C0 125.82 0 110.64 0 95 C13.77919037 88.11040482 13.77919037 88.11040482 19.78125 85.4765625 C20.80903061 85.02112564 20.80903061 85.02112564 21.85757446 84.55648804 C24.07051405 83.57657976 26.28518964 82.60067158 28.5 81.625 C30.86263145 80.58099594 33.22491073 79.5361976 35.58718872 78.49139404 C37.21843621 77.77004145 38.84984638 77.04905661 40.48141479 76.32843018 C46.42492378 73.70201953 52.35871779 71.05442082 58.2890625 68.3984375 C60.76625861 67.29069272 63.24358375 66.18323703 65.72094727 65.0758667 C67.3206056 64.35998426 68.91972964 63.64290672 70.51831055 62.92462158 C72.74249329 61.92555615 74.96865559 60.93103619 77.1953125 59.9375 C77.85818268 59.63830658 78.52105286 59.33911316 79.20401001 59.03085327 C83.77223364 57 83.77223364 57 86 57 C86.13277344 56.18015625 86.26554687 55.3603125 86.40234375 54.515625 C86.66724609 52.89914062 86.66724609 52.89914062 86.9375 51.25 C87.11152344 50.18265625 87.28554687 49.1153125 87.46484375 48.015625 C87.88312803 45.65857781 88.41940025 43.322399 89 41 C59.63 40.67 30.26 40.34 0 40 C0 26.8 0 13.6 0 0 Z M118 40 C117.97117358 42.87246846 117.95016665 45.74464355 117.93359375 48.6171875 C117.92469116 49.42438232 117.91578857 50.23157715 117.90661621 51.06323242 C117.86536335 60.60962964 119.18076688 68.30481133 126.05078125 75.34765625 C129.13713446 77.96394364 132.20204826 79.63331282 136 81 C136.61875 81.22429687 137.2375 81.44859375 137.875 81.6796875 C149.77007607 85.07164279 164.48542785 84.3452745 175.45703125 78.74609375 C180.93335219 75.49922819 184.03046681 72.08445074 186 66 C187.98664634 57.92097155 187.38337038 49.14651448 186 41 C184.92120693 39.69637405 184.92120693 39.69637405 182.33616638 39.87974548 C181.14813919 39.88196609 179.960112 39.88418671 178.73608398 39.88647461 C178.08244873 39.88632858 177.42881348 39.88618256 176.75537109 39.8860321 C174.58557872 39.88673117 172.41587121 39.89452322 170.24609375 39.90234375 C168.74536689 39.90420795 167.24463943 39.90563184 165.74391174 39.90663147 C161.78681774 39.91045648 157.82976022 39.9202866 153.87268066 39.93133545 C149.83765151 39.94154994 145.80261647 39.94612917 141.76757812 39.95117188 C133.84503531 39.96190889 125.92252219 39.9789851 118 40 Z " fill="#000000" transform="translate(146,857)"/>
<path d="M0 0 C72.93 0 145.86 0 221 0 C221 13.2 221 26.4 221 40 C190.97 40 160.94 40 130 40 C130 59.8 130 79.6 130 100 C160.03 100 190.06 100 221 100 C221 113.2 221 126.4 221 140 C148.07 140 75.14 140 0 140 C0 126.8 0 113.6 0 100 C30.69 100 61.38 100 93 100 C93 80.2 93 60.4 93 40 C62.31 40 31.62 40 0 40 C0 26.8 0 13.6 0 0 Z " fill="#000000" transform="translate(146,4850)"/>
<path d="M0 0 C72.93 0 145.86 0 221 0 C221 13.2 221 26.4 221 40 C190.97 40 160.94 40 130 40 C130 59.8 130 79.6 130 100 C160.03 100 190.06 100 221 100 C221 113.2 221 126.4 221 140 C148.07 140 75.14 140 0 140 C0 126.8 0 113.6 0 100 C30.69 100 61.38 100 93 100 C93 80.2 93 60.4 93 40 C62.31 40 31.62 40 0 40 C0 26.8 0 13.6 0 0 Z " fill="#000000" transform="translate(146,2965)"/>
<path d="M0 0 C72.93 0 145.86 0 221 0 C221 13.2 221 26.4 221 40 C190.97 40 160.94 40 130 40 C130 59.8 130 79.6 130 100 C160.03 100 190.06 100 221 100 C221 113.2 221 126.4 221 140 C148.07 140 75.14 140 0 140 C0 126.8 0 113.6 0 100 C30.69 100 61.38 100 93 100 C93 80.2 93 60.4 93 40 C62.31 40 31.62 40 0 40 C0 26.8 0 13.6 0 0 Z " fill="#000000" transform="translate(146,1080)"/>
<path d="M0 0 C1.59721881 0.00028239 3.19443776 0.00012313 4.79165649 -0.0004425 C9.10923836 -0.00072846 13.42679222 0.00513559 17.7443676 0.01213145 C22.26337414 0.01839865 26.78238138 0.01897145 31.3013916 0.02015686 C39.85054585 0.02326026 48.39968725 0.03146027 56.94883585 0.04150635 C66.68523098 0.05269829 76.42162673 0.0581857 86.1580267 0.06320179 C106.17892759 0.07364373 126.19981089 0.09197687 146.22070312 0.11352539 C146.22070312 13.31352539 146.22070312 26.51352539 146.22070312 40.11352539 C141.6894873 40.13334473 137.15827148 40.15316406 132.48974609 40.17358398 C117.49013363 40.24060039 102.49058906 40.31814098 87.49105644 40.40105247 C78.40014176 40.45104822 69.30923551 40.49749197 60.21826172 40.53540039 C52.28911041 40.56847333 44.36002716 40.60838752 36.43095124 40.65631545 C32.23753894 40.68142929 28.0441709 40.70325403 23.85070419 40.71686935 C19.89280009 40.72982839 15.93504898 40.75202723 11.97723007 40.78090858 C10.53505116 40.78987749 9.09284768 40.79564912 7.6506424 40.79773903 C-14.18596456 40.74740305 -14.18596456 40.74740305 -33.71679688 49.36352539 C-39.4625081 57.02447369 -41.60878495 64.58195334 -40.77929688 74.11352539 C-39.61076761 80.22300123 -37.87751848 86.1691738 -32.77929688 90.11352539 C-20.8375081 97.24680687 -7.63542245 97.41337492 5.90332031 97.43237305 C7.44202184 97.44169281 8.98071839 97.45186445 10.51940918 97.46281433 C14.65905197 97.48989787 18.79866116 97.50519879 22.9383688 97.51824236 C27.27855175 97.53396862 31.61866701 97.56072809 35.95880127 97.58627319 C44.160714 97.63289401 52.36263971 97.66971845 60.56461644 97.70294607 C69.90937809 97.74128607 79.25407147 97.79066477 88.59877539 97.84093022 C107.8060403 97.9440015 127.01333434 98.03188511 146.22070312 98.11352539 C146.22070312 110.65352539 146.22070312 123.19352539 146.22070312 136.11352539 C125.670164 136.18145818 105.11971693 136.23663218 84.5690937 136.26896191 C75.02535077 136.28437755 65.48168297 136.30536463 55.93798828 136.33984375 C47.61184791 136.36990959 39.28576201 136.38913884 30.95956886 136.39579087 C26.55804117 136.39967427 22.15666918 136.40868773 17.7551918 136.43071556 C13.59702839 136.45135351 9.43908212 136.45730522 5.28087234 136.45284843 C3.76939201 136.45366162 2.25790302 136.45946245 0.74646759 136.47114182 C-22.05630689 136.63843194 -45.37379839 132.77579733 -62.49414062 116.52368164 C-75.17709731 103.14695638 -79.18256886 87.3416409 -79.09179688 69.36352539 C-79.08688232 68.21480957 -79.08196777 67.06609375 -79.0769043 65.88256836 C-78.8384404 48.6079993 -74.60103589 31.84300369 -62.66601562 18.80493164 C-45.56989049 2.21245668 -22.65644441 -0.05617621 0 0 Z " fill="#000000" transform="translate(220.779296875,5016.886474609375)"/>
<path d="M0 0 C1.59721881 0.00028239 3.19443776 0.00012313 4.79165649 -0.0004425 C9.10923836 -0.00072846 13.42679222 0.00513559 17.7443676 0.01213145 C22.26337414 0.01839865 26.78238138 0.01897145 31.3013916 0.02015686 C39.85054585 0.02326026 48.39968725 0.03146027 56.94883585 0.04150635 C66.68523098 0.05269829 76.42162673 0.0581857 86.1580267 0.06320179 C106.17892759 0.07364373 126.19981089 0.09197687 146.22070312 0.11352539 C146.22070312 13.31352539 146.22070312 26.51352539 146.22070312 40.11352539 C141.6894873 40.13334473 137.15827148 40.15316406 132.48974609 40.17358398 C117.49013363 40.24060039 102.49058906 40.31814098 87.49105644 40.40105247 C78.40014176 40.45104822 69.30923551 40.49749197 60.21826172 40.53540039 C52.28911041 40.56847333 44.36002716 40.60838752 36.43095124 40.65631545 C32.23753894 40.68142929 28.0441709 40.70325403 23.85070419 40.71686935 C19.89280009 40.72982839 15.93504898 40.75202723 11.97723007 40.78090858 C10.53505116 40.78987749 9.09284768 40.79564912 7.6506424 40.79773903 C-14.18596456 40.74740305 -14.18596456 40.74740305 -33.71679688 49.36352539 C-39.4625081 57.02447369 -41.60878495 64.58195334 -40.77929688 74.11352539 C-39.61076761 80.22300123 -37.87751848 86.1691738 -32.77929688 90.11352539 C-20.8375081 97.24680687 -7.63542245 97.41337492 5.90332031 97.43237305 C7.44202184 97.44169281 8.98071839 97.45186445 10.51940918 97.46281433 C14.65905197 97.48989787 18.79866116 97.50519879 22.9383688 97.51824236 C27.27855175 97.53396862 31.61866701 97.56072809 35.95880127 97.58627319 C44.160714 97.63289401 52.36263971 97.66971845 60.56461644 97.70294607 C69.90937809 97.74128607 79.25407147 97.79066477 88.59877539 97.84093022 C107.8060403 97.9440015 127.01333434 98.03188511 146.22070312 98.11352539 C146.22070312 110.65352539 146.22070312 123.19352539 146.22070312 136.11352539 C125.670164 136.18145818 105.11971693 136.23663218 84.5690937 136.26896191 C75.02535077 136.28437755 65.48168297 136.30536463 55.93798828 136.33984375 C47.61184791 136.36990959 39.28576201 136.38913884 30.95956886 136.39579087 C26.55804117 136.39967427 22.15666918 136.40868773 17.7551918 136.43071556 C13.59702839 136.45135351 9.43908212 136.45730522 5.28087234 136.45284843 C3.76939201 136.45366162 2.25790302 136.45946245 0.74646759 136.47114182 C-22.05630689 136.63843194 -45.37379839 132.77579733 -62.49414062 116.52368164 C-75.17709731 103.14695638 -79.18256886 87.3416409 -79.09179688 69.36352539 C-79.08688232 68.21480957 -79.08196777 67.06609375 -79.0769043 65.88256836 C-78.8384404 48.6079993 -74.60103589 31.84300369 -62.66601562 18.80493164 C-45.56989049 2.21245668 -22.65644441 -0.05617621 0 0 Z " fill="#000000" transform="translate(220.779296875,3131.886474609375)"/>
<path d="M0 0 C1.59721881 0.00028239 3.19443776 0.00012313 4.79165649 -0.0004425 C9.10923836 -0.00072846 13.42679222 0.00513559 17.7443676 0.01213145 C22.26337414 0.01839865 26.78238138 0.01897145 31.3013916 0.02015686 C39.85054585 0.02326026 48.39968725 0.03146027 56.94883585 0.04150635 C66.68523098 0.05269829 76.42162673 0.0581857 86.1580267 0.06320179 C106.17892759 0.07364373 126.19981089 0.09197687 146.22070312 0.11352539 C146.22070312 13.31352539 146.22070312 26.51352539 146.22070312 40.11352539 C141.6894873 40.13334473 137.15827148 40.15316406 132.48974609 40.17358398 C117.49013363 40.24060039 102.49058906 40.31814098 87.49105644 40.40105247 C78.40014176 40.45104822 69.30923551 40.49749197 60.21826172 40.53540039 C52.28911041 40.56847333 44.36002716 40.60838752 36.43095124 40.65631545 C32.23753894 40.68142929 28.0441709 40.70325403 23.85070419 40.71686935 C19.89280009 40.72982839 15.93504898 40.75202723 11.97723007 40.78090858 C10.53505116 40.78987749 9.09284768 40.79564912 7.6506424 40.79773903 C-14.18596456 40.74740305 -14.18596456 40.74740305 -33.71679688 49.36352539 C-39.4625081 57.02447369 -41.60878495 64.58195334 -40.77929688 74.11352539 C-39.61076761 80.22300123 -37.87751848 86.1691738 -32.77929688 90.11352539 C-20.8375081 97.24680687 -7.63542245 97.41337492 5.90332031 97.43237305 C7.44202184 97.44169281 8.98071839 97.45186445 10.51940918 97.46281433 C14.65905197 97.48989787 18.79866116 97.50519879 22.9383688 97.51824236 C27.27855175 97.53396862 31.61866701 97.56072809 35.95880127 97.58627319 C44.160714 97.63289401 52.36263971 97.66971845 60.56461644 97.70294607 C69.90937809 97.74128607 79.25407147 97.79066477 88.59877539 97.84093022 C107.8060403 97.9440015 127.01333434 98.03188511 146.22070312 98.11352539 C146.22070312 110.65352539 146.22070312 123.19352539 146.22070312 136.11352539 C125.670164 136.18145818 105.11971693 136.23663218 84.5690937 136.26896191 C75.02535077 136.28437755 65.48168297 136.30536463 55.93798828 136.33984375 C47.61184791 136.36990959 39.28576201 136.38913884 30.95956886 136.39579087 C26.55804117 136.39967427 22.15666918 136.40868773 17.7551918 136.43071556 C13.59702839 136.45135351 9.43908212 136.45730522 5.28087234 136.45284843 C3.76939201 136.45366162 2.25790302 136.45946245 0.74646759 136.47114182 C-22.05630689 136.63843194 -45.37379839 132.77579733 -62.49414062 116.52368164 C-75.17709731 103.14695638 -79.18256886 87.3416409 -79.09179688 69.36352539 C-79.08688232 68.21480957 -79.08196777 67.06609375 -79.0769043 65.88256836 C-78.8384404 48.6079993 -74.60103589 31.84300369 -62.66601562 18.80493164 C-45.56989049 2.21245668 -22.65644441 -0.05617621 0 0 Z " fill="#000000" transform="translate(220.779296875,1246.886474609375)"/>
<path d="M0 0 C18.37968009 4.59492002 18.37968009 4.59492002 26.04052734 6.81469727 C27.36465055 7.19464372 27.36465055 7.19464372 28.71552372 7.58226585 C31.58975304 8.40770207 34.46284698 9.23701583 37.3359375 10.06640625 C39.3980481 10.65946531 41.46022945 11.25227842 43.5224762 11.84486389 C49.00814374 13.42189715 54.49283766 15.00229081 59.97733688 16.58338165 C65.6842742 18.2279729 71.39210969 19.86944098 77.09985352 21.51123047 C87.29009271 24.44283339 97.47959064 27.37700263 107.66875362 30.3123436 C117.44634412 33.12895935 127.2249835 35.9419201 137.00390625 38.75390625 C148.96989831 42.19500796 160.93469578 45.64021988 172.89830017 49.08961487 C179.41692195 50.96874959 185.93667214 52.84387757 192.45780945 54.71426392 C196.16047573 55.77666794 199.86244644 56.84147923 203.5642395 57.90692139 C205.20150053 58.37752168 206.8390833 58.84700434 208.47702026 59.31524658 C210.62225305 59.92859419 212.76634028 60.54578452 214.91015625 61.1640625 C216.66017944 61.66607178 216.66017944 61.66607178 218.44555664 62.17822266 C221 63 221 63 222 64 C222.0883967 66.3756852 222.11530305 68.72208674 222.09765625 71.09765625 C222.09553383 72.16094398 222.09553383 72.16094398 222.09336853 73.24571228 C222.08775443 75.51801712 222.07519963 77.79022475 222.0625 80.0625 C222.05748681 81.59960796 222.05292359 83.13671745 222.04882812 84.67382812 C222.03778042 88.44925642 222.02050641 92.22461171 222 96 C220.56185944 96.41531479 220.56185944 96.41531479 219.09466553 96.83901978 C177.44625703 108.86663991 135.79794664 120.89461673 94.15657425 132.94657898 C91.81491582 133.62430081 89.47323857 134.30195759 87.13156128 134.97961426 C71.11539175 139.61481499 55.10151526 144.25772567 39.09375 148.921875 C37.76454262 149.30907527 36.43533426 149.69627218 35.10612488 150.08346558 C28.99370406 151.86420141 22.88180913 153.64671841 16.77075195 155.43212891 C14.66618686 156.04592749 12.56161382 156.65969885 10.45703125 157.2734375 C9.50078857 157.55346619 8.5445459 157.83349487 7.55932617 158.12200928 C6.70032715 158.37226868 5.84132812 158.62252808 4.95629883 158.88037109 C3.83787346 159.20719376 3.83787346 159.20719376 2.69685364 159.5406189 C1 160 1 160 0 160 C0 145.81 0 131.62 0 117 C6.94113607 115.14631436 13.88263349 113.29412004 20.82519531 111.44580078 C23.18838855 110.81615769 25.55134529 110.18562627 27.9140625 109.55419922 C31.30407376 108.64839504 34.69491401 107.74575627 38.0859375 106.84375 C39.67817642 106.4172113 39.67817642 106.4172113 41.30258179 105.98205566 C42.28344757 105.72178589 43.26431335 105.46151611 44.27490234 105.19335938 C45.57396011 104.84694397 45.57396011 104.84694397 46.89926147 104.49353027 C49 104 49 104 51 104 C51 86.84 51 69.68 51 52 C48.36 51.67 45.72 51.34 43 51 C41.3733498 50.66278234 39.75273212 50.29311814 38.14453125 49.87670898 C37.28424316 49.65655624 36.42395508 49.4364035 35.53759766 49.20957947 C34.63831543 48.97412918 33.7390332 48.73867889 32.8125 48.49609375 C31.39783447 48.13198143 31.39783447 48.13198143 29.95458984 47.76051331 C26.96850549 46.99081439 23.98425122 46.21427241 21 45.4375 C18.96496116 44.91165477 16.92980599 44.38625954 14.89453125 43.86132812 C9.92808916 42.58025321 4.96418477 41.28992301 0 40 C0 26.8 0 13.6 0 0 Z M83 61 C83 72.88 83 84.76 83 97 C89.69283779 95.7831204 96.1072029 94.56103266 102.62890625 92.79296875 C104.241871 92.36777541 105.85516651 91.94383528 107.46875 91.52099609 C108.30019531 91.30272156 109.13164062 91.08444702 109.98828125 90.85955811 C129.19077107 85.84631324 148.30617937 82.37857417 168 80 C168 79.34 168 78.68 168 78 C167.22664307 77.91137695 166.45328613 77.82275391 165.65649414 77.73144531 C140.53536167 74.72615088 116.30484786 69.03205624 91.82872009 62.70176697 C90.95647293 62.47751541 90.08422577 62.25326385 89.18554688 62.0222168 C88.42205933 61.82411911 87.65857178 61.62602142 86.87194824 61.42192078 C84.99464199 60.92670818 84.99464199 60.92670818 83 61 Z " fill="#000000" transform="translate(146,5374)"/>
<path d="M0 0 C18.37968009 4.59492002 18.37968009 4.59492002 26.04052734 6.81469727 C27.36465055 7.19464372 27.36465055 7.19464372 28.71552372 7.58226585 C31.58975304 8.40770207 34.46284698 9.23701583 37.3359375 10.06640625 C39.3980481 10.65946531 41.46022945 11.25227842 43.5224762 11.84486389 C49.00814374 13.42189715 54.49283766 15.00229081 59.97733688 16.58338165 C65.6842742 18.2279729 71.39210969 19.86944098 77.09985352 21.51123047 C87.29009271 24.44283339 97.47959064 27.37700263 107.66875362 30.3123436 C117.44634412 33.12895935 127.2249835 35.9419201 137.00390625 38.75390625 C148.96989831 42.19500796 160.93469578 45.64021988 172.89830017 49.08961487 C179.41692195 50.96874959 185.93667214 52.84387757 192.45780945 54.71426392 C196.16047573 55.77666794 199.86244644 56.84147923 203.5642395 57.90692139 C205.20150053 58.37752168 206.8390833 58.84700434 208.47702026 59.31524658 C210.62225305 59.92859419 212.76634028 60.54578452 214.91015625 61.1640625 C216.66017944 61.66607178 216.66017944 61.66607178 218.44555664 62.17822266 C221 63 221 63 222 64 C222.0883967 66.3756852 222.11530305 68.72208674 222.09765625 71.09765625 C222.09553383 72.16094398 222.09553383 72.16094398 222.09336853 73.24571228 C222.08775443 75.51801712 222.07519963 77.79022475 222.0625 80.0625 C222.05748681 81.59960796 222.05292359 83.13671745 222.04882812 84.67382812 C222.03778042 88.44925642 222.02050641 92.22461171 222 96 C220.56185944 96.41531479 220.56185944 96.41531479 219.09466553 96.83901978 C177.44625703 108.86663991 135.79794664 120.89461673 94.15657425 132.94657898 C91.81491582 133.62430081 89.47323857 134.30195759 87.13156128 134.97961426 C71.11539175 139.61481499 55.10151526 144.25772567 39.09375 148.921875 C37.76454262 149.30907527 36.43533426 149.69627218 35.10612488 150.08346558 C28.99370406 151.86420141 22.88180913 153.64671841 16.77075195 155.43212891 C14.66618686 156.04592749 12.56161382 156.65969885 10.45703125 157.2734375 C9.50078857 157.55346619 8.5445459 157.83349487 7.55932617 158.12200928 C6.70032715 158.37226868 5.84132812 158.62252808 4.95629883 158.88037109 C3.83787346 159.20719376 3.83787346 159.20719376 2.69685364 159.5406189 C1 160 1 160 0 160 C0 145.81 0 131.62 0 117 C6.94113607 115.14631436 13.88263349 113.29412004 20.82519531 111.44580078 C23.18838855 110.81615769 25.55134529 110.18562627 27.9140625 109.55419922 C31.30407376 108.64839504 34.69491401 107.74575627 38.0859375 106.84375 C39.67817642 106.4172113 39.67817642 106.4172113 41.30258179 105.98205566 C42.28344757 105.72178589 43.26431335 105.46151611 44.27490234 105.19335938 C45.57396011 104.84694397 45.57396011 104.84694397 46.89926147 104.49353027 C49 104 49 104 51 104 C51 86.84 51 69.68 51 52 C48.36 51.67 45.72 51.34 43 51 C41.3733498 50.66278234 39.75273212 50.29311814 38.14453125 49.87670898 C37.28424316 49.65655624 36.42395508 49.4364035 35.53759766 49.20957947 C34.63831543 48.97412918 33.7390332 48.73867889 32.8125 48.49609375 C31.39783447 48.13198143 31.39783447 48.13198143 29.95458984 47.76051331 C26.96850549 46.99081439 23.98425122 46.21427241 21 45.4375 C18.96496116 44.91165477 16.92980599 44.38625954 14.89453125 43.86132812 C9.92808916 42.58025321 4.96418477 41.28992301 0 40 C0 26.8 0 13.6 0 0 Z M83 61 C83 72.88 83 84.76 83 97 C89.69283779 95.7831204 96.1072029 94.56103266 102.62890625 92.79296875 C104.241871 92.36777541 105.85516651 91.94383528 107.46875 91.52099609 C108.30019531 91.30272156 109.13164062 91.08444702 109.98828125 90.85955811 C129.19077107 85.84631324 148.30617937 82.37857417 168 80 C168 79.34 168 78.68 168 78 C167.22664307 77.91137695 166.45328613 77.82275391 165.65649414 77.73144531 C140.53536167 74.72615088 116.30484786 69.03205624 91.82872009 62.70176697 C90.95647293 62.47751541 90.08422577 62.25326385 89.18554688 62.0222168 C88.42205933 61.82411911 87.65857178 61.62602142 86.87194824 61.42192078 C84.99464199 60.92670818 84.99464199 60.92670818 83 61 Z " fill="#000000" transform="translate(146,3489)"/>
<path d="M0 0 C18.37968009 4.59492002 18.37968009 4.59492002 26.04052734 6.81469727 C27.36465055 7.19464372 27.36465055 7.19464372 28.71552372 7.58226585 C31.58975304 8.40770207 34.46284698 9.23701583 37.3359375 10.06640625 C39.3980481 10.65946531 41.46022945 11.25227842 43.5224762 11.84486389 C49.00814374 13.42189715 54.49283766 15.00229081 59.97733688 16.58338165 C65.6842742 18.2279729 71.39210969 19.86944098 77.09985352 21.51123047 C87.29009271 24.44283339 97.47959064 27.37700263 107.66875362 30.3123436 C117.44634412 33.12895935 127.2249835 35.9419201 137.00390625 38.75390625 C148.96989831 42.19500796 160.93469578 45.64021988 172.89830017 49.08961487 C179.41692195 50.96874959 185.93667214 52.84387757 192.45780945 54.71426392 C196.16047573 55.77666794 199.86244644 56.84147923 203.5642395 57.90692139 C205.20150053 58.37752168 206.8390833 58.84700434 208.47702026 59.31524658 C210.62225305 59.92859419 212.76634028 60.54578452 214.91015625 61.1640625 C216.66017944 61.66607178 216.66017944 61.66607178 218.44555664 62.17822266 C221 63 221 63 222 64 C222.0883967 66.3756852 222.11530305 68.72208674 222.09765625 71.09765625 C222.09553383 72.16094398 222.09553383 72.16094398 222.09336853 73.24571228 C222.08775443 75.51801712 222.07519963 77.79022475 222.0625 80.0625 C222.05748681 81.59960796 222.05292359 83.13671745 222.04882812 84.67382812 C222.03778042 88.44925642 222.02050641 92.22461171 222 96 C220.56185944 96.41531479 220.56185944 96.41531479 219.09466553 96.83901978 C177.44625703 108.86663991 135.79794664 120.89461673 94.15657425 132.94657898 C91.81491582 133.62430081 89.47323857 134.30195759 87.13156128 134.97961426 C71.11539175 139.61481499 55.10151526 144.25772567 39.09375 148.921875 C37.76454262 149.30907527 36.43533426 149.69627218 35.10612488 150.08346558 C28.99370406 151.86420141 22.88180913 153.64671841 16.77075195 155.43212891 C14.66618686 156.04592749 12.56161382 156.65969885 10.45703125 157.2734375 C9.50078857 157.55346619 8.5445459 157.83349487 7.55932617 158.12200928 C6.70032715 158.37226868 5.84132812 158.62252808 4.95629883 158.88037109 C3.83787346 159.20719376 3.83787346 159.20719376 2.69685364 159.5406189 C1 160 1 160 0 160 C0 145.81 0 131.62 0 117 C6.94113607 115.14631436 13.88263349 113.29412004 20.82519531 111.44580078 C23.18838855 110.81615769 25.55134529 110.18562627 27.9140625 109.55419922 C31.30407376 108.64839504 34.69491401 107.74575627 38.0859375 106.84375 C39.67817642 106.4172113 39.67817642 106.4172113 41.30258179 105.98205566 C42.28344757 105.72178589 43.26431335 105.46151611 44.27490234 105.19335938 C45.57396011 104.84694397 45.57396011 104.84694397 46.89926147 104.49353027 C49 104 49 104 51 104 C51 86.84 51 69.68 51 52 C48.36 51.67 45.72 51.34 43 51 C41.3733498 50.66278234 39.75273212 50.29311814 38.14453125 49.87670898 C37.28424316 49.65655624 36.42395508 49.4364035 35.53759766 49.20957947 C34.63831543 48.97412918 33.7390332 48.73867889 32.8125 48.49609375 C31.39783447 48.13198143 31.39783447 48.13198143 29.95458984 47.76051331 C26.96850549 46.99081439 23.98425122 46.21427241 21 45.4375 C18.96496116 44.91165477 16.92980599 44.38625954 14.89453125 43.86132812 C9.92808916 42.58025321 4.96418477 41.28992301 0 40 C0 26.8 0 13.6 0 0 Z M83 61 C83 72.88 83 84.76 83 97 C89.69283779 95.7831204 96.1072029 94.56103266 102.62890625 92.79296875 C104.241871 92.36777541 105.85516651 91.94383528 107.46875 91.52099609 C108.30019531 91.30272156 109.13164062 91.08444702 109.98828125 90.85955811 C129.19077107 85.84631324 148.30617937 82.37857417 168 80 C168 79.34 168 78.68 168 78 C167.22664307 77.91137695 166.45328613 77.82275391 165.65649414 77.73144531 C140.53536167 74.72615088 116.30484786 69.03205624 91.82872009 62.70176697 C90.95647293 62.47751541 90.08422577 62.25326385 89.18554688 62.0222168 C88.42205933 61.82411911 87.65857178 61.62602142 86.87194824 61.42192078 C84.99464199 60.92670818 84.99464199 60.92670818 83 61 Z " fill="#000000" transform="translate(146,1604)"/>
<path d="M0 0 C72.93 0 145.86 0 221 0 C221 36.63 221 73.26 221 111 C208.79 111 196.58 111 184 111 C184 87.57 184 64.14 184 40 C166.18 40 148.36 40 130 40 C130 61.12 130 82.24 130 104 C117.79 104 105.58 104 93 104 C93 82.88 93 61.76 93 40 C74.52 40 56.04 40 37 40 C37 63.76 37 87.52 37 112 C24.79 112 12.58 112 0 112 C0 75.04 0 38.08 0 0 Z " fill="#000000" transform="translate(146,4492)"/>
<path d="M0 0 C72.93 0 145.86 0 221 0 C221 36.63 221 73.26 221 111 C208.79 111 196.58 111 184 111 C184 87.57 184 64.14 184 40 C166.18 40 148.36 40 130 40 C130 61.12 130 82.24 130 104 C117.79 104 105.58 104 93 104 C93 82.88 93 61.76 93 40 C74.52 40 56.04 40 37 40 C37 63.76 37 87.52 37 112 C24.79 112 12.58 112 0 112 C0 75.04 0 38.08 0 0 Z " fill="#000000" transform="translate(146,4051)"/>
<path d="M0 0 C72.93 0 145.86 0 221 0 C221 36.63 221 73.26 221 111 C208.79 111 196.58 111 184 111 C184 87.57 184 64.14 184 40 C166.18 40 148.36 40 130 40 C130 61.12 130 82.24 130 104 C117.79 104 105.58 104 93 104 C93 82.88 93 61.76 93 40 C74.52 40 56.04 40 37 40 C37 63.76 37 87.52 37 112 C24.79 112 12.58 112 0 112 C0 75.04 0 38.08 0 0 Z " fill="#000000" transform="translate(146,2607)"/>
<path d="M0 0 C72.93 0 145.86 0 221 0 C221 36.63 221 73.26 221 111 C208.79 111 196.58 111 184 111 C184 87.57 184 64.14 184 40 C166.18 40 148.36 40 130 40 C130 61.12 130 82.24 130 104 C117.79 104 105.58 104 93 104 C93 82.88 93 61.76 93 40 C74.52 40 56.04 40 37 40 C37 63.76 37 87.52 37 112 C24.79 112 12.58 112 0 112 C0 75.04 0 38.08 0 0 Z " fill="#000000" transform="translate(146,2166)"/>
<path d="M0 0 C72.93 0 145.86 0 221 0 C221 36.63 221 73.26 221 111 C208.79 111 196.58 111 184 111 C184 87.57 184 64.14 184 40 C166.18 40 148.36 40 130 40 C130 61.12 130 82.24 130 104 C117.79 104 105.58 104 93 104 C93 82.88 93 61.76 93 40 C74.52 40 56.04 40 37 40 C37 63.76 37 87.52 37 112 C24.79 112 12.58 112 0 112 C0 75.04 0 38.08 0 0 Z " fill="#000000" transform="translate(146,722)"/>
<path d="M0 0 C72.93 0 145.86 0 221 0 C221 36.63 221 73.26 221 111 C208.79 111 196.58 111 184 111 C184 87.57 184 64.14 184 40 C166.18 40 148.36 40 130 40 C130 61.12 130 82.24 130 104 C117.79 104 105.58 104 93 104 C93 82.88 93 61.76 93 40 C74.52 40 56.04 40 37 40 C37 63.76 37 87.52 37 112 C24.79 112 12.58 112 0 112 C0 75.04 0 38.08 0 0 Z " fill="#000000" transform="translate(146,281)"/>
<path d="M0 0 C12.21 0 24.42 0 37 0 C37 47.85 37 95.7 37 145 C24.79 145 12.58 145 0 145 C0 127.84 0 110.68 0 93 C-60.72 93 -121.44 93 -184 93 C-184 79.47 -184 65.94 -184 52 C-92.92 52.495 -92.92 52.495 0 53 C0 35.51 0 18.02 0 0 Z " fill="#000000" transform="translate(330,4330)"/>
<path d="M0 0 C12.21 0 24.42 0 37 0 C37 47.85 37 95.7 37 145 C24.79 145 12.58 145 0 145 C0 127.84 0 110.68 0 93 C-60.72 93 -121.44 93 -184 93 C-184 79.47 -184 65.94 -184 52 C-92.92 52.495 -92.92 52.495 0 53 C0 35.51 0 18.02 0 0 Z " fill="#000000" transform="translate(330,4175)"/>
<path d="M0 0 C12.21 0 24.42 0 37 0 C37 47.85 37 95.7 37 145 C24.79 145 12.58 145 0 145 C0 127.84 0 110.68 0 93 C-60.72 93 -121.44 93 -184 93 C-184 79.47 -184 65.94 -184 52 C-92.92 52.495 -92.92 52.495 0 53 C0 35.51 0 18.02 0 0 Z " fill="#000000" transform="translate(330,2445)"/>
<path d="M0 0 C12.21 0 24.42 0 37 0 C37 47.85 37 95.7 37 145 C24.79 145 12.58 145 0 145 C0 127.84 0 110.68 0 93 C-60.72 93 -121.44 93 -184 93 C-184 79.47 -184 65.94 -184 52 C-92.92 52.495 -92.92 52.495 0 53 C0 35.51 0 18.02 0 0 Z " fill="#000000" transform="translate(330,2290)"/>
<path d="M0 0 C12.21 0 24.42 0 37 0 C37 47.85 37 95.7 37 145 C24.79 145 12.58 145 0 145 C0 127.84 0 110.68 0 93 C-60.72 93 -121.44 93 -184 93 C-184 79.47 -184 65.94 -184 52 C-92.92 52.495 -92.92 52.495 0 53 C0 35.51 0 18.02 0 0 Z " fill="#000000" transform="translate(330,560)"/>
<path d="M0 0 C12.21 0 24.42 0 37 0 C37 47.85 37 95.7 37 145 C24.79 145 12.58 145 0 145 C0 127.84 0 110.68 0 93 C-60.72 93 -121.44 93 -184 93 C-184 79.47 -184 65.94 -184 52 C-92.92 52.495 -92.92 52.495 0 53 C0 35.51 0 18.02 0 0 Z " fill="#000000" transform="translate(330,405)"/>
</svg>
