<?xml version="1.0" encoding="utf-8"?>
<!-- Generator: Adobe Illustrator 22.0.1, SVG Export Plug-In . SVG Version: 6.00 Build 0)  -->
<svg version="1.1" id="Layer_1" xmlns="http://www.w3.org/2000/svg" xmlns:xlink="http://www.w3.org/1999/xlink" x="0px" y="0px"
	 viewBox="0 0 102.1 1160" style="enable-background:new 0 0 102.1 1160;" xml:space="preserve">
<style type="text/css">
	.st0{fill:#010101;}
</style>
<title>inn_graph_lateral</title>
<polygon class="st0" points="72.8,2262.9 67.8,2260.6 59.4,2260.6 52.3,2263.6 47.6,2270.4 43.2,2286.3 41,2289.3 40.2,2289.8 
	38,2290.2 35.4,2289.5 33.6,2287.6 32.5,2284.1 32.5,2278.9 34.1,2272.9 37.8,2266.6 28,2260.3 23.3,2267.9 20.8,2277.4 
	20.8,2286.1 23.5,2294.1 29.5,2299.9 37.1,2302.3 44.5,2301.1 49.4,2298 54,2291.5 58.3,2275.9 59.7,2273.4 61.9,2272.3 
	65.2,2272.3 66.5,2273 67.8,2274.1 69.6,2278.6 69.6,2284.2 67.8,2290.2 66.1,2292.7 62.3,2295.7 70.5,2304.2 74.8,2300.6 
	78.5,2295.4 81.2,2286.4 81.2,2276.6 77.8,2267.3 "/>
<path class="st0" d="M21.4,2253.1h59.2v-28.3l-3.5-7.4l-5.7-4.7l-8.6-2l-8.5,1.9l-4.9,3.3l-3.7-2.5l-7.1-1.8l-8.6,1.9l-6.6,6
	l-2.2,8.1v25.5H21.4z M33.1,2241.4V2229l0.9-3l1.8-1.6l2.9-0.6l2.3,0.6l0.7,0.5l1.8,2.7v14L33.1,2241.4z M55.1,2241.4v-13.8l1.7-2.8
	l2.2-1.3l3.8-0.9l3.3,0.8l1.7,1.4l1.2,2.6v13.9L55.1,2241.4z"/>
<path class="st0" d="M80.6,2173.4v-12.9l-25,11.1l-1.5-2.8l-6.4-4.3l-8.6-2.4l-9,2.6l-6.6,6.6l-2.1,8.1v25.4h59.1v-11.7H58.2v-9.9
	L80.6,2173.4z M33.1,2193.1v-12.3l1-3.4l2.2-2.2l3.1-0.9l3.3,0.9l2.3,1.5l1.6,3.3v13.1L33.1,2193.1z"/>
<polygon class="st0" points="69.3,2116.9 63,2114.9 21.4,2114.9 21.4,2126.7 61.2,2126.7 64.1,2127.5 67.8,2130.4 69.6,2135.1 
	69.6,2138.6 67.7,2143.5 64.1,2146.3 61.3,2147.1 21.4,2147.1 21.4,2158.9 63,2158.9 69.3,2156.9 77.3,2150.7 81.2,2140.8 
	81.2,2133 77.3,2123.1 "/>
<polygon class="st0" points="74.7,2068.6 69.1,2063.8 61.1,2072.2 66,2076.5 67.5,2078.4 69.6,2083.2 69.6,2088.1 67.5,2092.5 
	64.5,2095.4 60.2,2097.6 55.8,2098.6 46.2,2098.6 41.8,2097.6 37.4,2095.4 34.5,2092.4 32.5,2088.1 32.5,2083.2 34.5,2078.4 
	36,2076.6 40.9,2072.2 33,2063.8 27.3,2068.6 24.3,2072.6 20.8,2081.3 20.8,2090.3 24.7,2099.2 30.5,2105.1 37.9,2108.8 
	45.2,2110.3 56.9,2110.3 64,2108.8 71.4,2105.1 77.2,2099.4 81.2,2090.3 81.2,2081.3 77.8,2072.6 "/>
<polygon class="st0" points="80.6,2011.8 46.5,2035 21.4,2011.4 21.4,2027.8 42.7,2047.6 21.4,2047.6 21.4,2059.4 80.6,2059.4 
	80.6,2047.6 59.6,2047.6 55,2043.2 80.6,2026.2 "/>
<polygon class="st0" points="21.4,1961.3 33.1,1961.3 33.1,1949.3 69,1949.3 69,1961.7 80.6,1961.7 80.6,1925.2 69,1925.2 
	69,1937.6 33.1,1937.6 33.1,1925.6 21.4,1925.6 "/>
<polygon class="st0" points="80.6,1873.1 21.4,1873.1 21.4,1884.8 58.3,1884.8 21.4,1906.2 21.4,1917.1 80.6,1917.1 80.6,1905.4 
	45.5,1905.4 80.6,1884.9 "/>
<polygon class="st0" points="21.4,1870.1 33.1,1870.1 33.1,1852.8 80.6,1852.8 80.6,1841.1 33.1,1841.1 33.1,1823.5 21.4,1823.5 "/>
<polygon class="st0" points="21.4,1776.9 21.4,1816.8 80.6,1816.8 80.6,1776.9 69,1776.9 69,1805.1 55.1,1805.1 55.1,1785.4 
	43.5,1785.4 43.5,1805.1 33.1,1805.1 33.1,1776.9 "/>
<path class="st0" d="M80.6,1738.2v-12.9l-25,11.1l-1.5-2.8l-6.4-4.3l-8.6-2.4l-9,2.6l-6.6,6.6l-2.1,8.1v25.4h59.1v-11.7H58.2v-9.9
	L80.6,1738.2z M33.1,1757.9v-12.3l1-3.4l2.2-2.2l3.1-0.9l3.3,1l2.3,1.5l1.6,3.3v13H33.1z"/>
<polygon class="st0" points="80.6,1679.7 21.4,1679.7 21.4,1691.4 58.3,1691.4 21.4,1712.8 21.4,1723.7 80.6,1723.7 80.6,1711.9 
	45.5,1711.9 80.6,1691.5 "/>
<path class="st0" d="M80.6,1639.8v-12.5L21.4,1649v8.8l59.2,21.6v-12.5l-16.2-5.7v-15.5L80.6,1639.8z M52.9,1649.6v7.5l-10.9-3.7
	L52.9,1649.6z"/>
<polygon class="st0" points="21.4,1628.3 33.1,1628.3 33.1,1611 80.6,1611 80.6,1599.3 33.1,1599.3 33.1,1581.7 21.4,1581.7 "/>
<polygon class="st0" points="21.4,1538.8 21.4,1574.5 33.1,1574.5 33.1,1562.5 69,1562.5 69,1574.9 80.6,1574.9 80.6,1538.4 
	69,1538.4 69,1550.8 33.1,1550.8 33.1,1538.8 "/>
<path class="st0" d="M77.9,1495.6l-5.9-5.9l-7.6-3.8l-7.3-1.6H44.6l-7.4,1.7l-7.5,3.8L24,1496l-3.1,8.5v7.5l3.1,8.5l5.8,6.1l7.5,3.8
	l7.4,1.7H57l7.3-1.6l7.6-3.8l5.9-5.9l3.3-8.7v-7.8L77.9,1495.6z M69.6,1506.6v3.4l-1.6,4.4l-2.6,2.7l-4.5,2.3l-5,1.1H45.7l-4.4-1
	l-4.8-2.4l-2.5-2.8l-1.5-4.3v-3.5l1.5-4.2l2.5-2.8l4.8-2.4l4.4-1h10.1l5,1.1l4.5,2.3l2.6,2.7L69.6,1506.6z"/>
<polygon class="st0" points="80.6,1470.2 45.5,1470.2 80.6,1449.7 80.6,1437.9 21.4,1437.9 21.4,1449.6 58.3,1449.6 21.4,1471 
	21.4,1481.9 80.6,1481.9 "/>
<path class="st0" d="M80.6,1425l-16.2-5.7v-15.5l16.2-5.7v-12.5l-59.2,21.5v8.8l59.2,21.6L80.6,1425z M52.9,1407.8v7.5l-10.9-3.7
	L52.9,1407.8z"/>
<polygon class="st0" points="80.6,1340.3 69,1340.3 69,1369.6 21.4,1369.6 21.4,1381.3 80.6,1381.3 "/>
<polygon class="st0" points="69,1261.2 33.1,1261.2 33.1,1249.2 21.4,1249.2 21.4,1284.9 33.1,1284.9 33.1,1272.9 69,1272.9 
	69,1285.3 80.6,1285.3 80.6,1248.8 69,1248.8 "/>
<polygon class="st0" points="21.4,1208.3 58.3,1208.3 21.4,1229.8 21.4,1240.6 80.6,1240.6 80.6,1228.9 45.5,1228.9 80.6,1208.4 
	80.6,1196.6 21.4,1196.6 "/>
<polygon class="st0" points="21.4,1160 58.3,1160 21.4,1181.4 21.4,1192.3 80.6,1192.3 80.6,1180.6 45.5,1180.6 80.6,1160.1 
	80.6,1148.3 21.4,1148.3 "/>
<polygon class="st0" points="72.8,1102.9 67.8,1100.6 59.4,1100.6 52.3,1103.6 47.6,1110.4 43.2,1126.3 41,1129.3 40.2,1129.8 
	38,1130.2 35.4,1129.5 33.6,1127.6 32.5,1124.1 32.5,1118.9 34.1,1112.9 37.8,1106.6 28,1100.3 23.3,1107.9 20.8,1117.4 
	20.8,1126.1 23.5,1134.1 29.5,1139.9 37.1,1142.3 44.5,1141.1 49.4,1138 54,1131.5 58.3,1115.9 59.7,1113.4 61.9,1112.3 
	65.2,1112.3 66.5,1113 67.8,1114.1 69.6,1118.7 69.6,1124.2 67.8,1130.2 66.1,1132.7 62.3,1135.7 70.5,1144.2 74.8,1140.6 
	78.5,1135.4 81.2,1126.4 81.2,1116.6 77.8,1107.3 "/>
<path class="st0" d="M21.4,1093.1h59.2v-28.3l-3.5-7.4l-5.7-4.7l-8.6-2l-8.5,1.9l-4.9,3.3l-3.7-2.5l-7.1-1.8l-8.6,1.9l-6.6,6
	l-2.2,8.1v25.5H21.4z M33.1,1081.4V1069l0.9-3l1.8-1.6l2.9-0.6l2.3,0.6l0.7,0.5l1.8,2.7v14L33.1,1081.4z M55.1,1081.4v-13.8l1.7-2.8
	l2.2-1.3l3.8-0.9l3.3,0.8l1.7,1.4l1.2,2.6v13.8L55.1,1081.4z"/>
<path class="st0" d="M80.6,1013.4v-12.9l-25,11.1l-1.5-2.8l-6.4-4.3l-8.6-2.4l-9,2.6l-6.6,6.6l-2.1,8.1v25.4h59.1v-11.7H58.2v-9.9
	L80.6,1013.4z M33.1,1033.1v-12.3l1-3.4l2.2-2.2l3.1-0.9l3.3,1l2.3,1.5l1.6,3.3v13L33.1,1033.1L33.1,1033.1z"/>
<polygon class="st0" points="69.3,956.9 63,955 21.4,955 21.4,966.7 61.2,966.7 64.1,967.5 67.8,970.4 69.6,975.1 69.6,978.6 
	67.7,983.5 64.1,986.3 61.3,987.1 21.4,987.1 21.4,998.8 63,998.8 69.3,996.9 77.3,990.7 81.2,980.8 81.2,973 77.3,963.1 "/>
<polygon class="st0" points="74.7,908.6 69.1,903.8 61.1,912.2 66,916.5 67.5,918.4 69.6,923.2 69.6,928 67.5,932.5 64.5,935.4 
	60.2,937.6 55.8,938.6 46.2,938.6 41.8,937.6 37.4,935.4 34.5,932.5 32.5,928.1 32.5,923.2 34.5,918.4 36,916.6 40.9,912.2 
	33,903.8 27.3,908.6 24.3,912.6 20.8,921.3 20.8,930.3 24.7,939.2 30.5,945.1 37.9,948.8 45.2,950.3 56.9,950.3 64,948.8 
	71.4,945.1 77.2,939.4 81.2,930.3 81.2,921.3 77.8,912.6 "/>
<polygon class="st0" points="80.6,851.8 46.5,875 21.4,851.4 21.4,867.8 42.7,887.6 21.4,887.6 21.4,899.3 80.6,899.3 80.6,887.6 
	59.6,887.6 55,883.2 80.6,866.2 "/>
<polygon class="st0" points="21.4,801.3 33.1,801.3 33.1,789.3 69,789.3 69,801.7 80.6,801.7 80.6,765.2 69,765.2 69,777.6 
	33.1,777.6 33.1,765.6 21.4,765.6 "/>
<polygon class="st0" points="80.6,713.1 21.4,713.1 21.4,724.8 58.3,724.8 21.4,746.2 21.4,757.1 80.6,757.1 80.6,745.4 45.5,745.4 
	80.6,724.9 "/>
<polygon class="st0" points="21.4,710.1 33.1,710.1 33.1,692.8 80.6,692.8 80.6,681.1 33.1,681.1 33.1,663.5 21.4,663.5 "/>
<polygon class="st0" points="21.4,616.9 21.4,656.8 80.6,656.8 80.6,616.9 69,616.9 69,645.1 55.1,645.1 55.1,625.4 43.5,625.4 
	43.5,645.1 33.1,645.1 33.1,616.9 "/>
<path class="st0" d="M80.6,578.2v-12.9l-25,11.1l-1.5-2.8l-6.4-4.3l-8.6-2.4l-9,2.6l-6.6,6.6l-2.1,8.1v25.4h59.1v-11.7H58.2V588
	L80.6,578.2z M33.1,597.9v-12.3l1-3.4l2.2-2.2l3.1-0.9l3.3,1l2.3,1.5l1.6,3.3v13L33.1,597.9z"/>
<polygon class="st0" points="80.6,519.7 21.4,519.7 21.4,531.4 58.3,531.4 21.4,552.8 21.4,563.7 80.6,563.7 80.6,552 45.5,552 
	80.6,531.5 "/>
<path class="st0" d="M80.6,479.8v-12.5L21.4,489v8.8l59.2,21.6v-12.5l-16.2-5.7v-15.5L80.6,479.8z M52.9,489.6v7.5L42,493.3
	L52.9,489.6z"/>
<polygon class="st0" points="21.4,468.3 33.1,468.3 33.1,451 80.6,451 80.6,439.3 33.1,439.3 33.1,421.7 21.4,421.7 "/>
<polygon class="st0" points="21.4,378.8 21.4,414.5 33.1,414.5 33.1,402.5 69,402.5 69,414.9 80.6,414.9 80.6,378.4 69,378.4 
	69,390.8 33.1,390.8 33.1,378.8 "/>
<path class="st0" d="M77.9,335.6l-5.9-5.9l-7.6-3.8l-7.3-1.6H44.6l-7.4,1.6l-7.5,3.9L24,336l-3.1,8.5v7.5l3.1,8.6l5.8,6.1l7.5,3.9
	l7.4,1.6H57l7.3-1.6l7.6-3.8l5.9-5.9l3.3-8.7v-7.8L77.9,335.6z M69.6,346.6v3.4l-1.6,4.4l-2.6,2.7l-4.5,2.3l-5,1.1H45.7l-4.4-1
	l-4.8-2.4l-2.5-2.8l-1.5-4.3v-3.5l1.5-4.2l2.5-2.8l4.8-2.4l4.4-1h10.1l5,1.1l4.5,2.3l2.7,2.7L69.6,346.6z"/>
<polygon class="st0" points="80.6,310.2 45.5,310.2 80.6,289.7 80.6,277.9 21.4,277.9 21.4,289.6 58.3,289.6 21.4,311 21.4,321.9 
	80.6,321.9 "/>
<path class="st0" d="M80.6,265l-16.2-5.7v-15.5l16.2-5.7v-12.5l-59.2,21.6v8.8l59.2,21.5L80.6,265z M52.9,247.8v7.5L42,251.6
	L52.9,247.8z"/>
<polygon class="st0" points="80.6,180.3 69,180.3 69,209.6 21.4,209.6 21.4,221.3 80.6,221.3 "/>
<polygon class="st0" points="69,101.2 33.1,101.2 33.1,89.2 21.4,89.2 21.4,124.9 33.1,124.9 33.1,112.9 69,112.9 69,125.3 
	80.6,125.3 80.6,88.8 69,88.8 "/>
<polygon class="st0" points="21.4,48.3 58.3,48.3 21.4,69.8 21.4,80.6 80.6,80.6 80.6,68.9 45.5,68.9 80.6,48.4 80.6,36.6 
	21.4,36.6 "/>
<polygon class="st0" points="80.6,2320 80.6,2308.3 21.4,2308.3 21.4,2320 58.3,2320 "/>
<polygon class="st0" points="80.6,0 58.3,0 21.4,21.4 21.4,32.3 80.6,32.3 80.6,20.5 45.5,20.5 80.6,0.1 "/>
<polygon class="st0" points="72.8,4582.9 67.8,4580.6 59.4,4580.6 52.3,4583.5 47.6,4590.4 43.2,4606.3 41,4609.3 40.2,4609.8 
	38,4610.2 35.4,4609.5 33.6,4607.6 32.5,4604.1 32.5,4599 34.1,4592.9 37.8,4586.6 28,4580.3 23.3,4587.9 20.8,4597.4 20.8,4606.1 
	23.5,4614.1 29.5,4619.9 37.1,4622.3 44.5,4621.1 49.4,4618 54,4611.5 58.3,4596 59.7,4593.4 61.9,4592.3 65.2,4592.3 66.5,4593 
	67.8,4594.1 69.6,4598.6 69.6,4604.2 67.8,4610.2 66.1,4612.7 62.3,4615.7 70.5,4624.2 74.8,4620.6 78.5,4615.4 81.2,4606.4 
	81.2,4596.6 77.8,4587.3 "/>
<path class="st0" d="M21.4,4573.1h59.2v-28.3l-3.5-7.4l-5.7-4.7l-8.6-2l-8.5,1.9l-4.9,3.3l-3.7-2.5l-7.1-1.8l-8.6,1.9l-6.6,6
	l-2.2,8.1v25.5H21.4z M33.1,4561.4V4549l0.9-3l1.8-1.6l2.9-0.6l2.3,0.6l0.7,0.5l1.8,2.7v14L33.1,4561.4z M55.1,4561.4v-13.8l1.7-2.8
	l2.2-1.3l3.8-0.9l3.3,0.8l1.7,1.4l1.2,2.6v13.9L55.1,4561.4z"/>
<path class="st0" d="M80.6,4493.4v-12.9l-25,11.1l-1.5-2.8l-6.4-4.3l-8.6-2.4l-9,2.6l-6.6,6.6l-2.1,8.1v25.4h59.1v-11.7H58.2v-9.9
	L80.6,4493.4z M33.1,4513.1v-12.3l1-3.4l2.2-2.2l3.1-0.9l3.3,1l2.3,1.5l1.6,3.3v13H33.1z"/>
<polygon class="st0" points="69.3,4436.9 63,4435 21.4,4435 21.4,4446.7 61.2,4446.7 64.1,4447.5 67.8,4450.4 69.6,4455.1 
	69.6,4458.6 67.7,4463.5 64.1,4466.3 61.3,4467.1 21.4,4467.1 21.4,4478.9 63,4478.9 69.3,4476.9 77.3,4470.7 81.2,4460.8 
	81.2,4453 77.3,4443.1 "/>
<polygon class="st0" points="74.7,4388.6 69.1,4383.8 61.1,4392.2 66,4396.5 67.5,4398.4 69.6,4403.2 69.6,4408 67.5,4412.5 
	64.5,4415.4 60.2,4417.6 55.8,4418.6 46.2,4418.6 41.8,4417.6 37.4,4415.4 34.5,4412.5 32.5,4408.1 32.5,4403.2 34.5,4398.4 
	36,4396.6 40.9,4392.2 33,4383.8 27.3,4388.6 24.3,4392.6 20.8,4401.3 20.8,4410.3 24.7,4419.2 30.5,4425.1 37.9,4428.8 
	45.2,4430.3 56.9,4430.3 64,4428.8 71.4,4425.1 77.2,4419.4 81.2,4410.3 81.2,4401.3 77.8,4392.6 "/>
<polygon class="st0" points="80.6,4331.8 46.5,4355 21.4,4331.4 21.4,4347.8 42.7,4367.6 21.4,4367.6 21.4,4379.4 80.6,4379.4 
	80.6,4367.6 59.6,4367.6 55,4363.2 80.6,4346.2 "/>
<polygon class="st0" points="21.4,4281.4 33.1,4281.4 33.1,4269.3 69,4269.3 69,4281.7 80.6,4281.7 80.6,4245.2 69,4245.2 
	69,4257.6 33.1,4257.6 33.1,4245.6 21.4,4245.6 "/>
<polygon class="st0" points="80.6,4193.1 21.4,4193.1 21.4,4204.8 58.3,4204.8 21.4,4226.2 21.4,4237.1 80.6,4237.1 80.6,4225.4 
	45.5,4225.4 80.6,4204.9 "/>
<polygon class="st0" points="21.4,4190.1 33.1,4190.1 33.1,4172.8 80.6,4172.8 80.6,4161.1 33.1,4161.1 33.1,4143.5 21.4,4143.5 "/>
<polygon class="st0" points="21.4,4096.9 21.4,4136.8 80.6,4136.8 80.6,4096.9 69,4096.9 69,4125.1 55.1,4125.1 55.1,4105.4 
	43.5,4105.4 43.5,4125.1 33.1,4125.1 33.1,4096.9 "/>
<path class="st0" d="M80.6,4058.2v-12.9l-25,11.1l-1.5-2.8l-6.4-4.3l-8.6-2.4l-9,2.6l-6.6,6.6l-2.1,8.1v25.4h59.1v-11.7H58.2v-9.9
	L80.6,4058.2z M33.1,4077.9v-12.3l1-3.4l2.2-2.2l3.1-0.9l3.3,1l2.3,1.5l1.6,3.3v13L33.1,4077.9L33.1,4077.9z"/>
<polygon class="st0" points="80.6,3999.7 21.4,3999.7 21.4,4011.4 58.3,4011.4 21.4,4032.8 21.4,4043.7 80.6,4043.7 80.6,4031.9 
	45.5,4031.9 80.6,4011.5 "/>
<path class="st0" d="M80.6,3959.8v-12.5L21.4,3969v8.8l59.2,21.6v-12.5l-16.2-5.7v-15.5L80.6,3959.8z M52.9,3969.6v7.5l-10.9-3.7
	L52.9,3969.6z"/>
<polygon class="st0" points="21.4,3948.3 33.1,3948.3 33.1,3931 80.6,3931 80.6,3919.3 33.1,3919.3 33.1,3901.7 21.4,3901.7 "/>
<polygon class="st0" points="21.4,3858.8 21.4,3894.5 33.1,3894.5 33.1,3882.5 69,3882.5 69,3894.9 80.6,3894.9 80.6,3858.4 
	69,3858.4 69,3870.8 33.1,3870.8 33.1,3858.8 "/>
<path class="st0" d="M77.9,3815.6l-5.9-5.9l-7.6-3.8l-7.3-1.6H44.6l-7.4,1.6l-7.5,3.9L24,3816l-3.1,8.5v7.5l3.1,8.5l5.8,6.1l7.5,3.8
	l7.4,1.7H57l7.3-1.6l7.6-3.8l5.9-5.9l3.3-8.7v-7.8L77.9,3815.6z M69.6,3826.6v3.4l-1.6,4.4l-2.6,2.7l-4.5,2.3l-5,1.1H45.7l-4.4-1
	l-4.8-2.4l-2.5-2.8l-1.5-4.3v-3.5l1.5-4.2l2.5-2.8l4.8-2.4l4.4-1h10.1l5,1.1l4.5,2.3l2.6,2.7L69.6,3826.6z"/>
<polygon class="st0" points="80.6,3790.2 45.5,3790.2 80.6,3769.7 80.6,3757.9 21.4,3757.9 21.4,3769.6 58.3,3769.6 21.4,3791 
	21.4,3801.9 80.6,3801.9 "/>
<path class="st0" d="M80.6,3745.1l-16.2-5.7v-15.5l16.2-5.7v-12.5l-59.2,21.5v8.8l59.2,21.6L80.6,3745.1z M52.9,3727.8v7.5
	l-10.9-3.7L52.9,3727.8z"/>
<polygon class="st0" points="80.6,3660.3 69,3660.3 69,3689.6 21.4,3689.6 21.4,3701.3 80.6,3701.3 "/>
<polygon class="st0" points="69,3581.2 33.1,3581.2 33.1,3569.1 21.4,3569.1 21.4,3604.9 33.1,3604.9 33.1,3592.9 69,3592.9 
	69,3605.3 80.6,3605.3 80.6,3568.8 69,3568.8 "/>
<polygon class="st0" points="21.4,3528.4 58.3,3528.4 21.4,3549.8 21.4,3560.6 80.6,3560.6 80.6,3548.9 45.5,3548.9 80.6,3528.4 
	80.6,3516.6 21.4,3516.6 "/>
<polygon class="st0" points="21.4,3480 58.3,3480 21.4,3501.4 21.4,3512.3 80.6,3512.3 80.6,3500.6 45.5,3500.6 80.6,3480.1 
	80.6,3468.3 21.4,3468.3 "/>
<polygon class="st0" points="72.8,3422.9 67.8,3420.6 59.4,3420.6 52.3,3423.6 47.6,3430.4 43.2,3446.3 41,3449.3 40.2,3449.8 
	38,3450.2 35.4,3449.5 33.6,3447.6 32.5,3444.1 32.5,3438.9 34.1,3432.9 37.8,3426.6 28,3420.3 23.3,3427.9 20.8,3437.4 
	20.8,3446.1 23.5,3454.1 29.5,3459.9 37.1,3462.3 44.5,3461.1 49.4,3458 54,3451.5 58.3,3435.9 59.7,3433.4 61.9,3432.3 
	65.2,3432.3 66.5,3433 67.8,3434.1 69.6,3438.6 69.6,3444.2 67.8,3450.2 66.1,3452.7 62.3,3455.7 70.5,3464.2 74.8,3460.6 
	78.5,3455.4 81.2,3446.4 81.2,3436.6 77.8,3427.3 "/>
<path class="st0" d="M21.4,3413.1h59.2v-28.3l-3.5-7.4l-5.7-4.7l-8.6-2l-8.5,1.9l-4.9,3.3l-3.7-2.5l-7.1-1.8l-8.6,1.9l-6.6,6
	l-2.2,8.1v25.5H21.4z M33.1,3401.4V3389l0.9-3l1.8-1.6l2.9-0.6l2.3,0.6l0.7,0.5l1.8,2.7v14L33.1,3401.4z M55.1,3401.4v-13.8l1.7-2.8
	l2.2-1.3l3.8-0.9l3.3,0.8l1.7,1.4l1.2,2.6v13.8L55.1,3401.4z"/>
<path class="st0" d="M80.6,3333.4v-12.9l-25,11.1l-1.5-2.8l-6.4-4.3l-8.6-2.4l-9,2.6l-6.6,6.6l-2.1,8.1v25.4h59.1v-11.7H58.2v-9.9
	L80.6,3333.4z M33.1,3353.1v-12.3l1-3.4l2.2-2.2l3.1-0.9l3.3,1l2.3,1.5l1.6,3.3v13L33.1,3353.1L33.1,3353.1z"/>
<polygon class="st0" points="69.3,3276.9 63,3274.9 21.4,3274.9 21.4,3286.7 61.2,3286.7 64.1,3287.5 67.8,3290.4 69.6,3295.1 
	69.6,3298.6 67.7,3303.5 64.1,3306.3 61.3,3307.1 21.4,3307.1 21.4,3318.9 63,3318.9 69.3,3316.9 77.3,3310.7 81.2,3300.8 
	81.2,3293 77.3,3283.1 "/>
<polygon class="st0" points="74.7,3228.6 69.1,3223.8 61.1,3232.2 66,3236.5 67.5,3238.4 69.6,3243.2 69.6,3248.1 67.5,3252.5 
	64.5,3255.4 60.2,3257.6 55.8,3258.6 46.2,3258.6 41.8,3257.6 37.4,3255.4 34.5,3252.4 32.5,3248.1 32.5,3243.2 34.5,3238.4 
	36,3236.6 40.9,3232.2 33,3223.8 27.3,3228.6 24.3,3232.6 20.8,3241.3 20.8,3250.3 24.7,3259.2 30.5,3265.1 37.9,3268.8 
	45.2,3270.3 56.9,3270.3 64,3268.8 71.4,3265.1 77.2,3259.4 81.2,3250.3 81.2,3241.3 77.8,3232.6 "/>
<polygon class="st0" points="80.6,3171.8 46.5,3195 21.4,3171.4 21.4,3187.8 42.7,3207.6 21.4,3207.6 21.4,3219.4 80.6,3219.4 
	80.6,3207.6 59.6,3207.6 55,3203.2 80.6,3186.2 "/>
<polygon class="st0" points="21.4,3121.4 33.1,3121.4 33.1,3109.3 69,3109.3 69,3121.7 80.6,3121.7 80.6,3085.2 69,3085.2 
	69,3097.6 33.1,3097.6 33.1,3085.6 21.4,3085.6 "/>
<polygon class="st0" points="80.6,3033.1 21.4,3033.1 21.4,3044.8 58.3,3044.8 21.4,3066.2 21.4,3077.1 80.6,3077.1 80.6,3065.4 
	45.5,3065.4 80.6,3044.9 "/>
<polygon class="st0" points="21.4,3030.1 33.1,3030.1 33.1,3012.8 80.6,3012.8 80.6,3001.1 33.1,3001.1 33.1,2983.5 21.4,2983.5 "/>
<polygon class="st0" points="21.4,2936.9 21.4,2976.8 80.6,2976.8 80.6,2936.9 69,2936.9 69,2965.1 55.1,2965.1 55.1,2945.4 
	43.5,2945.4 43.5,2965.1 33.1,2965.1 33.1,2936.9 "/>
<path class="st0" d="M80.6,2898.2v-12.9l-25,11.1l-1.5-2.8l-6.4-4.3l-8.6-2.4l-9,2.6l-6.6,6.6l-2.1,8.1v25.4h59.1v-11.7H58.2v-9.9
	L80.6,2898.2z M33.1,2917.9v-12.3l1-3.4l2.2-2.2l3.1-0.9l3.3,0.9l2.3,1.5l1.6,3.3v13L33.1,2917.9z"/>
<polygon class="st0" points="80.6,2839.7 21.4,2839.7 21.4,2851.4 58.3,2851.4 21.4,2872.8 21.4,2883.7 80.6,2883.7 80.6,2871.9 
	45.5,2871.9 80.6,2851.5 "/>
<path class="st0" d="M80.6,2799.8v-12.5L21.4,2809v8.8l59.2,21.6v-12.5l-16.2-5.7v-15.5L80.6,2799.8z M52.9,2809.6v7.5l-10.9-3.7
	L52.9,2809.6z"/>
<polygon class="st0" points="21.4,2788.3 33.1,2788.3 33.1,2771 80.6,2771 80.6,2759.3 33.1,2759.3 33.1,2741.7 21.4,2741.7 "/>
<polygon class="st0" points="21.4,2698.8 21.4,2734.5 33.1,2734.5 33.1,2722.5 69,2722.5 69,2734.9 80.6,2734.9 80.6,2698.4 
	69,2698.4 69,2710.8 33.1,2710.8 33.1,2698.8 "/>
<path class="st0" d="M77.9,2655.6l-5.9-5.9l-7.6-3.8l-7.3-1.6H44.6l-7.4,1.7l-7.5,3.8L24,2656l-3.1,8.5v7.5l3.1,8.6l5.8,6.1l7.5,3.9
	l7.4,1.6H57l7.3-1.6l7.6-3.8l5.9-5.9l3.3-8.7v-7.8L77.9,2655.6z M69.6,2666.6v3.4l-1.6,4.4l-2.6,2.7l-4.5,2.3l-5,1.1H45.7l-4.4-1
	l-4.8-2.4l-2.5-2.8l-1.5-4.3v-3.5l1.5-4.2l2.5-2.8l4.8-2.4l4.4-1h10.1l5,1.1l4.5,2.3l2.7,2.7L69.6,2666.6z"/>
<polygon class="st0" points="80.6,2630.2 45.5,2630.2 80.6,2609.7 80.6,2597.9 21.4,2597.9 21.4,2609.6 58.3,2609.6 21.4,2631 
	21.4,2641.9 80.6,2641.9 "/>
<path class="st0" d="M80.6,2585.1l-16.2-5.7v-15.5l16.2-5.7v-12.5l-59.2,21.5v8.8l59.2,21.6L80.6,2585.1z M52.9,2567.8v7.5
	l-10.9-3.7L52.9,2567.8z"/>
<polygon class="st0" points="80.6,2500.3 69,2500.3 69,2529.6 21.4,2529.6 21.4,2541.3 80.6,2541.3 "/>
<polygon class="st0" points="69,2421.2 33.1,2421.2 33.1,2409.1 21.4,2409.1 21.4,2444.9 33.1,2444.9 33.1,2432.9 69,2432.9 
	69,2445.3 80.6,2445.3 80.6,2408.8 69,2408.8 "/>
<polygon class="st0" points="21.4,2368.4 58.3,2368.4 21.4,2389.8 21.4,2400.6 80.6,2400.6 80.6,2388.9 45.5,2388.9 80.6,2368.4 
	80.6,2356.6 21.4,2356.6 "/>
<polygon class="st0" points="80.6,4640 80.6,4628.3 21.4,4628.3 21.4,4640 58.3,4640 "/>
<polygon class="st0" points="80.6,2320 58.3,2320 21.4,2341.4 21.4,2352.3 80.6,2352.3 80.6,2340.6 45.5,2340.6 80.6,2320.1 "/>
<polygon class="st0" points="72.8,6902.9 67.8,6900.6 59.4,6900.6 52.3,6903.5 47.6,6910.4 43.2,6926.3 41,6929.3 40.2,6929.8 
	38,6930.2 35.4,6929.5 33.6,6927.6 32.5,6924.1 32.5,6919 34.1,6912.9 37.8,6906.6 28,6900.3 23.3,6907.9 20.8,6917.4 20.8,6926.1 
	23.5,6934.1 29.5,6939.9 37.1,6942.3 44.5,6941.1 49.4,6938 54,6931.5 58.3,6916 59.7,6913.4 61.9,6912.3 65.2,6912.3 66.5,6913 
	67.8,6914.1 69.6,6918.6 69.6,6924.2 67.8,6930.2 66.1,6932.7 62.3,6935.7 70.5,6944.2 74.8,6940.6 78.5,6935.4 81.2,6926.4 
	81.2,6916.6 77.8,6907.3 "/>
<path class="st0" d="M21.4,6893.1h59.2v-28.3l-3.5-7.4l-5.7-4.7l-8.6-2l-8.5,1.9l-4.9,3.3l-3.7-2.5l-7.1-1.8l-8.6,1.9l-6.6,6
	l-2.2,8.1v25.5H21.4z M33.1,6881.4V6869l0.9-3l1.8-1.6l2.9-0.6l2.3,0.6l0.7,0.5l1.8,2.7v14L33.1,6881.4z M55.1,6881.4v-13.8l1.7-2.8
	l2.2-1.3l3.8-0.9l3.3,0.8l1.7,1.4l1.2,2.6v13.9L55.1,6881.4z"/>
<path class="st0" d="M80.6,6813.4v-12.9l-25,11.1l-1.5-2.8l-6.4-4.3l-8.6-2.4l-9,2.6l-6.6,6.6l-2.1,8.1v25.4h59.1v-11.7H58.2v-9.9
	L80.6,6813.4z M33.1,6833.1v-12.3l1-3.4l2.2-2.2l3.1-0.9l3.3,1l2.3,1.5l1.6,3.3v13H33.1z"/>
<polygon class="st0" points="69.3,6756.9 63,6755 21.4,6755 21.4,6766.7 61.2,6766.7 64.1,6767.5 67.8,6770.4 69.6,6775.1 
	69.6,6778.6 67.7,6783.5 64.1,6786.3 61.3,6787.1 21.4,6787.1 21.4,6798.9 63,6798.9 69.3,6796.9 77.3,6790.7 81.2,6780.8 
	81.2,6773 77.3,6763.1 "/>
<polygon class="st0" points="74.7,6708.6 69.1,6703.8 61.1,6712.2 66,6716.5 67.5,6718.4 69.6,6723.2 69.6,6728 67.5,6732.5 
	64.5,6735.4 60.2,6737.6 55.8,6738.6 46.2,6738.6 41.8,6737.6 37.4,6735.4 34.5,6732.5 32.5,6728.1 32.5,6723.2 34.5,6718.4 
	36,6716.6 40.9,6712.2 33,6703.8 27.3,6708.6 24.3,6712.6 20.8,6721.3 20.8,6730.3 24.7,6739.2 30.5,6745.1 37.9,6748.8 
	45.2,6750.3 56.9,6750.3 64,6748.8 71.4,6745.1 77.2,6739.4 81.2,6730.3 81.2,6721.3 77.8,6712.6 "/>
<polygon class="st0" points="80.6,6651.8 46.5,6675 21.4,6651.4 21.4,6667.8 42.7,6687.6 21.4,6687.6 21.4,6699.4 80.6,6699.4 
	80.6,6687.6 59.6,6687.6 55,6683.2 80.6,6666.2 "/>
<polygon class="st0" points="21.4,6601.4 33.1,6601.4 33.1,6589.3 69,6589.3 69,6601.7 80.6,6601.7 80.6,6565.2 69,6565.2 
	69,6577.6 33.1,6577.6 33.1,6565.6 21.4,6565.6 "/>
<polygon class="st0" points="80.6,6513.1 21.4,6513.1 21.4,6524.8 58.3,6524.8 21.4,6546.2 21.4,6557.1 80.6,6557.1 80.6,6545.4 
	45.5,6545.4 80.6,6524.9 "/>
<polygon class="st0" points="21.4,6510.1 33.1,6510.1 33.1,6492.8 80.6,6492.8 80.6,6481.1 33.1,6481.1 33.1,6463.5 21.4,6463.5 "/>
<polygon class="st0" points="21.4,6416.9 21.4,6456.8 80.6,6456.8 80.6,6416.9 69,6416.9 69,6445.1 55.1,6445.1 55.1,6425.4 
	43.5,6425.4 43.5,6445.1 33.1,6445.1 33.1,6416.9 "/>
<path class="st0" d="M80.6,6378.2v-12.9l-25,11.1l-1.5-2.8l-6.4-4.3l-8.6-2.4l-9,2.6l-6.6,6.6l-2.1,8.1v25.4h59.1v-11.7H58.2v-9.9
	L80.6,6378.2z M33.1,6397.9v-12.3l1-3.4l2.2-2.2l3.1-0.9l3.3,1l2.3,1.5l1.6,3.3v13H33.1z"/>
<polygon class="st0" points="80.6,6319.7 21.4,6319.7 21.4,6331.4 58.3,6331.4 21.4,6352.8 21.4,6363.7 80.6,6363.7 80.6,6352 
	45.5,6352 80.6,6331.5 "/>
<path class="st0" d="M80.6,6279.8v-12.5L21.4,6289v8.8l59.2,21.6v-12.5l-16.2-5.7v-15.5L80.6,6279.8z M52.9,6289.6v7.5l-10.9-3.7
	L52.9,6289.6z"/>
<polygon class="st0" points="21.4,6268.3 33.1,6268.3 33.1,6251 80.6,6251 80.6,6239.3 33.1,6239.3 33.1,6221.7 21.4,6221.7 "/>
<polygon class="st0" points="21.4,6178.8 21.4,6214.5 33.1,6214.5 33.1,6202.5 69,6202.5 69,6214.9 80.6,6214.9 80.6,6178.4 
	69,6178.4 69,6190.8 33.1,6190.8 33.1,6178.8 "/>
<path class="st0" d="M77.9,6135.6l-5.9-5.9l-7.6-3.8l-7.3-1.6H44.6l-7.4,1.6l-7.5,3.9L24,6136l-3.1,8.5v7.5l3.1,8.5l5.8,6.1l7.5,3.9
	l7.4,1.6H57l7.3-1.6l7.6-3.8l5.9-5.9l3.3-8.7v-7.8L77.9,6135.6z M69.6,6146.6v3.4l-1.6,4.4l-2.6,2.7l-4.5,2.3l-5,1.1H45.7l-4.4-1
	l-4.8-2.4l-2.5-2.8l-1.5-4.3v-3.5l1.5-4.2l2.5-2.8l4.8-2.4l4.4-1h10.1l5,1.1l4.5,2.3l2.6,2.7L69.6,6146.6z"/>
<polygon class="st0" points="80.6,6110.2 45.5,6110.2 80.6,6089.7 80.6,6077.9 21.4,6077.9 21.4,6089.6 58.3,6089.6 21.4,6111 
	21.4,6121.9 80.6,6121.9 "/>
<path class="st0" d="M80.6,6065l-16.2-5.7v-15.5l16.2-5.7v-12.5l-59.2,21.6v8.8l59.2,21.6L80.6,6065z M52.9,6047.8v7.5l-10.9-3.7
	L52.9,6047.8z"/>
<polygon class="st0" points="80.6,5980.3 69,5980.3 69,6009.5 21.4,6009.5 21.4,6021.3 80.6,6021.3 "/>
<polygon class="st0" points="69,5901.2 33.1,5901.2 33.1,5889.1 21.4,5889.1 21.4,5924.9 33.1,5924.9 33.1,5912.9 69,5912.9 
	69,5925.3 80.6,5925.3 80.6,5888.8 69,5888.8 "/>
<polygon class="st0" points="21.4,5848.4 58.3,5848.4 21.4,5869.8 21.4,5880.6 80.6,5880.6 80.6,5868.9 45.5,5868.9 80.6,5848.4 
	80.6,5836.6 21.4,5836.6 "/>
<polygon class="st0" points="21.4,5800 58.3,5800 21.4,5821.4 21.4,5832.3 80.6,5832.3 80.6,5820.5 45.5,5820.5 80.6,5800 
	80.6,5788.3 21.4,5788.3 "/>
<polygon class="st0" points="72.8,5742.9 67.8,5740.6 59.4,5740.6 52.3,5743.5 47.6,5750.4 43.2,5766.3 41,5769.3 40.2,5769.8 
	38,5770.2 35.4,5769.5 33.6,5767.6 32.5,5764.1 32.5,5759 34.1,5752.9 37.8,5746.6 28,5740.3 23.3,5747.9 20.8,5757.4 20.8,5766.1 
	23.5,5774.1 29.5,5779.9 37.1,5782.3 44.5,5781.1 49.4,5778 54,5771.5 58.3,5756 59.7,5753.4 61.9,5752.3 65.2,5752.3 66.5,5753 
	67.8,5754.1 69.6,5758.6 69.6,5764.2 67.8,5770.2 66.1,5772.7 62.3,5775.7 70.5,5784.2 74.8,5780.6 78.5,5775.4 81.2,5766.4 
	81.2,5756.6 77.8,5747.3 "/>
<path class="st0" d="M21.4,5733.1h59.2v-28.3l-3.5-7.4l-5.7-4.7l-8.6-2l-8.5,1.9l-4.9,3.3l-3.7-2.5l-7.1-1.8l-8.6,1.9l-6.6,6
	l-2.2,8.1v25.5H21.4z M33.1,5721.4V5709l0.9-3l1.8-1.6l2.9-0.6l2.3,0.6l0.7,0.5l1.8,2.7v14L33.1,5721.4z M55.1,5721.4v-13.8l1.7-2.8
	l2.2-1.3l3.8-0.9l3.3,0.8l1.7,1.4l1.2,2.6v13.9L55.1,5721.4L55.1,5721.4z"/>
<path class="st0" d="M80.6,5653.4v-12.9l-25,11.1l-1.5-2.8l-6.4-4.3l-8.6-2.4l-9,2.6l-6.6,6.6l-2.1,8.1v25.4h59.1v-11.7H58.2v-9.9
	L80.6,5653.4z M33.1,5673.1v-12.3l1-3.4l2.2-2.2l3.1-0.9l3.3,1l2.3,1.5l1.6,3.3v13H33.1z"/>
<polygon class="st0" points="69.3,5596.9 63,5595 21.4,5595 21.4,5606.7 61.2,5606.7 64.1,5607.5 67.8,5610.4 69.6,5615.1 
	69.6,5618.6 67.7,5623.5 64.1,5626.3 61.3,5627.1 21.4,5627.1 21.4,5638.9 63,5638.9 69.3,5636.9 77.3,5630.7 81.2,5620.8 
	81.2,5613 77.3,5603.1 "/>
<polygon class="st0" points="74.7,5548.6 69.1,5543.8 61.1,5552.2 66,5556.5 67.5,5558.4 69.6,5563.2 69.6,5568 67.5,5572.5 
	64.5,5575.4 60.2,5577.6 55.8,5578.6 46.2,5578.6 41.8,5577.6 37.4,5575.4 34.5,5572.5 32.5,5568.1 32.5,5563.2 34.5,5558.4 
	36,5556.6 40.9,5552.2 33,5543.8 27.3,5548.6 24.3,5552.6 20.8,5561.3 20.8,5570.3 24.7,5579.2 30.5,5585.1 37.9,5588.8 
	45.2,5590.3 56.9,5590.3 64,5588.8 71.4,5585.1 77.2,5579.4 81.2,5570.3 81.2,5561.3 77.8,5552.6 "/>
<polygon class="st0" points="80.6,5491.8 46.5,5515 21.4,5491.4 21.4,5507.8 42.7,5527.6 21.4,5527.6 21.4,5539.4 80.6,5539.4 
	80.6,5527.6 59.6,5527.6 55,5523.2 80.6,5506.2 "/>
<polygon class="st0" points="21.4,5441.4 33.1,5441.4 33.1,5429.3 69,5429.3 69,5441.7 80.6,5441.7 80.6,5405.2 69,5405.2 
	69,5417.6 33.1,5417.6 33.1,5405.6 21.4,5405.6 "/>
<polygon class="st0" points="80.6,5353.1 21.4,5353.1 21.4,5364.8 58.3,5364.8 21.4,5386.2 21.4,5397.1 80.6,5397.1 80.6,5385.4 
	45.5,5385.4 80.6,5364.9 "/>
<polygon class="st0" points="21.4,5350.1 33.1,5350.1 33.1,5332.8 80.6,5332.8 80.6,5321.1 33.1,5321.1 33.1,5303.5 21.4,5303.5 "/>
<polygon class="st0" points="21.4,5256.9 21.4,5296.8 80.6,5296.8 80.6,5256.9 69,5256.9 69,5285.1 55.1,5285.1 55.1,5265.4 
	43.5,5265.4 43.5,5285.1 33.1,5285.1 33.1,5256.9 "/>
<path class="st0" d="M80.6,5218.2v-12.9l-25,11.1l-1.5-2.8l-6.4-4.3l-8.6-2.4l-9,2.6l-6.6,6.6l-2.1,8.1v25.4h59.1v-11.7H58.2v-9.9
	L80.6,5218.2z M33.1,5237.9v-12.3l1-3.4l2.2-2.2l3.1-0.9l3.3,0.9l2.3,1.5l1.6,3.3v13L33.1,5237.9z"/>
<polygon class="st0" points="80.6,5159.7 21.4,5159.7 21.4,5171.4 58.3,5171.4 21.4,5192.8 21.4,5203.7 80.6,5203.7 80.6,5192 
	45.5,5192 80.6,5171.5 "/>
<path class="st0" d="M80.6,5119.8v-12.5L21.4,5129v8.8l59.2,21.5v-12.5l-16.2-5.7v-15.5L80.6,5119.8z M52.9,5129.6v7.5l-10.9-3.7
	L52.9,5129.6z"/>
<polygon class="st0" points="21.4,5108.3 33.1,5108.3 33.1,5091 80.6,5091 80.6,5079.3 33.1,5079.3 33.1,5061.7 21.4,5061.7 "/>
<polygon class="st0" points="21.4,5018.8 21.4,5054.5 33.1,5054.5 33.1,5042.5 69,5042.5 69,5054.9 80.6,5054.9 80.6,5018.4 
	69,5018.4 69,5030.8 33.1,5030.8 33.1,5018.8 "/>
<path class="st0" d="M77.9,4975.6l-5.9-5.9l-7.6-3.8l-7.3-1.6H44.6l-7.4,1.6l-7.5,3.9L24,4976l-3.1,8.5v7.5l3.1,8.6l5.8,6.1l7.5,3.9
	l7.4,1.6H57l7.3-1.6l7.6-3.8l5.9-5.9l3.3-8.7v-7.8L77.9,4975.6z M69.6,4986.6v3.4l-1.6,4.4l-2.6,2.7l-4.5,2.3l-5,1.1H45.7l-4.4-1
	l-4.8-2.4l-2.5-2.8l-1.5-4.3v-3.5l1.5-4.2l2.5-2.8l4.8-2.4l4.4-1h10.1l5,1.1l4.5,2.3l2.7,2.7L69.6,4986.6z"/>
<polygon class="st0" points="80.6,4950.2 45.5,4950.2 80.6,4929.7 80.6,4917.9 21.4,4917.9 21.4,4929.6 58.3,4929.6 21.4,4951 
	21.4,4961.9 80.6,4961.9 "/>
<path class="st0" d="M80.6,4905l-16.2-5.7v-15.5l16.2-5.7v-12.5l-59.2,21.6v8.8l59.2,21.5L80.6,4905z M52.9,4887.8v7.5l-10.9-3.7
	L52.9,4887.8z"/>
<polygon class="st0" points="80.6,4820.3 69,4820.3 69,4849.5 21.4,4849.5 21.4,4861.3 80.6,4861.3 "/>
<polygon class="st0" points="69,4741.2 33.1,4741.2 33.1,4729.1 21.4,4729.1 21.4,4764.9 33.1,4764.9 33.1,4752.9 69,4752.9 
	69,4765.3 80.6,4765.3 80.6,4728.8 69,4728.8 "/>
<polygon class="st0" points="21.4,4688.4 58.3,4688.4 21.4,4709.8 21.4,4720.6 80.6,4720.6 80.6,4708.9 45.5,4708.9 80.6,4688.4 
	80.6,4676.6 21.4,4676.6 "/>
<polygon class="st0" points="80.6,6960 80.6,6948.3 21.4,6948.3 21.4,6960 58.3,6960 "/>
<polygon class="st0" points="80.6,4640 58.3,4640 21.4,4661.4 21.4,4672.3 80.6,4672.3 80.6,4660.5 45.5,4660.5 "/>
<polygon class="st0" points="72.8,8062.9 67.8,8060.6 59.4,8060.6 52.3,8063.5 47.6,8070.4 43.2,8086.3 41,8089.3 40.2,8089.8 
	38,8090.2 35.4,8089.5 33.6,8087.6 32.5,8084.1 32.5,8079 34.1,8072.9 37.8,8066.6 28,8060.3 23.3,8067.9 20.8,8077.4 20.8,8086.1 
	23.5,8094.1 29.5,8099.9 37.1,8102.3 44.5,8101.1 49.4,8098 54,8091.5 58.3,8076 59.7,8073.4 61.9,8072.3 65.2,8072.3 66.5,8073 
	67.8,8074.1 69.6,8078.6 69.6,8084.2 67.8,8090.2 66.1,8092.7 62.3,8095.7 70.5,8104.2 74.8,8100.6 78.5,8095.4 81.2,8086.4 
	81.2,8076.6 77.8,8067.3 "/>
<path class="st0" d="M21.4,8053.1h59.2v-28.3l-3.5-7.4l-5.7-4.7l-8.6-2l-8.5,1.9l-4.9,3.3l-3.7-2.5l-7.1-1.8l-8.6,1.9l-6.6,6
	l-2.2,8.1v25.5H21.4z M33.1,8041.4V8029l0.9-3l1.8-1.6l2.9-0.6l2.3,0.6l0.7,0.5l1.8,2.7v14L33.1,8041.4z M55.1,8041.4v-13.8l1.7-2.8
	l2.2-1.3l3.8-0.9l3.3,0.8l1.7,1.4l1.2,2.6v13.9L55.1,8041.4L55.1,8041.4z"/>
<path class="st0" d="M80.6,7973.4v-12.9l-25,11.1l-1.5-2.8l-6.4-4.3l-8.6-2.4l-9,2.6l-6.6,6.6l-2.1,8.1v25.4h59.1v-11.7H58.2v-9.9
	L80.6,7973.4z M33.1,7993.1v-12.3l1-3.4l2.2-2.2l3.1-0.9l3.3,1l2.3,1.5l1.6,3.3v13H33.1z"/>
<polygon class="st0" points="69.3,7916.9 63,7915 21.4,7915 21.4,7926.7 61.2,7926.7 64.1,7927.5 67.8,7930.4 69.6,7935.1 
	69.6,7938.6 67.7,7943.5 64.1,7946.3 61.3,7947.1 21.4,7947.1 21.4,7958.9 63,7958.9 69.3,7956.9 77.3,7950.7 81.2,7940.8 
	81.2,7933 77.3,7923.1 "/>
<polygon class="st0" points="74.7,7868.6 69.1,7863.8 61.1,7872.2 66,7876.5 67.5,7878.4 69.6,7883.2 69.6,7888 67.5,7892.5 
	64.5,7895.4 60.2,7897.6 55.8,7898.6 46.2,7898.6 41.8,7897.6 37.4,7895.4 34.5,7892.5 32.5,7888.1 32.5,7883.2 34.5,7878.4 
	36,7876.6 40.9,7872.2 33,7863.8 27.3,7868.6 24.3,7872.6 20.8,7881.3 20.8,7890.3 24.7,7899.2 30.5,7905.1 37.9,7908.8 
	45.2,7910.3 56.9,7910.3 64,7908.8 71.4,7905.1 77.2,7899.4 81.2,7890.3 81.2,7881.3 77.8,7872.6 "/>
<polygon class="st0" points="80.6,7811.8 46.5,7835 21.4,7811.4 21.4,7827.8 42.7,7847.6 21.4,7847.6 21.4,7859.4 80.6,7859.4 
	80.6,7847.6 59.6,7847.6 55,7843.2 80.6,7826.2 "/>
<polygon class="st0" points="21.4,7761.4 33.1,7761.4 33.1,7749.3 69,7749.3 69,7761.7 80.6,7761.7 80.6,7725.2 69,7725.2 
	69,7737.6 33.1,7737.6 33.1,7725.6 21.4,7725.6 "/>
<polygon class="st0" points="80.6,7673.1 21.4,7673.1 21.4,7684.8 58.3,7684.8 21.4,7706.2 21.4,7717.1 80.6,7717.1 80.6,7705.4 
	45.5,7705.4 80.6,7684.9 "/>
<polygon class="st0" points="21.4,7670.1 33.1,7670.1 33.1,7652.8 80.6,7652.8 80.6,7641.1 33.1,7641.1 33.1,7623.5 21.4,7623.5 "/>
<polygon class="st0" points="21.4,7576.9 21.4,7616.8 80.6,7616.8 80.6,7576.9 69,7576.9 69,7605.1 55.1,7605.1 55.1,7585.4 
	43.5,7585.4 43.5,7605.1 33.1,7605.1 33.1,7576.9 "/>
<path class="st0" d="M80.6,7538.2v-12.9l-25,11.1l-1.5-2.8l-6.4-4.3l-8.6-2.4l-9,2.6l-6.6,6.6l-2.1,8.1v25.4h59.1v-11.7H58.2v-9.9
	L80.6,7538.2z M33.1,7557.9v-12.3l1-3.4l2.2-2.2l3.1-0.9l3.3,0.9l2.3,1.5l1.6,3.3v13L33.1,7557.9z"/>
<polygon class="st0" points="80.6,7479.7 21.4,7479.7 21.4,7491.4 58.3,7491.4 21.4,7512.8 21.4,7523.7 80.6,7523.7 80.6,7512 
	45.5,7512 80.6,7491.5 "/>
<path class="st0" d="M80.6,7439.8v-12.5L21.4,7449v8.8l59.2,21.5v-12.5l-16.2-5.7v-15.5L80.6,7439.8z M52.9,7449.6v7.5l-10.9-3.7
	L52.9,7449.6z"/>
<polygon class="st0" points="21.4,7428.3 33.1,7428.3 33.1,7411 80.6,7411 80.6,7399.3 33.1,7399.3 33.1,7381.7 21.4,7381.7 "/>
<polygon class="st0" points="21.4,7338.8 21.4,7374.5 33.1,7374.5 33.1,7362.5 69,7362.5 69,7374.9 80.6,7374.9 80.6,7338.4 
	69,7338.4 69,7350.8 33.1,7350.8 33.1,7338.8 "/>
<path class="st0" d="M77.9,7295.6l-5.9-5.9l-7.6-3.8l-7.3-1.6H44.6l-7.4,1.6l-7.5,3.9L24,7296l-3.1,8.5v7.5l3.1,8.6l5.8,6.1l7.5,3.9
	l7.4,1.6H57l7.3-1.6l7.6-3.8l5.9-5.9l3.3-8.7v-7.8L77.9,7295.6z M69.6,7306.6v3.4l-1.6,4.4l-2.6,2.7l-4.5,2.3l-5,1.1H45.7l-4.4-1
	l-4.8-2.4l-2.5-2.8l-1.5-4.3v-3.5l1.5-4.2l2.5-2.8l4.8-2.4l4.4-1h10.1l5,1.1l4.5,2.3l2.7,2.7L69.6,7306.6z"/>
<polygon class="st0" points="80.6,7270.2 45.5,7270.2 80.6,7249.7 80.6,7237.9 21.4,7237.9 21.4,7249.6 58.3,7249.6 21.4,7271 
	21.4,7281.9 80.6,7281.9 "/>
<path class="st0" d="M80.6,7225l-16.2-5.7v-15.5l16.2-5.7v-12.5l-59.2,21.6v8.8l59.2,21.5L80.6,7225z M52.9,7207.8v7.5l-10.9-3.7
	L52.9,7207.8z"/>
<polygon class="st0" points="80.6,7140.3 69,7140.3 69,7169.5 21.4,7169.5 21.4,7181.3 80.6,7181.3 "/>
<polygon class="st0" points="69,7061.2 33.1,7061.2 33.1,7049.1 21.4,7049.1 21.4,7084.9 33.1,7084.9 33.1,7072.9 69,7072.9 
	69,7085.3 80.6,7085.3 80.6,7048.8 69,7048.8 "/>
<polygon class="st0" points="21.4,7008.4 58.3,7008.4 21.4,7029.8 21.4,7040.6 80.6,7040.6 80.6,7028.9 45.5,7028.9 80.6,7008.4 
	80.6,6996.6 21.4,6996.6 "/>
<polygon class="st0" points="80.6,6960 58.3,6960 21.4,6981.4 21.4,6992.3 80.6,6992.3 80.6,6980.5 45.5,6980.5 "/>
<polygon class="st0" points="80.6,8120 80.6,8108.3 21.4,8108.3 21.4,8120 58.3,8120 "/>
</svg>
