<svg id="Layer_1" data-name="Layer 1" xmlns="http://www.w3.org/2000/svg" viewBox="0 0 608.87 122.99"><defs><style>.cls-1{fill:#fff;}</style></defs><title>Untitled-1</title><path class="cls-1" d="M44.07,1.29.25,121.58H20.7L32.93,87.15H70l12.23,34.43h20.45L58.82,1.29ZM63.4,68.22H39.48l12-34.8Z"/><polygon class="cls-1" points="155.34 76.85 183.34 76.85 183.34 81.51 182.37 86.49 177.58 94.18 170.69 100.19 162.49 103.78 151.06 103.78 140.55 98.82 133.67 91.79 128.57 81.9 126.32 71.81 126.32 50.9 128.58 40.8 133.67 30.77 140.68 23.75 151.03 19.09 162.29 19.09 173.77 23.11 178.44 26.65 185.45 35.15 199.72 22.75 191.4 12.72 183.21 6.45 165.56 0 147.53 0 129.58 7.86 117.73 19.37 110.27 34.47 107.07 49.29 107.07 73.58 110.27 88.08 117.72 103.15 129.23 114.83 147.53 122.87 165.97 122.87 181.46 116.16 193.09 105.73 200.67 92.98 202.58 82.7 202.58 57.76 155.34 57.76 155.34 76.85"/><polygon class="cls-1" points="300.25 102.5 240.24 102.5 240.24 67.36 282.23 67.36 282.23 48.27 240.24 48.27 240.24 20.38 300.25 20.38 300.25 1.29 220.99 1.29 220.99 121.58 300.25 121.58 300.25 102.5"/><polygon class="cls-1" points="335.65 39.1 383.79 121.58 404.36 121.58 404.36 1.29 385.11 1.29 385.11 87.57 335.05 1.29 316.4 1.29 316.4 121.58 335.65 121.58 335.65 39.1"/><polygon class="cls-1" points="453.34 121.58 472.58 121.58 472.58 20.38 510.07 20.38 510.07 1.29 416.49 1.29 416.49 20.38 453.34 20.38 453.34 121.58"/><polygon class="cls-1" points="557.22 122.87 577.16 122.87 595.9 115.99 604.4 106.26 608.87 96.6 608.87 79.75 603.16 66.02 589.65 56.71 555.73 47.39 548.45 42.11 546.92 39.52 545.72 33.64 547.72 26.7 552.63 21.79 561.16 19.09 573.03 19.09 586.75 22.74 598.01 29.46 608.42 13.28 595.02 5.03 575.57 0 557.83 0 541.88 5.2 530.59 17.01 525.83 32.02 528.3 46.49 534.23 56.02 547.2 65.19 580.16 74.23 586.63 77.95 589.62 83.93 589.62 92.22 587.83 95.93 584.7 99.58 573.84 103.78 560.98 103.78 547.35 99.69 541.5 95.7 536.71 89.64 522.76 103.12 528.44 110.04 538.81 117.3 557.22 122.87"/></svg>