<svg id="Layer_1" data-name="Layer 1" xmlns="http://www.w3.org/2000/svg" viewBox="0 0 197.22 122.87"><defs><style>.cls-1{fill:#fff;}</style></defs><title>Untitled-1</title><path class="cls-1" d="M11,104.29,22.7,116.17l17.51,6.7H55.78l17.52-6.7L85,104.29l7.78-15.4,3.2-15V48L92.63,32.83,84.82,17.72,72.58,6.17,55.43,0H40.57L23.41,6.17,11.18,17.72,3.37,32.83,0,48V73.89l3.2,15Zm41.19-85.2,10.06,3.5L69,28.73l5.54,10.94,2.26,10.1v22L74.32,83.21,69.08,93.54l-6.45,6.3-10.5,3.94H43.87L33.36,99.84l-6.44-6.3L21.68,83.21,19.25,71.82v-22l2.26-10.1,5.54-10.94,6.72-6.14,10.06-3.5Z"/><polygon class="cls-1" points="114.56 121.58 133.81 121.58 133.81 67.36 181.28 67.36 181.28 48.27 133.81 48.27 133.81 20.38 197.05 20.38 197.05 1.29 114.56 1.29 114.56 121.58"/></svg>