<svg id="Layer_1" data-name="Layer 1" xmlns="http://www.w3.org/2000/svg" viewBox="0 0 603.2 123.93"><defs><style>.cls-1{fill:#fff;}</style></defs><title>Untitled-1</title><polygon class="cls-1" points="22.81 41.41 27.9 31.37 34.91 24.36 45.27 19.7 56.74 19.7 67.88 24.45 72.36 28.07 79.86 36.42 93.57 23.4 85.3 13.64 77.48 7.57 59.83 0.61 41.76 0.61 23.81 8.47 11.96 19.98 4.5 35.08 1.3 49.9 1.3 74.19 4.5 88.69 11.95 103.76 23.46 115.44 41.76 123.48 59.83 123.48 77.48 116.52 85.3 110.44 93.57 100.68 79.83 87.64 72.51 96.03 68.05 99.63 56.75 104.39 45.29 104.39 34.78 99.43 27.9 92.4 22.81 82.51 20.55 72.42 20.55 51.51 22.81 41.41"/><polygon class="cls-1" points="170.25 48.88 125.62 48.88 125.62 1.89 106.37 1.89 106.37 122.19 125.62 122.19 125.62 67.97 170.25 67.97 170.25 122.19 189.5 122.19 189.5 1.89 170.25 1.89 170.25 48.88"/><path class="cls-1" d="M243.54,1.89l-43.82,120.3h20.45L232.4,87.76h37l12.23,34.43h20.45L258.29,1.89Zm19.33,66.94H239l12-34.81Z"/><polygon class="cls-1" points="378.62 88.18 328.56 1.89 309.92 1.89 309.92 122.19 329.16 122.19 329.16 39.71 377.3 122.19 397.87 122.19 397.87 1.89 378.62 1.89 378.62 88.18"/><polygon class="cls-1" points="457.79 77.46 485.78 77.46 485.78 82.11 484.81 87.09 480.03 94.78 473.13 100.8 464.94 104.39 453.51 104.39 443 99.43 436.12 92.4 431.02 82.51 428.76 72.42 428.76 51.51 431.03 41.41 436.12 31.37 443.13 24.36 453.48 19.7 464.74 19.7 476.22 23.72 480.88 27.26 487.9 35.76 502.17 23.36 493.84 13.32 485.66 7.05 468.01 0.61 449.98 0.61 432.03 8.47 420.18 19.98 412.72 35.08 409.51 49.9 409.51 74.19 412.72 88.69 420.17 103.76 431.68 115.44 449.98 123.48 468.42 123.48 483.91 116.77 495.54 106.33 503.12 93.59 505.03 83.31 505.03 58.37 457.79 58.37 457.79 77.46"/><polygon class="cls-1" points="523.44 122.19 602.7 122.19 602.7 103.1 542.68 103.1 542.68 67.97 584.68 67.97 584.68 48.88 542.68 48.88 542.68 20.98 602.7 20.98 602.7 1.89 523.44 1.89 523.44 122.19"/></svg>