<svg id="Layer_1" data-name="Layer 1" xmlns="http://www.w3.org/2000/svg" viewBox="0 0 604.47 123.24"><defs><style>.cls-1{fill:#fff;}</style></defs><title>Untitled-1</title><polygon class="cls-1" points="65.07 95.93 61.94 99.58 51.08 103.78 38.23 103.78 24.6 99.69 18.75 95.7 13.95 89.64 0 103.12 5.68 110.04 16.05 117.3 34.46 122.87 54.41 122.87 73.14 115.99 81.64 106.26 86.11 96.6 86.11 79.75 80.41 66.02 66.89 56.71 32.98 47.39 25.7 42.11 24.17 39.52 22.96 33.64 24.97 26.7 29.87 21.79 38.41 19.09 50.28 19.09 63.99 22.74 75.25 29.46 85.66 13.28 72.27 5.03 52.81 0 35.07 0 19.12 5.2 7.84 17.01 3.07 32.02 5.54 46.49 11.47 56.02 24.45 65.19 57.41 74.23 63.87 77.95 66.86 83.93 66.86 92.22 65.07 95.93"/><path class="cls-1" d="M183.39,17.72,171.15,6.17,154,0H139.13L122,6.17,109.74,17.72l-7.8,15.11L98.56,48V73.89l3.21,15,7.78,15.4,11.71,11.88,17.52,6.7h15.57l17.52-6.7,11.71-11.88,7.78-15.4,3.2-15V48l-3.37-15.17Zm-41,86.06-10.5-3.94-6.45-6.3-5.24-10.33-2.43-11.39v-22l2.27-10.1,5.54-10.94,6.72-6.14,10.06-3.5h8.33l10.06,3.5,6.72,6.14,5.54,10.94,2.27,10.1v22l-2.43,11.39-5.24,10.33-6.45,6.3-10.5,3.94Z"/><polygon class="cls-1" points="227.4 40.8 232.49 30.77 239.5 23.75 249.86 19.09 261.33 19.09 272.47 23.84 276.95 27.46 284.45 35.81 298.16 22.8 289.89 13.04 282.07 6.96 264.42 0 246.35 0 228.4 7.86 216.56 19.37 209.09 34.47 205.89 49.29 205.89 73.58 209.09 88.08 216.54 103.15 228.05 114.83 246.35 122.87 264.42 122.87 282.07 115.91 289.89 109.83 298.16 100.07 284.42 87.03 277.1 95.43 272.64 99.03 261.34 103.78 249.88 103.78 239.37 98.82 232.49 91.79 227.4 81.9 225.14 71.81 225.14 50.9 227.4 40.8"/><polygon class="cls-1" points="316.43 102.5 316.43 121.58 388.46 121.58 388.46 102.5 362.07 102.5 362.07 20.38 387.65 20.38 387.65 1.29 317.24 1.29 317.24 20.38 342.82 20.38 342.82 102.5 316.43 102.5"/><path class="cls-1" d="M448.13,1.29,404.31,121.58h20.45L437,87.15h37l12.23,34.43H506.7L462.88,1.29Zm19.33,66.93H443.54l12-34.8Z"/><polygon class="cls-1" points="542.12 102.5 542.12 1.29 522.87 1.29 522.87 121.58 604.39 121.58 604.39 102.5 542.12 102.5"/></svg>